G04 EAGLE Gerber RS-274X export*
G75*
%MOMM*%
%FSLAX34Y34*%
%LPD*%
%INBottom Copper*%
%IPPOS*%
%AMOC8*
5,1,8,0,0,1.08239X$1,22.5*%
G01*
%ADD10P,1.979475X8X22.500000*%
%ADD11P,1.979475X8X292.500000*%
%ADD12C,1.828800*%
%ADD13P,1.979475X8X112.500000*%
%ADD14C,2.540000*%
%ADD15P,2.749271X8X112.500000*%
%ADD16R,2.016000X2.016000*%
%ADD17C,2.016000*%
%ADD18P,2.182098X8X202.500000*%
%ADD19C,2.032000*%
%ADD20P,1.979475X8X202.500000*%
%ADD21P,2.336880X8X22.500000*%
%ADD22C,0.812800*%
%ADD23C,0.609600*%
%ADD24C,1.106400*%

G36*
X420404Y-27928D02*
X420404Y-27928D01*
X420475Y-27926D01*
X420524Y-27908D01*
X420576Y-27900D01*
X420639Y-27866D01*
X420706Y-27841D01*
X420747Y-27809D01*
X420793Y-27784D01*
X420843Y-27732D01*
X420899Y-27688D01*
X420927Y-27644D01*
X420963Y-27606D01*
X420993Y-27541D01*
X421032Y-27481D01*
X421044Y-27430D01*
X421066Y-27383D01*
X421074Y-27312D01*
X421092Y-27242D01*
X421088Y-27190D01*
X421093Y-27139D01*
X421078Y-27068D01*
X421072Y-26997D01*
X421052Y-26949D01*
X421041Y-26898D01*
X421004Y-26837D01*
X420976Y-26771D01*
X420931Y-26715D01*
X420915Y-26687D01*
X420897Y-26672D01*
X420871Y-26640D01*
X419118Y-24886D01*
X415439Y-16006D01*
X415439Y-6394D01*
X419118Y2486D01*
X425914Y9282D01*
X434794Y12961D01*
X442978Y12961D01*
X442998Y12964D01*
X443017Y12962D01*
X443119Y12984D01*
X443221Y13000D01*
X443238Y13010D01*
X443258Y13014D01*
X443347Y13067D01*
X443438Y13116D01*
X443452Y13130D01*
X443469Y13140D01*
X443536Y13219D01*
X443608Y13294D01*
X443616Y13312D01*
X443629Y13327D01*
X443668Y13423D01*
X443711Y13517D01*
X443713Y13537D01*
X443721Y13555D01*
X443739Y13722D01*
X443739Y23943D01*
X443728Y24014D01*
X443726Y24086D01*
X443708Y24135D01*
X443700Y24186D01*
X443666Y24249D01*
X443641Y24317D01*
X443609Y24357D01*
X443584Y24404D01*
X443532Y24453D01*
X443488Y24509D01*
X443444Y24537D01*
X443406Y24573D01*
X443341Y24603D01*
X443281Y24642D01*
X443230Y24655D01*
X443183Y24677D01*
X443112Y24684D01*
X443042Y24702D01*
X442990Y24698D01*
X442939Y24704D01*
X442868Y24688D01*
X442797Y24683D01*
X442749Y24662D01*
X442698Y24651D01*
X442637Y24615D01*
X442571Y24586D01*
X442515Y24542D01*
X442487Y24525D01*
X442472Y24507D01*
X442440Y24482D01*
X439997Y22038D01*
X430086Y16989D01*
X419100Y15249D01*
X408114Y16989D01*
X398203Y22038D01*
X390338Y29903D01*
X385289Y39814D01*
X383549Y50800D01*
X385289Y61786D01*
X390338Y71697D01*
X398203Y79562D01*
X408114Y84611D01*
X419100Y86351D01*
X430086Y84611D01*
X439997Y79562D01*
X442440Y77118D01*
X442498Y77076D01*
X442550Y77027D01*
X442597Y77005D01*
X442639Y76975D01*
X442708Y76954D01*
X442773Y76923D01*
X442825Y76918D01*
X442875Y76902D01*
X442946Y76904D01*
X443017Y76896D01*
X443068Y76907D01*
X443120Y76909D01*
X443188Y76933D01*
X443258Y76949D01*
X443303Y76975D01*
X443351Y76993D01*
X443407Y77038D01*
X443469Y77075D01*
X443503Y77114D01*
X443543Y77147D01*
X443582Y77207D01*
X443629Y77262D01*
X443648Y77310D01*
X443676Y77354D01*
X443694Y77423D01*
X443721Y77490D01*
X443729Y77561D01*
X443737Y77592D01*
X443735Y77616D01*
X443739Y77657D01*
X443739Y96056D01*
X443724Y96152D01*
X443714Y96249D01*
X443704Y96273D01*
X443700Y96299D01*
X443654Y96385D01*
X443614Y96474D01*
X443597Y96493D01*
X443584Y96516D01*
X443514Y96583D01*
X443448Y96655D01*
X443425Y96667D01*
X443406Y96685D01*
X443318Y96726D01*
X443232Y96773D01*
X443207Y96778D01*
X443183Y96789D01*
X443086Y96800D01*
X442990Y96817D01*
X442964Y96813D01*
X442939Y96816D01*
X442843Y96795D01*
X442747Y96781D01*
X442724Y96769D01*
X442698Y96764D01*
X442615Y96714D01*
X442528Y96670D01*
X442509Y96651D01*
X442487Y96638D01*
X442424Y96564D01*
X442356Y96494D01*
X442340Y96466D01*
X442327Y96451D01*
X442315Y96420D01*
X442275Y96347D01*
X441654Y94848D01*
X438242Y91436D01*
X433783Y89589D01*
X428957Y89589D01*
X424498Y91436D01*
X421086Y94848D01*
X419590Y98460D01*
X419537Y98546D01*
X419488Y98635D01*
X419472Y98650D01*
X419460Y98669D01*
X419383Y98734D01*
X419308Y98803D01*
X419288Y98812D01*
X419271Y98826D01*
X419177Y98862D01*
X419084Y98904D01*
X419062Y98906D01*
X419041Y98914D01*
X418940Y98918D01*
X418839Y98929D01*
X418818Y98924D01*
X418796Y98925D01*
X418699Y98896D01*
X418600Y98874D01*
X418581Y98862D01*
X418559Y98856D01*
X418476Y98798D01*
X418390Y98745D01*
X418376Y98728D01*
X418357Y98716D01*
X418297Y98635D01*
X418232Y98557D01*
X418221Y98532D01*
X418211Y98518D01*
X418200Y98487D01*
X418163Y98404D01*
X417666Y96875D01*
X416764Y95105D01*
X415597Y93498D01*
X414192Y92093D01*
X412585Y90926D01*
X410815Y90024D01*
X408925Y89410D01*
X407493Y89183D01*
X407493Y100958D01*
X407490Y100978D01*
X407492Y100997D01*
X407470Y101099D01*
X407453Y101201D01*
X407444Y101218D01*
X407440Y101238D01*
X407387Y101327D01*
X407338Y101418D01*
X407324Y101432D01*
X407314Y101449D01*
X407235Y101516D01*
X407160Y101587D01*
X407142Y101596D01*
X407127Y101609D01*
X407031Y101647D01*
X406937Y101691D01*
X406917Y101693D01*
X406899Y101701D01*
X406732Y101719D01*
X405969Y101719D01*
X405969Y102482D01*
X405966Y102502D01*
X405968Y102521D01*
X405946Y102623D01*
X405929Y102725D01*
X405920Y102742D01*
X405916Y102762D01*
X405863Y102851D01*
X405814Y102942D01*
X405800Y102956D01*
X405790Y102973D01*
X405711Y103040D01*
X405636Y103111D01*
X405618Y103120D01*
X405603Y103133D01*
X405507Y103172D01*
X405413Y103215D01*
X405393Y103217D01*
X405375Y103225D01*
X405208Y103243D01*
X393433Y103243D01*
X393660Y104675D01*
X394274Y106565D01*
X395176Y108335D01*
X396343Y109942D01*
X397748Y111347D01*
X399355Y112514D01*
X401125Y113416D01*
X402654Y113913D01*
X402744Y113959D01*
X402837Y114000D01*
X402853Y114015D01*
X402873Y114026D01*
X402943Y114098D01*
X403018Y114167D01*
X403028Y114186D01*
X403044Y114202D01*
X403087Y114293D01*
X403136Y114382D01*
X403140Y114404D01*
X403150Y114424D01*
X403162Y114525D01*
X403180Y114624D01*
X403177Y114646D01*
X403179Y114668D01*
X403159Y114767D01*
X403144Y114868D01*
X403134Y114888D01*
X403130Y114909D01*
X403079Y114997D01*
X403033Y115087D01*
X403017Y115103D01*
X403006Y115122D01*
X402930Y115188D01*
X402857Y115259D01*
X402833Y115273D01*
X402820Y115283D01*
X402790Y115296D01*
X402710Y115340D01*
X399098Y116836D01*
X395686Y120248D01*
X393839Y124707D01*
X393839Y129533D01*
X395686Y133992D01*
X399098Y137404D01*
X403233Y139117D01*
X403294Y139155D01*
X403360Y139184D01*
X403398Y139219D01*
X403443Y139246D01*
X403488Y139302D01*
X403541Y139350D01*
X403566Y139396D01*
X403599Y139436D01*
X403625Y139503D01*
X403660Y139566D01*
X403669Y139617D01*
X403688Y139665D01*
X403691Y139737D01*
X403703Y139808D01*
X403696Y139859D01*
X403698Y139911D01*
X403678Y139980D01*
X403668Y140051D01*
X403644Y140097D01*
X403629Y140147D01*
X403589Y140206D01*
X403556Y140270D01*
X403519Y140307D01*
X403489Y140349D01*
X403432Y140392D01*
X403380Y140442D01*
X403318Y140477D01*
X403292Y140496D01*
X403270Y140503D01*
X403233Y140523D01*
X399098Y142236D01*
X395686Y145648D01*
X393839Y150107D01*
X393839Y154933D01*
X395686Y159392D01*
X399098Y162804D01*
X403233Y164517D01*
X403294Y164555D01*
X403360Y164584D01*
X403398Y164619D01*
X403443Y164646D01*
X403488Y164702D01*
X403541Y164750D01*
X403566Y164796D01*
X403599Y164836D01*
X403625Y164903D01*
X403660Y164966D01*
X403669Y165017D01*
X403688Y165065D01*
X403691Y165137D01*
X403703Y165208D01*
X403696Y165259D01*
X403698Y165311D01*
X403678Y165380D01*
X403668Y165451D01*
X403644Y165497D01*
X403629Y165547D01*
X403589Y165606D01*
X403556Y165670D01*
X403519Y165707D01*
X403489Y165749D01*
X403432Y165792D01*
X403380Y165842D01*
X403318Y165877D01*
X403292Y165896D01*
X403270Y165903D01*
X403233Y165923D01*
X399098Y167636D01*
X395686Y171048D01*
X393839Y175507D01*
X393839Y178290D01*
X393836Y178310D01*
X393838Y178329D01*
X393816Y178431D01*
X393800Y178533D01*
X393790Y178550D01*
X393786Y178570D01*
X393733Y178659D01*
X393684Y178750D01*
X393670Y178764D01*
X393660Y178781D01*
X393581Y178848D01*
X393506Y178920D01*
X393488Y178928D01*
X393473Y178941D01*
X393377Y178980D01*
X393283Y179023D01*
X393263Y179025D01*
X393245Y179033D01*
X393078Y179051D01*
X372538Y179051D01*
X306051Y245538D01*
X306051Y251573D01*
X306037Y251663D01*
X306029Y251754D01*
X306017Y251783D01*
X306012Y251815D01*
X305969Y251896D01*
X305933Y251980D01*
X305907Y252012D01*
X305896Y252033D01*
X305873Y252055D01*
X305828Y252111D01*
X254595Y303344D01*
X254521Y303397D01*
X254452Y303457D01*
X254421Y303469D01*
X254395Y303488D01*
X254308Y303515D01*
X254223Y303549D01*
X254182Y303553D01*
X254160Y303560D01*
X254128Y303559D01*
X254057Y303567D01*
X252492Y303567D01*
X249705Y304722D01*
X247572Y306855D01*
X246417Y309642D01*
X246417Y312658D01*
X247572Y315445D01*
X249705Y317578D01*
X252492Y318733D01*
X255508Y318733D01*
X258295Y317578D01*
X260428Y315445D01*
X261583Y312658D01*
X261583Y311093D01*
X261597Y311003D01*
X261605Y310912D01*
X261617Y310883D01*
X261622Y310851D01*
X261665Y310770D01*
X261701Y310686D01*
X261727Y310654D01*
X261738Y310633D01*
X261761Y310611D01*
X261806Y310555D01*
X316249Y256112D01*
X316249Y250077D01*
X316263Y249987D01*
X316271Y249896D01*
X316283Y249867D01*
X316288Y249835D01*
X316331Y249754D01*
X316367Y249670D01*
X316393Y249638D01*
X316404Y249617D01*
X316427Y249595D01*
X316472Y249539D01*
X376539Y189472D01*
X376613Y189419D01*
X376682Y189359D01*
X376713Y189347D01*
X376739Y189328D01*
X376826Y189301D01*
X376911Y189267D01*
X376952Y189263D01*
X376974Y189256D01*
X377006Y189257D01*
X377077Y189249D01*
X397710Y189249D01*
X397790Y189262D01*
X397872Y189266D01*
X397911Y189282D01*
X397953Y189288D01*
X397980Y189303D01*
X400105Y189249D01*
X400113Y189250D01*
X400125Y189249D01*
X401469Y189249D01*
X401534Y189259D01*
X401600Y189260D01*
X401680Y189283D01*
X401712Y189288D01*
X401729Y189298D01*
X401761Y189307D01*
X403233Y189917D01*
X403294Y189955D01*
X403360Y189984D01*
X403398Y190019D01*
X403443Y190046D01*
X403488Y190102D01*
X403541Y190150D01*
X403566Y190196D01*
X403599Y190236D01*
X403625Y190303D01*
X403660Y190366D01*
X403669Y190417D01*
X403688Y190465D01*
X403691Y190537D01*
X403703Y190608D01*
X403696Y190659D01*
X403698Y190711D01*
X403678Y190780D01*
X403668Y190851D01*
X403644Y190897D01*
X403629Y190947D01*
X403589Y191006D01*
X403556Y191070D01*
X403519Y191107D01*
X403489Y191149D01*
X403432Y191192D01*
X403380Y191242D01*
X403318Y191277D01*
X403292Y191296D01*
X403270Y191303D01*
X403233Y191323D01*
X399098Y193036D01*
X395686Y196448D01*
X393839Y200907D01*
X393839Y205733D01*
X395686Y210192D01*
X399098Y213604D01*
X403233Y215317D01*
X403294Y215355D01*
X403360Y215384D01*
X403398Y215419D01*
X403443Y215446D01*
X403488Y215502D01*
X403541Y215550D01*
X403566Y215596D01*
X403599Y215636D01*
X403625Y215703D01*
X403660Y215766D01*
X403669Y215817D01*
X403688Y215865D01*
X403691Y215937D01*
X403703Y216008D01*
X403696Y216059D01*
X403698Y216111D01*
X403678Y216180D01*
X403668Y216251D01*
X403644Y216297D01*
X403629Y216347D01*
X403589Y216406D01*
X403556Y216470D01*
X403519Y216507D01*
X403489Y216549D01*
X403432Y216592D01*
X403380Y216642D01*
X403318Y216677D01*
X403292Y216696D01*
X403270Y216703D01*
X403233Y216723D01*
X399098Y218436D01*
X395686Y221848D01*
X393839Y226307D01*
X393839Y229090D01*
X393836Y229110D01*
X393838Y229129D01*
X393816Y229231D01*
X393800Y229333D01*
X393790Y229350D01*
X393786Y229370D01*
X393733Y229459D01*
X393684Y229550D01*
X393670Y229564D01*
X393660Y229581D01*
X393581Y229648D01*
X393506Y229720D01*
X393488Y229728D01*
X393473Y229741D01*
X393377Y229780D01*
X393283Y229823D01*
X393263Y229825D01*
X393245Y229833D01*
X393078Y229851D01*
X372538Y229851D01*
X261601Y340788D01*
X261601Y368710D01*
X261587Y368800D01*
X261579Y368891D01*
X261567Y368921D01*
X261562Y368953D01*
X261519Y369033D01*
X261483Y369117D01*
X261457Y369149D01*
X261446Y369170D01*
X261423Y369192D01*
X261378Y369248D01*
X260272Y370355D01*
X259117Y373142D01*
X259117Y376158D01*
X259596Y377314D01*
X259618Y377409D01*
X259647Y377502D01*
X259646Y377528D01*
X259652Y377554D01*
X259643Y377650D01*
X259641Y377748D01*
X259632Y377773D01*
X259629Y377799D01*
X259590Y377888D01*
X259556Y377979D01*
X259540Y377999D01*
X259529Y378023D01*
X259463Y378095D01*
X259402Y378171D01*
X259380Y378185D01*
X259363Y378204D01*
X259277Y378251D01*
X259196Y378304D01*
X259170Y378310D01*
X259147Y378323D01*
X259051Y378340D01*
X258957Y378364D01*
X258931Y378362D01*
X258905Y378367D01*
X258809Y378352D01*
X258712Y378345D01*
X258688Y378335D01*
X258662Y378331D01*
X258575Y378287D01*
X258485Y378249D01*
X258460Y378228D01*
X258443Y378219D01*
X258419Y378196D01*
X258354Y378144D01*
X240272Y360061D01*
X240228Y360000D01*
X240195Y359965D01*
X240189Y359952D01*
X240159Y359918D01*
X240147Y359887D01*
X240128Y359861D01*
X240101Y359774D01*
X240067Y359689D01*
X240063Y359648D01*
X240056Y359626D01*
X240057Y359594D01*
X240049Y359523D01*
X240049Y205627D01*
X240063Y205537D01*
X240071Y205446D01*
X240083Y205417D01*
X240088Y205385D01*
X240131Y205304D01*
X240167Y205220D01*
X240193Y205188D01*
X240204Y205167D01*
X240227Y205145D01*
X240272Y205089D01*
X259755Y185606D01*
X259829Y185553D01*
X259898Y185493D01*
X259929Y185481D01*
X259955Y185462D01*
X260042Y185435D01*
X260127Y185401D01*
X260168Y185397D01*
X260190Y185390D01*
X260222Y185391D01*
X260293Y185383D01*
X261858Y185383D01*
X264645Y184228D01*
X266816Y182057D01*
X266838Y182017D01*
X266856Y181999D01*
X266870Y181977D01*
X266945Y181915D01*
X267016Y181848D01*
X267039Y181837D01*
X267059Y181820D01*
X267150Y181785D01*
X267239Y181744D01*
X267265Y181741D01*
X267289Y181732D01*
X267387Y181728D01*
X267483Y181717D01*
X267509Y181723D01*
X267535Y181722D01*
X267629Y181749D01*
X267724Y181769D01*
X267746Y181783D01*
X267771Y181790D01*
X267851Y181846D01*
X267935Y181896D01*
X267952Y181915D01*
X267973Y181930D01*
X268031Y182008D01*
X268095Y182082D01*
X268105Y182107D01*
X268120Y182127D01*
X268150Y182220D01*
X268187Y182311D01*
X268190Y182343D01*
X268196Y182361D01*
X268196Y182394D01*
X268200Y182432D01*
X274763Y188995D01*
X284037Y188995D01*
X290595Y182437D01*
X290595Y173163D01*
X284037Y166605D01*
X275731Y166605D01*
X275641Y166591D01*
X275550Y166583D01*
X275520Y166571D01*
X275489Y166566D01*
X275408Y166523D01*
X275324Y166487D01*
X275292Y166461D01*
X275271Y166450D01*
X275249Y166427D01*
X275193Y166382D01*
X261749Y152938D01*
X261737Y152922D01*
X261722Y152910D01*
X261666Y152822D01*
X261605Y152739D01*
X261600Y152720D01*
X261589Y152703D01*
X261563Y152602D01*
X261533Y152503D01*
X261534Y152484D01*
X261529Y152464D01*
X261537Y152361D01*
X261539Y152258D01*
X261546Y152239D01*
X261548Y152219D01*
X261588Y152124D01*
X261624Y152027D01*
X261636Y152011D01*
X261644Y151993D01*
X261749Y151862D01*
X325057Y88554D01*
X325131Y88501D01*
X325200Y88441D01*
X325231Y88429D01*
X325257Y88410D01*
X325344Y88383D01*
X325429Y88349D01*
X325469Y88345D01*
X325492Y88338D01*
X325524Y88339D01*
X325595Y88331D01*
X335225Y88331D01*
X342362Y81194D01*
X342378Y81182D01*
X342390Y81167D01*
X342478Y81110D01*
X342561Y81050D01*
X342580Y81044D01*
X342597Y81034D01*
X342698Y81008D01*
X342797Y80978D01*
X342816Y80978D01*
X342836Y80973D01*
X342939Y80981D01*
X343042Y80984D01*
X343061Y80991D01*
X343081Y80993D01*
X343176Y81033D01*
X343273Y81069D01*
X343289Y81081D01*
X343307Y81089D01*
X343438Y81194D01*
X350101Y87856D01*
X350112Y87872D01*
X350128Y87885D01*
X350184Y87972D01*
X350244Y88056D01*
X350250Y88075D01*
X350261Y88092D01*
X350286Y88192D01*
X350317Y88291D01*
X350316Y88311D01*
X350321Y88330D01*
X350313Y88433D01*
X350310Y88537D01*
X350303Y88556D01*
X350302Y88575D01*
X350262Y88670D01*
X350226Y88768D01*
X350213Y88783D01*
X350206Y88802D01*
X350101Y88933D01*
X342754Y96279D01*
X342754Y106921D01*
X349595Y113762D01*
X349607Y113778D01*
X349622Y113790D01*
X349678Y113878D01*
X349739Y113961D01*
X349744Y113980D01*
X349755Y113997D01*
X349781Y114098D01*
X349811Y114197D01*
X349810Y114216D01*
X349815Y114236D01*
X349807Y114339D01*
X349805Y114442D01*
X349798Y114461D01*
X349796Y114481D01*
X349756Y114576D01*
X349720Y114673D01*
X349708Y114689D01*
X349700Y114707D01*
X349595Y114838D01*
X342754Y121679D01*
X342754Y132321D01*
X350279Y139846D01*
X360921Y139846D01*
X368446Y132321D01*
X368446Y121679D01*
X361605Y114838D01*
X361593Y114822D01*
X361578Y114810D01*
X361522Y114722D01*
X361461Y114639D01*
X361455Y114620D01*
X361445Y114603D01*
X361419Y114502D01*
X361389Y114403D01*
X361390Y114384D01*
X361385Y114364D01*
X361393Y114261D01*
X361395Y114158D01*
X361402Y114139D01*
X361404Y114119D01*
X361444Y114024D01*
X361480Y113927D01*
X361492Y113911D01*
X361500Y113893D01*
X361605Y113762D01*
X368446Y106921D01*
X368446Y96279D01*
X361099Y88933D01*
X361088Y88917D01*
X361072Y88904D01*
X361016Y88817D01*
X360956Y88733D01*
X360950Y88714D01*
X360939Y88697D01*
X360914Y88597D01*
X360883Y88498D01*
X360884Y88478D01*
X360879Y88459D01*
X360887Y88356D01*
X360890Y88252D01*
X360897Y88233D01*
X360898Y88213D01*
X360938Y88119D01*
X360974Y88021D01*
X360987Y88005D01*
X360994Y87987D01*
X361099Y87856D01*
X367731Y81225D01*
X367731Y71175D01*
X360940Y64385D01*
X360929Y64369D01*
X360913Y64356D01*
X360857Y64269D01*
X360797Y64185D01*
X360791Y64166D01*
X360780Y64149D01*
X360755Y64049D01*
X360724Y63950D01*
X360725Y63930D01*
X360720Y63911D01*
X360728Y63808D01*
X360731Y63704D01*
X360738Y63685D01*
X360739Y63665D01*
X360779Y63571D01*
X360815Y63473D01*
X360828Y63457D01*
X360835Y63439D01*
X360940Y63308D01*
X368221Y56028D01*
X368221Y52323D01*
X356362Y52323D01*
X356342Y52320D01*
X356323Y52322D01*
X356221Y52300D01*
X356119Y52283D01*
X356102Y52274D01*
X356082Y52270D01*
X355993Y52217D01*
X355902Y52168D01*
X355888Y52154D01*
X355871Y52144D01*
X355804Y52065D01*
X355733Y51990D01*
X355724Y51972D01*
X355711Y51957D01*
X355673Y51861D01*
X355629Y51767D01*
X355627Y51747D01*
X355619Y51729D01*
X355601Y51562D01*
X355601Y50799D01*
X355599Y50799D01*
X355599Y51562D01*
X355596Y51582D01*
X355598Y51601D01*
X355576Y51703D01*
X355559Y51805D01*
X355550Y51822D01*
X355546Y51842D01*
X355493Y51931D01*
X355444Y52022D01*
X355430Y52036D01*
X355420Y52053D01*
X355341Y52120D01*
X355266Y52191D01*
X355248Y52200D01*
X355233Y52213D01*
X355137Y52252D01*
X355043Y52295D01*
X355023Y52297D01*
X355005Y52305D01*
X354838Y52323D01*
X330962Y52323D01*
X330942Y52320D01*
X330923Y52322D01*
X330821Y52300D01*
X330719Y52283D01*
X330702Y52274D01*
X330682Y52270D01*
X330593Y52217D01*
X330502Y52168D01*
X330488Y52154D01*
X330471Y52144D01*
X330404Y52065D01*
X330333Y51990D01*
X330324Y51972D01*
X330311Y51957D01*
X330273Y51861D01*
X330229Y51767D01*
X330227Y51747D01*
X330219Y51729D01*
X330201Y51562D01*
X330201Y50799D01*
X329438Y50799D01*
X329418Y50796D01*
X329399Y50798D01*
X329297Y50776D01*
X329195Y50759D01*
X329178Y50750D01*
X329158Y50746D01*
X329069Y50693D01*
X328978Y50644D01*
X328964Y50630D01*
X328947Y50620D01*
X328880Y50541D01*
X328809Y50466D01*
X328800Y50448D01*
X328787Y50433D01*
X328748Y50337D01*
X328705Y50243D01*
X328703Y50223D01*
X328695Y50205D01*
X328677Y50038D01*
X328677Y38179D01*
X324972Y38179D01*
X318398Y44754D01*
X318381Y44766D01*
X318369Y44781D01*
X318282Y44837D01*
X318198Y44898D01*
X318179Y44903D01*
X318162Y44914D01*
X318062Y44940D01*
X317963Y44970D01*
X317943Y44969D01*
X317923Y44974D01*
X317820Y44966D01*
X317717Y44964D01*
X317698Y44957D01*
X317678Y44955D01*
X317583Y44915D01*
X317486Y44879D01*
X317470Y44867D01*
X317452Y44859D01*
X317321Y44754D01*
X310238Y37671D01*
X302045Y37671D01*
X301955Y37657D01*
X301864Y37649D01*
X301835Y37637D01*
X301803Y37632D01*
X301722Y37589D01*
X301638Y37553D01*
X301606Y37527D01*
X301585Y37516D01*
X301563Y37493D01*
X301507Y37448D01*
X291887Y27828D01*
X289779Y25720D01*
X287165Y24637D01*
X246235Y24637D01*
X243621Y25720D01*
X228920Y40421D01*
X227837Y43035D01*
X227837Y91988D01*
X227823Y92079D01*
X227815Y92169D01*
X227803Y92199D01*
X227798Y92231D01*
X227755Y92312D01*
X227719Y92396D01*
X227693Y92428D01*
X227682Y92449D01*
X227659Y92471D01*
X227614Y92527D01*
X178120Y142021D01*
X177037Y144635D01*
X177037Y528465D01*
X178120Y531079D01*
X203484Y556443D01*
X203537Y556517D01*
X203597Y556587D01*
X203609Y556617D01*
X203628Y556643D01*
X203655Y556730D01*
X203689Y556815D01*
X203693Y556856D01*
X203700Y556878D01*
X203699Y556910D01*
X203707Y556982D01*
X203707Y563850D01*
X210850Y570993D01*
X220950Y570993D01*
X228093Y563850D01*
X228093Y553750D01*
X220950Y546607D01*
X214082Y546607D01*
X213991Y546593D01*
X213901Y546585D01*
X213871Y546573D01*
X213839Y546568D01*
X213758Y546525D01*
X213674Y546489D01*
X213642Y546463D01*
X213621Y546452D01*
X213599Y546429D01*
X213543Y546384D01*
X191486Y524327D01*
X191433Y524253D01*
X191373Y524183D01*
X191361Y524153D01*
X191342Y524127D01*
X191315Y524040D01*
X191281Y523955D01*
X191277Y523914D01*
X191270Y523892D01*
X191271Y523860D01*
X191263Y523788D01*
X191263Y514425D01*
X191274Y514355D01*
X191276Y514283D01*
X191294Y514234D01*
X191302Y514182D01*
X191336Y514119D01*
X191361Y514052D01*
X191393Y514011D01*
X191418Y513965D01*
X191470Y513916D01*
X191514Y513860D01*
X191558Y513832D01*
X191596Y513796D01*
X191661Y513766D01*
X191721Y513727D01*
X191772Y513714D01*
X191819Y513692D01*
X191890Y513684D01*
X191960Y513667D01*
X192012Y513671D01*
X192063Y513665D01*
X192134Y513680D01*
X192205Y513686D01*
X192253Y513706D01*
X192304Y513717D01*
X192365Y513754D01*
X192431Y513782D01*
X192487Y513827D01*
X192515Y513843D01*
X192530Y513861D01*
X192562Y513887D01*
X198360Y519685D01*
X201677Y519685D01*
X201677Y508762D01*
X201680Y508742D01*
X201678Y508723D01*
X201700Y508621D01*
X201717Y508519D01*
X201726Y508502D01*
X201730Y508482D01*
X201783Y508393D01*
X201832Y508302D01*
X201846Y508288D01*
X201856Y508271D01*
X201935Y508204D01*
X202010Y508133D01*
X202028Y508124D01*
X202043Y508111D01*
X202139Y508073D01*
X202233Y508029D01*
X202253Y508027D01*
X202271Y508019D01*
X202438Y508001D01*
X203201Y508001D01*
X203201Y507999D01*
X202438Y507999D01*
X202418Y507996D01*
X202399Y507998D01*
X202297Y507976D01*
X202195Y507959D01*
X202178Y507950D01*
X202158Y507946D01*
X202069Y507893D01*
X201978Y507844D01*
X201964Y507830D01*
X201947Y507820D01*
X201880Y507741D01*
X201809Y507666D01*
X201800Y507648D01*
X201787Y507633D01*
X201748Y507537D01*
X201705Y507443D01*
X201703Y507423D01*
X201695Y507405D01*
X201677Y507238D01*
X201677Y496315D01*
X198360Y496315D01*
X192562Y502113D01*
X192504Y502155D01*
X192452Y502204D01*
X192405Y502226D01*
X192363Y502257D01*
X192294Y502278D01*
X192229Y502308D01*
X192177Y502314D01*
X192127Y502329D01*
X192056Y502327D01*
X191985Y502335D01*
X191934Y502324D01*
X191882Y502323D01*
X191814Y502298D01*
X191744Y502283D01*
X191699Y502256D01*
X191651Y502238D01*
X191595Y502193D01*
X191533Y502157D01*
X191499Y502117D01*
X191459Y502084D01*
X191420Y502024D01*
X191373Y501970D01*
X191354Y501921D01*
X191326Y501878D01*
X191308Y501808D01*
X191281Y501741D01*
X191273Y501670D01*
X191265Y501639D01*
X191267Y501616D01*
X191263Y501575D01*
X191263Y464344D01*
X191274Y464273D01*
X191276Y464201D01*
X191294Y464152D01*
X191302Y464101D01*
X191336Y464038D01*
X191361Y463970D01*
X191393Y463930D01*
X191418Y463884D01*
X191470Y463834D01*
X191514Y463778D01*
X191558Y463750D01*
X191596Y463714D01*
X191661Y463684D01*
X191721Y463645D01*
X191772Y463632D01*
X191819Y463611D01*
X191890Y463603D01*
X191960Y463585D01*
X192012Y463589D01*
X192063Y463583D01*
X192134Y463599D01*
X192205Y463604D01*
X192253Y463625D01*
X192304Y463636D01*
X192365Y463673D01*
X192431Y463701D01*
X192487Y463745D01*
X192515Y463762D01*
X192530Y463780D01*
X192562Y463805D01*
X198150Y469393D01*
X208250Y469393D01*
X215393Y462250D01*
X215393Y452150D01*
X208250Y445007D01*
X198150Y445007D01*
X192562Y450595D01*
X192504Y450636D01*
X192452Y450686D01*
X192405Y450708D01*
X192363Y450738D01*
X192294Y450759D01*
X192229Y450789D01*
X192177Y450795D01*
X192127Y450811D01*
X192056Y450809D01*
X191985Y450817D01*
X191934Y450806D01*
X191882Y450804D01*
X191814Y450780D01*
X191744Y450764D01*
X191699Y450738D01*
X191651Y450720D01*
X191595Y450675D01*
X191533Y450638D01*
X191499Y450599D01*
X191459Y450566D01*
X191420Y450506D01*
X191373Y450451D01*
X191354Y450403D01*
X191326Y450359D01*
X191308Y450290D01*
X191281Y450223D01*
X191273Y450152D01*
X191265Y450121D01*
X191267Y450097D01*
X191263Y450056D01*
X191263Y260425D01*
X191274Y260355D01*
X191276Y260283D01*
X191294Y260234D01*
X191302Y260182D01*
X191336Y260119D01*
X191361Y260052D01*
X191393Y260011D01*
X191418Y259965D01*
X191470Y259916D01*
X191514Y259860D01*
X191558Y259832D01*
X191596Y259796D01*
X191661Y259766D01*
X191721Y259727D01*
X191772Y259714D01*
X191819Y259692D01*
X191890Y259684D01*
X191960Y259667D01*
X192012Y259671D01*
X192063Y259665D01*
X192134Y259680D01*
X192205Y259686D01*
X192253Y259706D01*
X192304Y259717D01*
X192365Y259754D01*
X192431Y259782D01*
X192487Y259827D01*
X192515Y259843D01*
X192530Y259861D01*
X192562Y259887D01*
X198360Y265685D01*
X201677Y265685D01*
X201677Y254762D01*
X201680Y254742D01*
X201678Y254723D01*
X201700Y254621D01*
X201717Y254519D01*
X201726Y254502D01*
X201730Y254482D01*
X201783Y254393D01*
X201832Y254302D01*
X201846Y254288D01*
X201856Y254271D01*
X201935Y254204D01*
X202010Y254133D01*
X202028Y254124D01*
X202043Y254111D01*
X202139Y254073D01*
X202233Y254029D01*
X202253Y254027D01*
X202271Y254019D01*
X202438Y254001D01*
X203201Y254001D01*
X203201Y253999D01*
X202438Y253999D01*
X202418Y253996D01*
X202399Y253998D01*
X202297Y253976D01*
X202195Y253959D01*
X202178Y253950D01*
X202158Y253946D01*
X202069Y253893D01*
X201978Y253844D01*
X201964Y253830D01*
X201947Y253820D01*
X201880Y253741D01*
X201809Y253666D01*
X201800Y253648D01*
X201787Y253633D01*
X201748Y253537D01*
X201705Y253443D01*
X201703Y253423D01*
X201695Y253405D01*
X201677Y253238D01*
X201677Y242315D01*
X198360Y242315D01*
X192562Y248113D01*
X192504Y248155D01*
X192452Y248204D01*
X192405Y248226D01*
X192363Y248257D01*
X192294Y248278D01*
X192229Y248308D01*
X192177Y248314D01*
X192127Y248329D01*
X192056Y248327D01*
X191985Y248335D01*
X191934Y248324D01*
X191882Y248323D01*
X191814Y248298D01*
X191744Y248283D01*
X191699Y248256D01*
X191651Y248238D01*
X191595Y248193D01*
X191533Y248157D01*
X191499Y248117D01*
X191459Y248084D01*
X191420Y248024D01*
X191373Y247970D01*
X191354Y247921D01*
X191326Y247878D01*
X191308Y247808D01*
X191281Y247741D01*
X191273Y247670D01*
X191265Y247639D01*
X191267Y247616D01*
X191263Y247575D01*
X191263Y235025D01*
X191274Y234955D01*
X191276Y234883D01*
X191294Y234834D01*
X191302Y234782D01*
X191336Y234719D01*
X191361Y234652D01*
X191393Y234611D01*
X191418Y234565D01*
X191470Y234516D01*
X191514Y234460D01*
X191558Y234432D01*
X191596Y234396D01*
X191661Y234366D01*
X191721Y234327D01*
X191772Y234314D01*
X191819Y234292D01*
X191890Y234284D01*
X191960Y234267D01*
X192012Y234271D01*
X192063Y234265D01*
X192134Y234280D01*
X192205Y234286D01*
X192253Y234306D01*
X192304Y234317D01*
X192365Y234354D01*
X192431Y234382D01*
X192487Y234427D01*
X192515Y234443D01*
X192530Y234461D01*
X192562Y234487D01*
X198360Y240285D01*
X201677Y240285D01*
X201677Y229362D01*
X201680Y229343D01*
X201678Y229324D01*
X201678Y229323D01*
X201700Y229221D01*
X201717Y229119D01*
X201726Y229102D01*
X201730Y229082D01*
X201783Y228993D01*
X201832Y228902D01*
X201846Y228888D01*
X201856Y228871D01*
X201935Y228804D01*
X202010Y228733D01*
X202028Y228724D01*
X202043Y228711D01*
X202139Y228673D01*
X202233Y228629D01*
X202253Y228627D01*
X202271Y228619D01*
X202438Y228601D01*
X203201Y228601D01*
X203201Y228599D01*
X202438Y228599D01*
X202418Y228596D01*
X202399Y228598D01*
X202297Y228576D01*
X202195Y228559D01*
X202178Y228550D01*
X202158Y228546D01*
X202069Y228493D01*
X201978Y228444D01*
X201964Y228430D01*
X201947Y228420D01*
X201880Y228341D01*
X201809Y228266D01*
X201800Y228248D01*
X201787Y228233D01*
X201748Y228137D01*
X201705Y228043D01*
X201703Y228023D01*
X201695Y228005D01*
X201677Y227838D01*
X201677Y216915D01*
X198360Y216915D01*
X192562Y222713D01*
X192504Y222755D01*
X192452Y222804D01*
X192405Y222826D01*
X192363Y222857D01*
X192294Y222878D01*
X192229Y222908D01*
X192177Y222914D01*
X192127Y222929D01*
X192056Y222927D01*
X191985Y222935D01*
X191934Y222924D01*
X191882Y222923D01*
X191814Y222898D01*
X191744Y222883D01*
X191699Y222856D01*
X191651Y222838D01*
X191595Y222793D01*
X191533Y222757D01*
X191499Y222717D01*
X191459Y222684D01*
X191420Y222624D01*
X191373Y222570D01*
X191354Y222521D01*
X191326Y222478D01*
X191308Y222408D01*
X191281Y222341D01*
X191273Y222270D01*
X191265Y222239D01*
X191267Y222216D01*
X191263Y222175D01*
X191263Y209625D01*
X191274Y209555D01*
X191276Y209483D01*
X191294Y209434D01*
X191302Y209382D01*
X191336Y209319D01*
X191361Y209252D01*
X191393Y209211D01*
X191418Y209165D01*
X191470Y209116D01*
X191514Y209060D01*
X191558Y209032D01*
X191596Y208996D01*
X191661Y208966D01*
X191721Y208927D01*
X191772Y208914D01*
X191819Y208892D01*
X191890Y208884D01*
X191960Y208867D01*
X192012Y208871D01*
X192063Y208865D01*
X192134Y208880D01*
X192205Y208886D01*
X192253Y208906D01*
X192304Y208917D01*
X192365Y208954D01*
X192431Y208982D01*
X192487Y209027D01*
X192515Y209043D01*
X192530Y209061D01*
X192562Y209087D01*
X198360Y214885D01*
X201677Y214885D01*
X201677Y203962D01*
X201680Y203942D01*
X201678Y203923D01*
X201700Y203821D01*
X201717Y203719D01*
X201726Y203702D01*
X201730Y203682D01*
X201783Y203593D01*
X201832Y203502D01*
X201846Y203488D01*
X201856Y203471D01*
X201935Y203404D01*
X202010Y203333D01*
X202028Y203324D01*
X202043Y203311D01*
X202139Y203273D01*
X202233Y203229D01*
X202253Y203227D01*
X202271Y203219D01*
X202438Y203201D01*
X203201Y203201D01*
X203201Y203199D01*
X202438Y203199D01*
X202418Y203196D01*
X202399Y203198D01*
X202297Y203176D01*
X202195Y203159D01*
X202178Y203150D01*
X202158Y203146D01*
X202069Y203093D01*
X201978Y203044D01*
X201964Y203030D01*
X201947Y203020D01*
X201880Y202941D01*
X201809Y202866D01*
X201800Y202848D01*
X201787Y202833D01*
X201748Y202737D01*
X201705Y202643D01*
X201703Y202623D01*
X201695Y202605D01*
X201677Y202438D01*
X201677Y191515D01*
X198360Y191515D01*
X192562Y197313D01*
X192504Y197355D01*
X192452Y197404D01*
X192405Y197426D01*
X192363Y197457D01*
X192294Y197478D01*
X192229Y197508D01*
X192177Y197514D01*
X192127Y197529D01*
X192056Y197527D01*
X191985Y197535D01*
X191934Y197524D01*
X191882Y197523D01*
X191814Y197498D01*
X191744Y197483D01*
X191699Y197456D01*
X191651Y197438D01*
X191595Y197393D01*
X191533Y197357D01*
X191499Y197317D01*
X191459Y197284D01*
X191420Y197224D01*
X191373Y197170D01*
X191354Y197121D01*
X191326Y197078D01*
X191308Y197008D01*
X191281Y196941D01*
X191273Y196870D01*
X191265Y196839D01*
X191267Y196816D01*
X191263Y196775D01*
X191263Y184225D01*
X191274Y184155D01*
X191276Y184083D01*
X191294Y184034D01*
X191302Y183982D01*
X191336Y183919D01*
X191361Y183852D01*
X191393Y183811D01*
X191418Y183765D01*
X191470Y183716D01*
X191514Y183660D01*
X191558Y183632D01*
X191596Y183596D01*
X191661Y183566D01*
X191721Y183527D01*
X191772Y183514D01*
X191819Y183492D01*
X191890Y183484D01*
X191960Y183467D01*
X192012Y183471D01*
X192063Y183465D01*
X192134Y183480D01*
X192205Y183486D01*
X192253Y183506D01*
X192304Y183517D01*
X192365Y183554D01*
X192431Y183582D01*
X192487Y183627D01*
X192515Y183643D01*
X192530Y183661D01*
X192562Y183687D01*
X198360Y189485D01*
X201677Y189485D01*
X201677Y178562D01*
X201680Y178542D01*
X201678Y178523D01*
X201700Y178421D01*
X201717Y178319D01*
X201726Y178302D01*
X201730Y178282D01*
X201783Y178193D01*
X201832Y178102D01*
X201846Y178088D01*
X201856Y178071D01*
X201935Y178004D01*
X202010Y177933D01*
X202028Y177924D01*
X202043Y177911D01*
X202139Y177873D01*
X202233Y177829D01*
X202253Y177827D01*
X202271Y177819D01*
X202438Y177801D01*
X203201Y177801D01*
X203201Y177799D01*
X202438Y177799D01*
X202418Y177796D01*
X202399Y177798D01*
X202297Y177776D01*
X202195Y177759D01*
X202178Y177750D01*
X202158Y177746D01*
X202069Y177693D01*
X201978Y177644D01*
X201964Y177630D01*
X201947Y177620D01*
X201880Y177541D01*
X201809Y177466D01*
X201800Y177448D01*
X201787Y177433D01*
X201748Y177337D01*
X201705Y177243D01*
X201703Y177223D01*
X201695Y177205D01*
X201677Y177038D01*
X201677Y166115D01*
X198360Y166115D01*
X192562Y171913D01*
X192504Y171955D01*
X192452Y172004D01*
X192405Y172026D01*
X192363Y172057D01*
X192294Y172078D01*
X192229Y172108D01*
X192177Y172114D01*
X192127Y172129D01*
X192056Y172127D01*
X191985Y172135D01*
X191934Y172124D01*
X191882Y172123D01*
X191814Y172098D01*
X191744Y172083D01*
X191699Y172056D01*
X191651Y172038D01*
X191595Y171993D01*
X191533Y171957D01*
X191499Y171917D01*
X191459Y171884D01*
X191420Y171824D01*
X191373Y171770D01*
X191354Y171721D01*
X191326Y171678D01*
X191308Y171608D01*
X191281Y171541D01*
X191273Y171470D01*
X191265Y171439D01*
X191267Y171416D01*
X191263Y171375D01*
X191263Y149312D01*
X191277Y149221D01*
X191285Y149131D01*
X191297Y149101D01*
X191302Y149069D01*
X191345Y148988D01*
X191381Y148904D01*
X191407Y148872D01*
X191418Y148851D01*
X191441Y148829D01*
X191486Y148773D01*
X216106Y124153D01*
X216164Y124111D01*
X216216Y124062D01*
X216263Y124040D01*
X216305Y124010D01*
X216374Y123989D01*
X216439Y123958D01*
X216491Y123953D01*
X216541Y123937D01*
X216612Y123939D01*
X216683Y123931D01*
X216734Y123942D01*
X216786Y123944D01*
X216854Y123968D01*
X216924Y123983D01*
X216969Y124010D01*
X217017Y124028D01*
X217073Y124073D01*
X217135Y124110D01*
X217169Y124149D01*
X217209Y124182D01*
X217248Y124242D01*
X217295Y124297D01*
X217314Y124345D01*
X217342Y124389D01*
X217360Y124458D01*
X217387Y124525D01*
X217395Y124596D01*
X217403Y124627D01*
X217401Y124651D01*
X217405Y124691D01*
X217405Y129227D01*
X219110Y133341D01*
X222259Y136490D01*
X226373Y138195D01*
X230827Y138195D01*
X234941Y136490D01*
X238090Y133341D01*
X239795Y129227D01*
X239795Y124773D01*
X238090Y120659D01*
X234941Y117510D01*
X230827Y115805D01*
X226291Y115805D01*
X226221Y115794D01*
X226149Y115792D01*
X226100Y115774D01*
X226049Y115766D01*
X225985Y115732D01*
X225918Y115707D01*
X225877Y115675D01*
X225831Y115650D01*
X225782Y115598D01*
X225726Y115554D01*
X225698Y115510D01*
X225662Y115472D01*
X225632Y115407D01*
X225593Y115347D01*
X225580Y115296D01*
X225558Y115249D01*
X225550Y115178D01*
X225533Y115108D01*
X225537Y115056D01*
X225531Y115005D01*
X225546Y114934D01*
X225552Y114863D01*
X225572Y114815D01*
X225583Y114764D01*
X225620Y114703D01*
X225648Y114637D01*
X225693Y114581D01*
X225710Y114553D01*
X225727Y114538D01*
X225753Y114506D01*
X240980Y99279D01*
X242063Y96665D01*
X242063Y83949D01*
X242065Y83936D01*
X242064Y83925D01*
X242074Y83876D01*
X242076Y83806D01*
X242094Y83758D01*
X242102Y83706D01*
X242136Y83643D01*
X242161Y83575D01*
X242193Y83535D01*
X242218Y83489D01*
X242270Y83439D01*
X242314Y83383D01*
X242358Y83355D01*
X242396Y83319D01*
X242461Y83289D01*
X242521Y83250D01*
X242572Y83238D01*
X242619Y83216D01*
X242690Y83208D01*
X242760Y83190D01*
X242812Y83194D01*
X242863Y83189D01*
X242934Y83204D01*
X243005Y83210D01*
X243053Y83230D01*
X243104Y83241D01*
X243165Y83278D01*
X243231Y83306D01*
X243287Y83351D01*
X243315Y83367D01*
X243330Y83385D01*
X243362Y83411D01*
X248772Y88821D01*
X252477Y88821D01*
X252477Y76962D01*
X252480Y76942D01*
X252478Y76923D01*
X252500Y76821D01*
X252517Y76719D01*
X252526Y76702D01*
X252530Y76682D01*
X252583Y76593D01*
X252632Y76502D01*
X252646Y76488D01*
X252656Y76471D01*
X252735Y76404D01*
X252810Y76333D01*
X252828Y76324D01*
X252843Y76311D01*
X252939Y76273D01*
X253033Y76229D01*
X253053Y76227D01*
X253071Y76219D01*
X253238Y76201D01*
X254762Y76201D01*
X254782Y76204D01*
X254801Y76202D01*
X254903Y76224D01*
X255005Y76241D01*
X255022Y76250D01*
X255042Y76254D01*
X255131Y76307D01*
X255222Y76356D01*
X255236Y76370D01*
X255253Y76380D01*
X255320Y76459D01*
X255391Y76534D01*
X255400Y76552D01*
X255413Y76567D01*
X255452Y76663D01*
X255495Y76757D01*
X255497Y76777D01*
X255505Y76795D01*
X255523Y76962D01*
X255523Y88821D01*
X259228Y88821D01*
X266508Y81540D01*
X266524Y81529D01*
X266537Y81513D01*
X266624Y81457D01*
X266708Y81397D01*
X266727Y81391D01*
X266744Y81380D01*
X266844Y81355D01*
X266943Y81324D01*
X266963Y81325D01*
X266982Y81320D01*
X267085Y81328D01*
X267189Y81331D01*
X267208Y81338D01*
X267227Y81339D01*
X267322Y81379D01*
X267420Y81415D01*
X267436Y81428D01*
X267454Y81435D01*
X267585Y81540D01*
X274375Y88331D01*
X284425Y88331D01*
X291215Y81540D01*
X291231Y81529D01*
X291244Y81513D01*
X291331Y81457D01*
X291415Y81397D01*
X291434Y81391D01*
X291451Y81380D01*
X291551Y81355D01*
X291650Y81324D01*
X291670Y81325D01*
X291689Y81320D01*
X291792Y81328D01*
X291896Y81331D01*
X291915Y81338D01*
X291935Y81339D01*
X292029Y81379D01*
X292127Y81415D01*
X292143Y81428D01*
X292161Y81435D01*
X292292Y81540D01*
X299572Y88821D01*
X303277Y88821D01*
X303277Y76962D01*
X303280Y76942D01*
X303278Y76923D01*
X303300Y76821D01*
X303317Y76719D01*
X303326Y76702D01*
X303330Y76682D01*
X303383Y76593D01*
X303432Y76502D01*
X303446Y76488D01*
X303456Y76471D01*
X303535Y76404D01*
X303610Y76333D01*
X303628Y76324D01*
X303643Y76311D01*
X303739Y76273D01*
X303833Y76229D01*
X303853Y76227D01*
X303871Y76219D01*
X304038Y76201D01*
X305562Y76201D01*
X305582Y76204D01*
X305601Y76202D01*
X305703Y76224D01*
X305805Y76241D01*
X305822Y76250D01*
X305842Y76254D01*
X305931Y76307D01*
X306022Y76356D01*
X306036Y76370D01*
X306053Y76380D01*
X306120Y76459D01*
X306191Y76534D01*
X306200Y76552D01*
X306213Y76567D01*
X306252Y76663D01*
X306295Y76757D01*
X306297Y76777D01*
X306305Y76795D01*
X306323Y76962D01*
X306323Y88821D01*
X308531Y88821D01*
X308602Y88832D01*
X308673Y88834D01*
X308722Y88852D01*
X308774Y88860D01*
X308837Y88894D01*
X308904Y88919D01*
X308945Y88951D01*
X308991Y88976D01*
X309040Y89027D01*
X309096Y89072D01*
X309124Y89116D01*
X309160Y89154D01*
X309190Y89219D01*
X309229Y89279D01*
X309242Y89330D01*
X309264Y89377D01*
X309272Y89448D01*
X309289Y89518D01*
X309285Y89570D01*
X309291Y89621D01*
X309276Y89692D01*
X309270Y89763D01*
X309250Y89811D01*
X309239Y89862D01*
X309202Y89923D01*
X309174Y89989D01*
X309129Y90045D01*
X309113Y90073D01*
X309095Y90088D01*
X309069Y90120D01*
X252111Y147078D01*
X252037Y147131D01*
X251968Y147191D01*
X251937Y147203D01*
X251911Y147222D01*
X251824Y147249D01*
X251739Y147283D01*
X251698Y147287D01*
X251676Y147294D01*
X251644Y147293D01*
X251573Y147301D01*
X239648Y147301D01*
X239558Y147287D01*
X239467Y147279D01*
X239438Y147267D01*
X239406Y147262D01*
X239325Y147219D01*
X239241Y147183D01*
X239209Y147157D01*
X239188Y147146D01*
X239166Y147123D01*
X239110Y147078D01*
X233237Y141205D01*
X223963Y141205D01*
X217405Y147763D01*
X217405Y157037D01*
X223963Y163595D01*
X233237Y163595D01*
X239110Y157722D01*
X239184Y157669D01*
X239253Y157609D01*
X239284Y157597D01*
X239310Y157578D01*
X239397Y157551D01*
X239482Y157517D01*
X239523Y157513D01*
X239545Y157506D01*
X239577Y157507D01*
X239648Y157499D01*
X251573Y157499D01*
X251663Y157513D01*
X251754Y157521D01*
X251783Y157533D01*
X251815Y157538D01*
X251896Y157581D01*
X251980Y157617D01*
X252012Y157643D01*
X252033Y157654D01*
X252055Y157677D01*
X252111Y157722D01*
X263844Y169454D01*
X263887Y169514D01*
X263928Y169558D01*
X263938Y169578D01*
X263963Y169609D01*
X263972Y169633D01*
X263987Y169654D01*
X264016Y169747D01*
X264032Y169781D01*
X264033Y169791D01*
X264051Y169838D01*
X264052Y169864D01*
X264060Y169889D01*
X264057Y169987D01*
X264061Y170084D01*
X264054Y170109D01*
X264053Y170135D01*
X264020Y170227D01*
X263993Y170320D01*
X263978Y170342D01*
X263969Y170366D01*
X263908Y170442D01*
X263852Y170522D01*
X263832Y170538D01*
X263815Y170558D01*
X263733Y170611D01*
X263655Y170669D01*
X263630Y170677D01*
X263608Y170691D01*
X263514Y170715D01*
X263421Y170745D01*
X263395Y170745D01*
X263370Y170751D01*
X263305Y170746D01*
X263299Y170747D01*
X263289Y170747D01*
X263268Y170744D01*
X263175Y170743D01*
X263144Y170734D01*
X263125Y170732D01*
X263094Y170719D01*
X263062Y170710D01*
X263046Y170707D01*
X263037Y170703D01*
X263014Y170696D01*
X261858Y170217D01*
X258842Y170217D01*
X256055Y171372D01*
X253922Y173505D01*
X252767Y176292D01*
X252767Y177857D01*
X252753Y177947D01*
X252745Y178038D01*
X252733Y178067D01*
X252728Y178099D01*
X252685Y178180D01*
X252649Y178264D01*
X252623Y178296D01*
X252612Y178317D01*
X252589Y178339D01*
X252544Y178395D01*
X229851Y201088D01*
X229851Y364062D01*
X302688Y436899D01*
X344552Y436899D01*
X344642Y436913D01*
X344733Y436921D01*
X344762Y436933D01*
X344794Y436938D01*
X344875Y436981D01*
X344959Y437017D01*
X344991Y437043D01*
X345012Y437054D01*
X345034Y437077D01*
X345090Y437122D01*
X350963Y442995D01*
X360237Y442995D01*
X366795Y436437D01*
X366795Y427163D01*
X360237Y420605D01*
X350963Y420605D01*
X345090Y426478D01*
X345016Y426531D01*
X344947Y426591D01*
X344916Y426603D01*
X344890Y426622D01*
X344803Y426649D01*
X344718Y426683D01*
X344677Y426687D01*
X344655Y426694D01*
X344623Y426693D01*
X344552Y426701D01*
X307227Y426701D01*
X307137Y426687D01*
X307046Y426679D01*
X307017Y426667D01*
X306985Y426662D01*
X306904Y426619D01*
X306820Y426583D01*
X306788Y426557D01*
X306767Y426546D01*
X306745Y426523D01*
X306689Y426478D01*
X263206Y382996D01*
X263149Y382917D01*
X263087Y382841D01*
X263078Y382817D01*
X263063Y382796D01*
X263034Y382703D01*
X262999Y382612D01*
X262998Y382586D01*
X262990Y382561D01*
X262993Y382463D01*
X262989Y382366D01*
X262996Y382341D01*
X262997Y382315D01*
X263030Y382223D01*
X263057Y382130D01*
X263072Y382108D01*
X263081Y382084D01*
X263142Y382008D01*
X263198Y381928D01*
X263218Y381912D01*
X263235Y381892D01*
X263317Y381839D01*
X263395Y381781D01*
X263420Y381773D01*
X263442Y381759D01*
X263536Y381735D01*
X263629Y381705D01*
X263655Y381705D01*
X263680Y381699D01*
X263777Y381706D01*
X263875Y381707D01*
X263906Y381716D01*
X263925Y381718D01*
X263956Y381731D01*
X264036Y381754D01*
X265192Y382233D01*
X268208Y382233D01*
X270995Y381078D01*
X273128Y378945D01*
X274283Y376158D01*
X274283Y373142D01*
X273128Y370355D01*
X272022Y369248D01*
X271969Y369174D01*
X271909Y369105D01*
X271897Y369075D01*
X271878Y369048D01*
X271851Y368961D01*
X271817Y368877D01*
X271813Y368836D01*
X271806Y368813D01*
X271807Y368781D01*
X271799Y368710D01*
X271799Y345327D01*
X271813Y345237D01*
X271821Y345146D01*
X271833Y345117D01*
X271838Y345085D01*
X271881Y345004D01*
X271917Y344920D01*
X271943Y344888D01*
X271954Y344867D01*
X271977Y344845D01*
X272022Y344789D01*
X376539Y240272D01*
X376613Y240219D01*
X376682Y240159D01*
X376713Y240147D01*
X376739Y240128D01*
X376826Y240101D01*
X376911Y240067D01*
X376952Y240063D01*
X376974Y240056D01*
X377006Y240057D01*
X377077Y240049D01*
X397710Y240049D01*
X397790Y240062D01*
X397872Y240066D01*
X397911Y240082D01*
X397953Y240088D01*
X397980Y240103D01*
X400105Y240049D01*
X400113Y240050D01*
X400125Y240049D01*
X401469Y240049D01*
X401534Y240059D01*
X401600Y240060D01*
X401680Y240083D01*
X401712Y240088D01*
X401729Y240098D01*
X401761Y240107D01*
X403233Y240717D01*
X403294Y240755D01*
X403360Y240784D01*
X403398Y240819D01*
X403443Y240846D01*
X403488Y240902D01*
X403541Y240950D01*
X403566Y240996D01*
X403599Y241036D01*
X403625Y241103D01*
X403660Y241166D01*
X403669Y241217D01*
X403688Y241265D01*
X403691Y241337D01*
X403703Y241408D01*
X403696Y241459D01*
X403698Y241511D01*
X403678Y241580D01*
X403668Y241651D01*
X403644Y241697D01*
X403629Y241747D01*
X403589Y241806D01*
X403556Y241870D01*
X403519Y241907D01*
X403489Y241949D01*
X403432Y241992D01*
X403380Y242042D01*
X403318Y242077D01*
X403292Y242096D01*
X403270Y242103D01*
X403233Y242123D01*
X399098Y243836D01*
X395686Y247248D01*
X393839Y251707D01*
X393839Y256533D01*
X395686Y260992D01*
X399098Y264404D01*
X403233Y266117D01*
X403294Y266155D01*
X403360Y266184D01*
X403398Y266219D01*
X403443Y266246D01*
X403488Y266302D01*
X403541Y266350D01*
X403566Y266396D01*
X403599Y266436D01*
X403625Y266503D01*
X403660Y266566D01*
X403669Y266617D01*
X403688Y266665D01*
X403691Y266737D01*
X403703Y266808D01*
X403696Y266859D01*
X403698Y266911D01*
X403678Y266980D01*
X403668Y267051D01*
X403644Y267097D01*
X403629Y267147D01*
X403589Y267206D01*
X403556Y267270D01*
X403519Y267307D01*
X403489Y267349D01*
X403432Y267392D01*
X403380Y267442D01*
X403318Y267477D01*
X403292Y267496D01*
X403270Y267503D01*
X403233Y267523D01*
X399098Y269236D01*
X395686Y272648D01*
X393839Y277107D01*
X393839Y281933D01*
X395686Y286392D01*
X399098Y289804D01*
X403233Y291517D01*
X403294Y291555D01*
X403360Y291584D01*
X403398Y291619D01*
X403443Y291646D01*
X403488Y291702D01*
X403541Y291750D01*
X403566Y291796D01*
X403599Y291836D01*
X403625Y291903D01*
X403660Y291966D01*
X403669Y292017D01*
X403688Y292065D01*
X403691Y292137D01*
X403703Y292208D01*
X403696Y292259D01*
X403698Y292311D01*
X403678Y292380D01*
X403668Y292451D01*
X403644Y292497D01*
X403629Y292547D01*
X403589Y292606D01*
X403556Y292670D01*
X403519Y292707D01*
X403489Y292749D01*
X403432Y292792D01*
X403380Y292842D01*
X403318Y292877D01*
X403292Y292896D01*
X403270Y292903D01*
X403233Y292923D01*
X399098Y294636D01*
X395686Y298048D01*
X393839Y302507D01*
X393839Y307333D01*
X395686Y311792D01*
X399098Y315204D01*
X403233Y316917D01*
X403294Y316955D01*
X403360Y316984D01*
X403398Y317019D01*
X403443Y317046D01*
X403488Y317102D01*
X403541Y317150D01*
X403566Y317196D01*
X403599Y317236D01*
X403625Y317303D01*
X403660Y317366D01*
X403669Y317417D01*
X403688Y317465D01*
X403691Y317537D01*
X403703Y317608D01*
X403696Y317659D01*
X403698Y317711D01*
X403678Y317780D01*
X403668Y317851D01*
X403644Y317897D01*
X403629Y317947D01*
X403589Y318006D01*
X403556Y318070D01*
X403519Y318107D01*
X403489Y318149D01*
X403432Y318192D01*
X403380Y318242D01*
X403318Y318277D01*
X403292Y318296D01*
X403270Y318303D01*
X403233Y318323D01*
X399098Y320036D01*
X395686Y323448D01*
X393839Y327907D01*
X393839Y332733D01*
X395686Y337192D01*
X399098Y340604D01*
X403233Y342317D01*
X403294Y342355D01*
X403360Y342384D01*
X403398Y342419D01*
X403443Y342446D01*
X403488Y342502D01*
X403541Y342550D01*
X403566Y342596D01*
X403599Y342636D01*
X403625Y342703D01*
X403660Y342766D01*
X403669Y342817D01*
X403688Y342865D01*
X403691Y342937D01*
X403703Y343008D01*
X403696Y343059D01*
X403698Y343111D01*
X403678Y343180D01*
X403668Y343251D01*
X403644Y343297D01*
X403629Y343347D01*
X403589Y343406D01*
X403556Y343470D01*
X403519Y343507D01*
X403489Y343549D01*
X403432Y343592D01*
X403380Y343642D01*
X403318Y343677D01*
X403292Y343696D01*
X403270Y343703D01*
X403233Y343723D01*
X399098Y345436D01*
X395686Y348848D01*
X393839Y353307D01*
X393839Y358133D01*
X395686Y362592D01*
X399098Y366004D01*
X403233Y367717D01*
X403294Y367755D01*
X403360Y367784D01*
X403398Y367819D01*
X403443Y367846D01*
X403488Y367902D01*
X403541Y367950D01*
X403566Y367996D01*
X403599Y368036D01*
X403625Y368103D01*
X403660Y368166D01*
X403669Y368217D01*
X403688Y368265D01*
X403691Y368337D01*
X403703Y368408D01*
X403696Y368459D01*
X403698Y368511D01*
X403678Y368580D01*
X403668Y368651D01*
X403644Y368697D01*
X403629Y368747D01*
X403589Y368806D01*
X403556Y368870D01*
X403519Y368907D01*
X403489Y368949D01*
X403432Y368992D01*
X403380Y369042D01*
X403318Y369077D01*
X403292Y369096D01*
X403270Y369103D01*
X403233Y369123D01*
X399098Y370836D01*
X395686Y374248D01*
X393839Y378707D01*
X393839Y383533D01*
X395686Y387992D01*
X399098Y391404D01*
X403233Y393117D01*
X403294Y393154D01*
X403360Y393184D01*
X403398Y393219D01*
X403443Y393246D01*
X403488Y393301D01*
X403541Y393350D01*
X403566Y393396D01*
X403599Y393436D01*
X403625Y393503D01*
X403660Y393566D01*
X403669Y393617D01*
X403688Y393665D01*
X403691Y393737D01*
X403703Y393808D01*
X403696Y393859D01*
X403698Y393911D01*
X403678Y393980D01*
X403668Y394051D01*
X403644Y394097D01*
X403629Y394147D01*
X403589Y394206D01*
X403556Y394270D01*
X403519Y394307D01*
X403489Y394349D01*
X403432Y394392D01*
X403380Y394442D01*
X403318Y394477D01*
X403292Y394496D01*
X403270Y394503D01*
X403233Y394523D01*
X399098Y396236D01*
X395686Y399648D01*
X393839Y404107D01*
X393839Y408933D01*
X395686Y413392D01*
X399098Y416804D01*
X403233Y418517D01*
X403294Y418555D01*
X403360Y418584D01*
X403398Y418619D01*
X403443Y418646D01*
X403488Y418702D01*
X403541Y418750D01*
X403566Y418796D01*
X403599Y418836D01*
X403625Y418903D01*
X403660Y418966D01*
X403669Y419017D01*
X403688Y419065D01*
X403691Y419137D01*
X403703Y419208D01*
X403696Y419259D01*
X403698Y419311D01*
X403678Y419380D01*
X403668Y419451D01*
X403644Y419497D01*
X403629Y419547D01*
X403589Y419606D01*
X403556Y419670D01*
X403519Y419707D01*
X403489Y419749D01*
X403432Y419792D01*
X403380Y419842D01*
X403318Y419877D01*
X403292Y419896D01*
X403270Y419903D01*
X403233Y419923D01*
X399098Y421636D01*
X395686Y425048D01*
X393839Y429507D01*
X393839Y434333D01*
X395686Y438792D01*
X399098Y442204D01*
X403233Y443917D01*
X403294Y443955D01*
X403360Y443984D01*
X403398Y444019D01*
X403443Y444046D01*
X403488Y444102D01*
X403541Y444150D01*
X403566Y444196D01*
X403599Y444236D01*
X403625Y444303D01*
X403660Y444366D01*
X403669Y444417D01*
X403688Y444465D01*
X403691Y444537D01*
X403703Y444608D01*
X403696Y444659D01*
X403698Y444711D01*
X403678Y444780D01*
X403668Y444851D01*
X403644Y444897D01*
X403629Y444947D01*
X403589Y445006D01*
X403556Y445070D01*
X403519Y445107D01*
X403489Y445149D01*
X403432Y445192D01*
X403380Y445242D01*
X403318Y445277D01*
X403292Y445296D01*
X403270Y445303D01*
X403233Y445323D01*
X399098Y447036D01*
X395686Y450448D01*
X393839Y454907D01*
X393839Y459733D01*
X395686Y464192D01*
X399098Y467604D01*
X402710Y469100D01*
X402796Y469153D01*
X402885Y469202D01*
X402900Y469218D01*
X402919Y469230D01*
X402984Y469307D01*
X403053Y469382D01*
X403062Y469402D01*
X403076Y469419D01*
X403112Y469513D01*
X403154Y469606D01*
X403156Y469628D01*
X403164Y469649D01*
X403168Y469750D01*
X403179Y469851D01*
X403174Y469872D01*
X403175Y469894D01*
X403146Y469991D01*
X403124Y470090D01*
X403112Y470109D01*
X403106Y470131D01*
X403048Y470214D01*
X402995Y470300D01*
X402978Y470314D01*
X402966Y470333D01*
X402885Y470393D01*
X402807Y470458D01*
X402782Y470469D01*
X402768Y470479D01*
X402737Y470490D01*
X402654Y470527D01*
X401125Y471024D01*
X399355Y471926D01*
X397748Y473093D01*
X396343Y474498D01*
X395176Y476105D01*
X394274Y477875D01*
X393660Y479765D01*
X393433Y481197D01*
X405208Y481197D01*
X405228Y481200D01*
X405247Y481198D01*
X405349Y481220D01*
X405451Y481237D01*
X405468Y481246D01*
X405488Y481250D01*
X405577Y481303D01*
X405668Y481352D01*
X405682Y481366D01*
X405699Y481376D01*
X405766Y481455D01*
X405837Y481530D01*
X405846Y481548D01*
X405859Y481563D01*
X405897Y481659D01*
X405941Y481753D01*
X405943Y481773D01*
X405951Y481791D01*
X405969Y481958D01*
X405969Y483482D01*
X405966Y483502D01*
X405968Y483521D01*
X405946Y483623D01*
X405929Y483725D01*
X405920Y483742D01*
X405916Y483762D01*
X405863Y483851D01*
X405814Y483942D01*
X405800Y483956D01*
X405790Y483973D01*
X405711Y484040D01*
X405636Y484111D01*
X405618Y484120D01*
X405603Y484133D01*
X405507Y484172D01*
X405413Y484215D01*
X405393Y484217D01*
X405375Y484225D01*
X405208Y484243D01*
X393433Y484243D01*
X393660Y485675D01*
X394274Y487565D01*
X395176Y489335D01*
X396343Y490942D01*
X397748Y492347D01*
X399355Y493514D01*
X401125Y494416D01*
X402654Y494913D01*
X402744Y494959D01*
X402837Y495000D01*
X402853Y495015D01*
X402873Y495026D01*
X402943Y495098D01*
X403018Y495167D01*
X403028Y495186D01*
X403044Y495202D01*
X403087Y495293D01*
X403136Y495382D01*
X403140Y495404D01*
X403150Y495424D01*
X403162Y495525D01*
X403180Y495624D01*
X403177Y495646D01*
X403179Y495668D01*
X403159Y495767D01*
X403144Y495868D01*
X403134Y495888D01*
X403130Y495909D01*
X403079Y495997D01*
X403033Y496087D01*
X403017Y496103D01*
X403006Y496122D01*
X402930Y496188D01*
X402857Y496259D01*
X402833Y496273D01*
X402820Y496283D01*
X402790Y496296D01*
X402710Y496340D01*
X399098Y497836D01*
X395686Y501248D01*
X393839Y505707D01*
X393839Y510533D01*
X395686Y514992D01*
X399098Y518404D01*
X403233Y520117D01*
X403294Y520155D01*
X403360Y520184D01*
X403398Y520219D01*
X403443Y520246D01*
X403488Y520302D01*
X403541Y520350D01*
X403566Y520396D01*
X403599Y520436D01*
X403625Y520503D01*
X403660Y520566D01*
X403669Y520617D01*
X403688Y520665D01*
X403691Y520737D01*
X403703Y520808D01*
X403696Y520859D01*
X403698Y520911D01*
X403678Y520980D01*
X403668Y521051D01*
X403644Y521097D01*
X403629Y521147D01*
X403589Y521206D01*
X403556Y521270D01*
X403519Y521307D01*
X403489Y521349D01*
X403432Y521392D01*
X403380Y521442D01*
X403318Y521477D01*
X403292Y521496D01*
X403270Y521503D01*
X403233Y521523D01*
X399098Y523236D01*
X395686Y526648D01*
X393839Y531107D01*
X393839Y535933D01*
X395686Y540392D01*
X399098Y543804D01*
X401930Y544977D01*
X401990Y545014D01*
X402056Y545044D01*
X402094Y545079D01*
X402139Y545106D01*
X402184Y545161D01*
X402237Y545210D01*
X402262Y545256D01*
X402295Y545296D01*
X402321Y545363D01*
X402356Y545425D01*
X402365Y545477D01*
X402384Y545525D01*
X402387Y545597D01*
X402399Y545667D01*
X402392Y545719D01*
X402394Y545771D01*
X402374Y545840D01*
X402364Y545911D01*
X402340Y545957D01*
X402325Y546007D01*
X402285Y546066D01*
X402252Y546130D01*
X402215Y546167D01*
X402185Y546209D01*
X402128Y546252D01*
X402076Y546302D01*
X402014Y546337D01*
X401988Y546356D01*
X401966Y546363D01*
X401930Y546383D01*
X398533Y547790D01*
X394840Y551483D01*
X392841Y556309D01*
X392841Y561531D01*
X394840Y566357D01*
X398533Y570050D01*
X400162Y570725D01*
X400245Y570776D01*
X400331Y570822D01*
X400349Y570840D01*
X400371Y570854D01*
X400433Y570930D01*
X400500Y571000D01*
X400511Y571024D01*
X400528Y571044D01*
X400563Y571135D01*
X400604Y571223D01*
X400607Y571249D01*
X400616Y571273D01*
X400620Y571371D01*
X400631Y571467D01*
X400625Y571493D01*
X400627Y571519D01*
X400599Y571613D01*
X400579Y571708D01*
X400565Y571730D01*
X400558Y571755D01*
X400503Y571835D01*
X400453Y571919D01*
X400433Y571936D01*
X400418Y571957D01*
X400340Y572016D01*
X400266Y572079D01*
X400241Y572089D01*
X400220Y572104D01*
X400128Y572134D01*
X400038Y572171D01*
X400005Y572174D01*
X399987Y572180D01*
X399954Y572180D01*
X399871Y572189D01*
X395041Y572189D01*
X393839Y573391D01*
X393839Y595249D01*
X395041Y596451D01*
X416899Y596451D01*
X418101Y595249D01*
X418101Y590419D01*
X418116Y590323D01*
X418126Y590226D01*
X418136Y590202D01*
X418140Y590176D01*
X418186Y590090D01*
X418226Y590001D01*
X418243Y589982D01*
X418256Y589959D01*
X418326Y589892D01*
X418392Y589820D01*
X418415Y589808D01*
X418434Y589790D01*
X418522Y589749D01*
X418608Y589702D01*
X418633Y589697D01*
X418657Y589686D01*
X418754Y589675D01*
X418850Y589658D01*
X418876Y589662D01*
X418901Y589659D01*
X418997Y589680D01*
X419093Y589694D01*
X419116Y589706D01*
X419142Y589711D01*
X419225Y589761D01*
X419312Y589805D01*
X419331Y589824D01*
X419353Y589837D01*
X419416Y589911D01*
X419484Y589981D01*
X419500Y590010D01*
X419513Y590024D01*
X419525Y590055D01*
X419565Y590128D01*
X420240Y591757D01*
X423933Y595450D01*
X428759Y597449D01*
X433981Y597449D01*
X438807Y595450D01*
X442440Y591817D01*
X442498Y591775D01*
X442550Y591726D01*
X442597Y591704D01*
X442639Y591674D01*
X442708Y591652D01*
X442773Y591622D01*
X442825Y591617D01*
X442875Y591601D01*
X442946Y591603D01*
X443017Y591595D01*
X443068Y591606D01*
X443120Y591608D01*
X443188Y591632D01*
X443258Y591647D01*
X443303Y591674D01*
X443351Y591692D01*
X443407Y591737D01*
X443469Y591774D01*
X443503Y591813D01*
X443543Y591846D01*
X443582Y591906D01*
X443629Y591960D01*
X443648Y592009D01*
X443676Y592053D01*
X443694Y592122D01*
X443721Y592189D01*
X443729Y592260D01*
X443737Y592291D01*
X443735Y592314D01*
X443739Y592355D01*
X443739Y608143D01*
X443728Y608214D01*
X443726Y608286D01*
X443708Y608335D01*
X443700Y608386D01*
X443666Y608449D01*
X443641Y608517D01*
X443609Y608558D01*
X443584Y608604D01*
X443533Y608653D01*
X443488Y608709D01*
X443444Y608737D01*
X443406Y608773D01*
X443341Y608803D01*
X443281Y608842D01*
X443230Y608855D01*
X443183Y608877D01*
X443112Y608884D01*
X443042Y608902D01*
X442990Y608898D01*
X442939Y608904D01*
X442868Y608888D01*
X442797Y608883D01*
X442749Y608862D01*
X442698Y608851D01*
X442637Y608815D01*
X442571Y608786D01*
X442515Y608742D01*
X442487Y608725D01*
X442472Y608707D01*
X442440Y608682D01*
X439997Y606238D01*
X430086Y601189D01*
X419100Y599449D01*
X408114Y601189D01*
X398203Y606238D01*
X390338Y614103D01*
X385289Y624014D01*
X383549Y635000D01*
X385289Y645986D01*
X390338Y655897D01*
X395982Y661540D01*
X396024Y661598D01*
X396073Y661650D01*
X396095Y661697D01*
X396125Y661739D01*
X396146Y661808D01*
X396177Y661873D01*
X396182Y661925D01*
X396198Y661975D01*
X396196Y662046D01*
X396204Y662117D01*
X396193Y662168D01*
X396191Y662220D01*
X396167Y662288D01*
X396151Y662358D01*
X396125Y662403D01*
X396107Y662451D01*
X396062Y662507D01*
X396025Y662569D01*
X395986Y662603D01*
X395953Y662643D01*
X395893Y662682D01*
X395838Y662729D01*
X395790Y662748D01*
X395746Y662776D01*
X395677Y662794D01*
X395610Y662821D01*
X395539Y662829D01*
X395508Y662837D01*
X395484Y662835D01*
X395443Y662839D01*
X214157Y662839D01*
X214086Y662828D01*
X214014Y662826D01*
X213965Y662808D01*
X213914Y662800D01*
X213851Y662766D01*
X213783Y662741D01*
X213742Y662709D01*
X213696Y662684D01*
X213647Y662633D01*
X213591Y662588D01*
X213563Y662544D01*
X213527Y662506D01*
X213497Y662441D01*
X213458Y662381D01*
X213445Y662330D01*
X213423Y662283D01*
X213416Y662212D01*
X213398Y662142D01*
X213402Y662090D01*
X213396Y662039D01*
X213412Y661968D01*
X213417Y661897D01*
X213438Y661849D01*
X213449Y661798D01*
X213485Y661737D01*
X213514Y661671D01*
X213558Y661615D01*
X213575Y661587D01*
X213593Y661572D01*
X213618Y661540D01*
X219262Y655897D01*
X224311Y645986D01*
X226051Y635000D01*
X224311Y624014D01*
X219262Y614103D01*
X211397Y606238D01*
X201486Y601189D01*
X190500Y599449D01*
X179514Y601189D01*
X169603Y606238D01*
X163860Y611982D01*
X163802Y612024D01*
X163750Y612073D01*
X163703Y612095D01*
X163661Y612125D01*
X163592Y612146D01*
X163527Y612177D01*
X163475Y612182D01*
X163425Y612198D01*
X163354Y612196D01*
X163283Y612204D01*
X163232Y612193D01*
X163180Y612191D01*
X163112Y612167D01*
X163042Y612151D01*
X162997Y612125D01*
X162949Y612107D01*
X162893Y612062D01*
X162831Y612025D01*
X162797Y611986D01*
X162757Y611953D01*
X162718Y611893D01*
X162671Y611838D01*
X162652Y611790D01*
X162624Y611746D01*
X162606Y611677D01*
X162579Y611610D01*
X162571Y611539D01*
X162563Y611508D01*
X162565Y611484D01*
X162561Y611443D01*
X162561Y74357D01*
X162572Y74286D01*
X162574Y74214D01*
X162592Y74165D01*
X162600Y74114D01*
X162634Y74051D01*
X162659Y73983D01*
X162691Y73943D01*
X162716Y73896D01*
X162768Y73847D01*
X162812Y73791D01*
X162856Y73763D01*
X162894Y73727D01*
X162959Y73697D01*
X163019Y73658D01*
X163070Y73645D01*
X163117Y73623D01*
X163188Y73616D01*
X163258Y73598D01*
X163310Y73602D01*
X163361Y73596D01*
X163432Y73612D01*
X163503Y73617D01*
X163551Y73638D01*
X163602Y73649D01*
X163663Y73685D01*
X163729Y73714D01*
X163785Y73758D01*
X163813Y73775D01*
X163828Y73793D01*
X163860Y73818D01*
X169603Y79562D01*
X179514Y84611D01*
X190500Y86351D01*
X201486Y84611D01*
X211397Y79562D01*
X219262Y71697D01*
X224311Y61786D01*
X226051Y50800D01*
X224311Y39814D01*
X219262Y29903D01*
X211397Y22038D01*
X201486Y16989D01*
X190500Y15249D01*
X179514Y16989D01*
X169603Y22038D01*
X163860Y27782D01*
X163802Y27824D01*
X163750Y27873D01*
X163703Y27895D01*
X163661Y27925D01*
X163592Y27946D01*
X163527Y27977D01*
X163475Y27982D01*
X163425Y27998D01*
X163354Y27996D01*
X163283Y28004D01*
X163232Y27993D01*
X163180Y27991D01*
X163112Y27967D01*
X163042Y27951D01*
X162997Y27925D01*
X162949Y27907D01*
X162893Y27862D01*
X162831Y27825D01*
X162797Y27786D01*
X162757Y27753D01*
X162718Y27693D01*
X162671Y27638D01*
X162652Y27590D01*
X162624Y27546D01*
X162606Y27477D01*
X162579Y27410D01*
X162571Y27339D01*
X162563Y27308D01*
X162565Y27284D01*
X162561Y27243D01*
X162561Y13722D01*
X162564Y13702D01*
X162562Y13683D01*
X162584Y13581D01*
X162600Y13479D01*
X162610Y13462D01*
X162614Y13442D01*
X162667Y13353D01*
X162716Y13262D01*
X162730Y13248D01*
X162740Y13231D01*
X162819Y13164D01*
X162894Y13092D01*
X162912Y13084D01*
X162927Y13071D01*
X163023Y13032D01*
X163117Y12989D01*
X163137Y12987D01*
X163155Y12979D01*
X163322Y12961D01*
X172306Y12961D01*
X181186Y9282D01*
X187982Y2486D01*
X191661Y-6394D01*
X191661Y-16006D01*
X187982Y-24886D01*
X186229Y-26640D01*
X186187Y-26698D01*
X186137Y-26750D01*
X186116Y-26797D01*
X186085Y-26839D01*
X186064Y-26908D01*
X186034Y-26973D01*
X186028Y-27025D01*
X186013Y-27075D01*
X186015Y-27146D01*
X186007Y-27217D01*
X186018Y-27268D01*
X186019Y-27320D01*
X186044Y-27388D01*
X186059Y-27458D01*
X186086Y-27503D01*
X186104Y-27551D01*
X186148Y-27607D01*
X186185Y-27669D01*
X186225Y-27703D01*
X186257Y-27743D01*
X186318Y-27782D01*
X186372Y-27829D01*
X186420Y-27848D01*
X186464Y-27876D01*
X186534Y-27894D01*
X186600Y-27921D01*
X186672Y-27929D01*
X186703Y-27937D01*
X186726Y-27935D01*
X186767Y-27939D01*
X420333Y-27939D01*
X420404Y-27928D01*
G37*
%LPC*%
G36*
X274350Y597407D02*
X274350Y597407D01*
X267207Y604550D01*
X267207Y614650D01*
X274253Y621696D01*
X274279Y621733D01*
X274313Y621764D01*
X274351Y621832D01*
X274396Y621896D01*
X274410Y621939D01*
X274432Y621980D01*
X274446Y622056D01*
X274469Y622131D01*
X274467Y622176D01*
X274476Y622222D01*
X274464Y622299D01*
X274462Y622377D01*
X274446Y622420D01*
X274440Y622465D01*
X274405Y622534D01*
X274378Y622608D01*
X274349Y622643D01*
X274328Y622684D01*
X274273Y622739D01*
X274224Y622800D01*
X274185Y622824D01*
X274153Y622857D01*
X274033Y622922D01*
X274017Y622933D01*
X274012Y622934D01*
X274006Y622937D01*
X271918Y623802D01*
X268202Y627518D01*
X266191Y632373D01*
X266191Y637627D01*
X268202Y642482D01*
X271918Y646198D01*
X276773Y648209D01*
X282027Y648209D01*
X286882Y646198D01*
X290598Y642482D01*
X291652Y639937D01*
X291674Y639901D01*
X291688Y639862D01*
X291739Y639798D01*
X291782Y639728D01*
X291814Y639701D01*
X291840Y639668D01*
X291908Y639623D01*
X291971Y639571D01*
X292010Y639556D01*
X292045Y639533D01*
X292124Y639512D01*
X292201Y639483D01*
X292243Y639481D01*
X292283Y639471D01*
X292365Y639476D01*
X292446Y639473D01*
X292487Y639484D01*
X292529Y639487D01*
X292604Y639518D01*
X292683Y639541D01*
X292717Y639565D01*
X292756Y639581D01*
X292818Y639635D01*
X292885Y639681D01*
X292910Y639715D01*
X292941Y639743D01*
X293026Y639872D01*
X293032Y639879D01*
X293032Y639881D01*
X293034Y639883D01*
X293937Y641657D01*
X295113Y643274D01*
X296526Y644687D01*
X298143Y645863D01*
X299925Y646770D01*
X301826Y647388D01*
X303277Y647618D01*
X303277Y635762D01*
X303280Y635742D01*
X303278Y635723D01*
X303300Y635621D01*
X303317Y635519D01*
X303326Y635502D01*
X303330Y635482D01*
X303383Y635393D01*
X303432Y635302D01*
X303446Y635288D01*
X303456Y635271D01*
X303535Y635204D01*
X303610Y635133D01*
X303628Y635124D01*
X303643Y635111D01*
X303739Y635073D01*
X303833Y635029D01*
X303853Y635027D01*
X303871Y635019D01*
X304038Y635001D01*
X305562Y635001D01*
X305582Y635004D01*
X305601Y635002D01*
X305703Y635024D01*
X305805Y635041D01*
X305822Y635050D01*
X305842Y635054D01*
X305931Y635107D01*
X306022Y635156D01*
X306036Y635170D01*
X306053Y635180D01*
X306120Y635259D01*
X306191Y635334D01*
X306200Y635352D01*
X306213Y635367D01*
X306252Y635463D01*
X306295Y635557D01*
X306297Y635577D01*
X306305Y635595D01*
X306323Y635762D01*
X306323Y647618D01*
X307774Y647388D01*
X309675Y646770D01*
X311457Y645863D01*
X313074Y644687D01*
X314487Y643274D01*
X315663Y641657D01*
X316566Y639883D01*
X316591Y639849D01*
X316608Y639811D01*
X316664Y639751D01*
X316712Y639685D01*
X316746Y639660D01*
X316775Y639630D01*
X316846Y639590D01*
X316913Y639543D01*
X316953Y639531D01*
X316990Y639511D01*
X317071Y639496D01*
X317149Y639473D01*
X317191Y639475D01*
X317232Y639467D01*
X317313Y639479D01*
X317395Y639482D01*
X317434Y639497D01*
X317476Y639503D01*
X317549Y639540D01*
X317625Y639569D01*
X317657Y639596D01*
X317695Y639615D01*
X317752Y639673D01*
X317815Y639725D01*
X317838Y639760D01*
X317867Y639790D01*
X317942Y639926D01*
X317946Y639933D01*
X317947Y639935D01*
X317948Y639937D01*
X319002Y642482D01*
X322718Y646198D01*
X327573Y648209D01*
X332827Y648209D01*
X337682Y646198D01*
X341398Y642482D01*
X343409Y637627D01*
X343409Y632373D01*
X341398Y627518D01*
X337682Y623802D01*
X332827Y621791D01*
X327573Y621791D01*
X322718Y623802D01*
X319002Y627518D01*
X317948Y630063D01*
X317926Y630099D01*
X317912Y630138D01*
X317861Y630202D01*
X317818Y630272D01*
X317786Y630299D01*
X317760Y630332D01*
X317692Y630377D01*
X317629Y630429D01*
X317590Y630444D01*
X317555Y630467D01*
X317476Y630488D01*
X317399Y630517D01*
X317357Y630519D01*
X317317Y630529D01*
X317235Y630524D01*
X317154Y630527D01*
X317113Y630516D01*
X317071Y630513D01*
X316996Y630482D01*
X316917Y630459D01*
X316883Y630435D01*
X316844Y630419D01*
X316782Y630365D01*
X316715Y630319D01*
X316690Y630285D01*
X316659Y630257D01*
X316574Y630128D01*
X316568Y630121D01*
X316568Y630119D01*
X316566Y630117D01*
X315663Y628343D01*
X314487Y626726D01*
X313074Y625313D01*
X311457Y624137D01*
X309675Y623230D01*
X307774Y622612D01*
X306323Y622382D01*
X306323Y634238D01*
X306320Y634258D01*
X306322Y634277D01*
X306300Y634379D01*
X306283Y634481D01*
X306274Y634498D01*
X306270Y634518D01*
X306217Y634607D01*
X306168Y634698D01*
X306154Y634712D01*
X306144Y634729D01*
X306065Y634796D01*
X305990Y634867D01*
X305972Y634876D01*
X305957Y634889D01*
X305861Y634927D01*
X305767Y634971D01*
X305747Y634973D01*
X305729Y634981D01*
X305562Y634999D01*
X304038Y634999D01*
X304018Y634996D01*
X303999Y634998D01*
X303897Y634976D01*
X303795Y634959D01*
X303778Y634950D01*
X303758Y634946D01*
X303669Y634893D01*
X303578Y634844D01*
X303564Y634830D01*
X303547Y634820D01*
X303480Y634741D01*
X303409Y634666D01*
X303400Y634648D01*
X303387Y634633D01*
X303348Y634537D01*
X303305Y634443D01*
X303303Y634423D01*
X303295Y634405D01*
X303277Y634238D01*
X303277Y622382D01*
X301826Y622612D01*
X299925Y623230D01*
X298143Y624137D01*
X296526Y625313D01*
X295113Y626726D01*
X293937Y628343D01*
X293034Y630117D01*
X293009Y630151D01*
X292992Y630189D01*
X292936Y630249D01*
X292888Y630315D01*
X292854Y630340D01*
X292825Y630370D01*
X292754Y630410D01*
X292687Y630457D01*
X292647Y630469D01*
X292610Y630489D01*
X292529Y630504D01*
X292451Y630527D01*
X292409Y630525D01*
X292368Y630533D01*
X292287Y630521D01*
X292205Y630518D01*
X292166Y630503D01*
X292124Y630497D01*
X292051Y630460D01*
X291975Y630431D01*
X291943Y630404D01*
X291905Y630385D01*
X291848Y630327D01*
X291785Y630275D01*
X291762Y630240D01*
X291733Y630210D01*
X291658Y630074D01*
X291654Y630067D01*
X291653Y630065D01*
X291652Y630063D01*
X290598Y627518D01*
X286882Y623802D01*
X284794Y622937D01*
X284755Y622913D01*
X284712Y622897D01*
X284651Y622849D01*
X284585Y622808D01*
X284556Y622772D01*
X284520Y622744D01*
X284478Y622678D01*
X284428Y622618D01*
X284412Y622575D01*
X284387Y622537D01*
X284368Y622461D01*
X284340Y622389D01*
X284338Y622343D01*
X284327Y622298D01*
X284333Y622221D01*
X284330Y622143D01*
X284343Y622099D01*
X284346Y622053D01*
X284377Y621982D01*
X284398Y621907D01*
X284425Y621869D01*
X284443Y621827D01*
X284528Y621720D01*
X284539Y621705D01*
X284543Y621702D01*
X284547Y621696D01*
X291593Y614650D01*
X291593Y604550D01*
X284450Y597407D01*
X274350Y597407D01*
G37*
%LPD*%
%LPC*%
G36*
X300163Y115805D02*
X300163Y115805D01*
X293605Y122363D01*
X293605Y131637D01*
X300163Y138195D01*
X308469Y138195D01*
X308559Y138209D01*
X308650Y138217D01*
X308680Y138229D01*
X308711Y138234D01*
X308792Y138277D01*
X308876Y138313D01*
X308908Y138339D01*
X308929Y138350D01*
X308951Y138373D01*
X309007Y138418D01*
X318528Y147939D01*
X318581Y148013D01*
X318641Y148082D01*
X318653Y148113D01*
X318672Y148139D01*
X318699Y148226D01*
X318733Y148311D01*
X318737Y148352D01*
X318744Y148374D01*
X318743Y148406D01*
X318751Y148477D01*
X318751Y156323D01*
X318737Y156413D01*
X318729Y156504D01*
X318717Y156533D01*
X318712Y156565D01*
X318669Y156646D01*
X318633Y156730D01*
X318607Y156762D01*
X318596Y156783D01*
X318573Y156805D01*
X318528Y156861D01*
X283607Y191782D01*
X283533Y191835D01*
X283464Y191895D01*
X283433Y191907D01*
X283407Y191926D01*
X283320Y191953D01*
X283235Y191987D01*
X283195Y191991D01*
X283172Y191998D01*
X283140Y191997D01*
X283069Y192005D01*
X274763Y192005D01*
X268205Y198563D01*
X268205Y207837D01*
X274763Y214395D01*
X284037Y214395D01*
X290595Y207837D01*
X290595Y199531D01*
X290609Y199441D01*
X290617Y199350D01*
X290629Y199320D01*
X290634Y199289D01*
X290677Y199208D01*
X290713Y199124D01*
X290739Y199092D01*
X290750Y199071D01*
X290773Y199049D01*
X290818Y198993D01*
X325739Y164072D01*
X328949Y160862D01*
X328949Y143938D01*
X316218Y131207D01*
X316165Y131133D01*
X316105Y131064D01*
X316093Y131033D01*
X316074Y131007D01*
X316047Y130920D01*
X316013Y130835D01*
X316009Y130795D01*
X316002Y130772D01*
X316003Y130740D01*
X315995Y130669D01*
X315995Y122363D01*
X309437Y115805D01*
X300163Y115805D01*
G37*
%LPD*%
%LPC*%
G36*
X276267Y441451D02*
X276267Y441451D01*
X270479Y443849D01*
X266049Y448279D01*
X263651Y454067D01*
X263651Y460333D01*
X266049Y466121D01*
X270479Y470551D01*
X276267Y472949D01*
X282533Y472949D01*
X288321Y470551D01*
X292751Y466121D01*
X295149Y460333D01*
X295149Y454067D01*
X292751Y448279D01*
X288321Y443849D01*
X282533Y441451D01*
X276267Y441451D01*
G37*
%LPD*%
%LPC*%
G36*
X350550Y597407D02*
X350550Y597407D01*
X343407Y604550D01*
X343407Y614650D01*
X350550Y621793D01*
X360650Y621793D01*
X367793Y614650D01*
X367793Y604550D01*
X360650Y597407D01*
X350550Y597407D01*
G37*
%LPD*%
%LPC*%
G36*
X350550Y546607D02*
X350550Y546607D01*
X343407Y553750D01*
X343407Y563850D01*
X350550Y570993D01*
X360650Y570993D01*
X367793Y563850D01*
X367793Y553750D01*
X360650Y546607D01*
X350550Y546607D01*
G37*
%LPD*%
%LPC*%
G36*
X376363Y319005D02*
X376363Y319005D01*
X369805Y325563D01*
X369805Y334837D01*
X376363Y341395D01*
X385637Y341395D01*
X392195Y334837D01*
X392195Y325563D01*
X385637Y319005D01*
X376363Y319005D01*
G37*
%LPD*%
%LPC*%
G36*
X325563Y242805D02*
X325563Y242805D01*
X319005Y249363D01*
X319005Y258637D01*
X325563Y265195D01*
X334837Y265195D01*
X341395Y258637D01*
X341395Y249363D01*
X334837Y242805D01*
X325563Y242805D01*
G37*
%LPD*%
%LPC*%
G36*
X249363Y242805D02*
X249363Y242805D01*
X242805Y249363D01*
X242805Y258637D01*
X249363Y265195D01*
X258637Y265195D01*
X265195Y258637D01*
X265195Y249363D01*
X258637Y242805D01*
X249363Y242805D01*
G37*
%LPD*%
%LPC*%
G36*
X376363Y242805D02*
X376363Y242805D01*
X369805Y249363D01*
X369805Y258637D01*
X376363Y265195D01*
X385637Y265195D01*
X392195Y258637D01*
X392195Y249363D01*
X385637Y242805D01*
X376363Y242805D01*
G37*
%LPD*%
%LPC*%
G36*
X249363Y217405D02*
X249363Y217405D01*
X242805Y223963D01*
X242805Y233237D01*
X249363Y239795D01*
X258637Y239795D01*
X265195Y233237D01*
X265195Y223963D01*
X258637Y217405D01*
X249363Y217405D01*
G37*
%LPD*%
%LPC*%
G36*
X350963Y217405D02*
X350963Y217405D01*
X344405Y223963D01*
X344405Y233237D01*
X350963Y239795D01*
X360237Y239795D01*
X366795Y233237D01*
X366795Y223963D01*
X360237Y217405D01*
X350963Y217405D01*
G37*
%LPD*%
%LPC*%
G36*
X325563Y344405D02*
X325563Y344405D01*
X319005Y350963D01*
X319005Y360237D01*
X325563Y366795D01*
X334837Y366795D01*
X341395Y360237D01*
X341395Y350963D01*
X334837Y344405D01*
X325563Y344405D01*
G37*
%LPD*%
%LPC*%
G36*
X350963Y369805D02*
X350963Y369805D01*
X344405Y376363D01*
X344405Y385637D01*
X350963Y392195D01*
X360237Y392195D01*
X366795Y385637D01*
X366795Y376363D01*
X360237Y369805D01*
X350963Y369805D01*
G37*
%LPD*%
%LPC*%
G36*
X350963Y496805D02*
X350963Y496805D01*
X344405Y503363D01*
X344405Y512637D01*
X350963Y519195D01*
X360237Y519195D01*
X366795Y512637D01*
X366795Y503363D01*
X360237Y496805D01*
X350963Y496805D01*
G37*
%LPD*%
%LPC*%
G36*
X302573Y141205D02*
X302573Y141205D01*
X298459Y142910D01*
X295310Y146059D01*
X293605Y150173D01*
X293605Y154627D01*
X295310Y158741D01*
X298459Y161890D01*
X302573Y163595D01*
X307027Y163595D01*
X311141Y161890D01*
X314290Y158741D01*
X315995Y154627D01*
X315995Y150173D01*
X314290Y146059D01*
X311141Y142910D01*
X307027Y141205D01*
X302573Y141205D01*
G37*
%LPD*%
%LPC*%
G36*
X331723Y38179D02*
X331723Y38179D01*
X331723Y49277D01*
X354077Y49277D01*
X354077Y38179D01*
X350372Y38179D01*
X343438Y45113D01*
X343422Y45125D01*
X343410Y45141D01*
X343322Y45197D01*
X343239Y45257D01*
X343220Y45263D01*
X343203Y45274D01*
X343102Y45299D01*
X343003Y45329D01*
X342984Y45329D01*
X342964Y45334D01*
X342861Y45326D01*
X342758Y45323D01*
X342739Y45316D01*
X342719Y45314D01*
X342624Y45274D01*
X342527Y45238D01*
X342511Y45226D01*
X342493Y45218D01*
X342362Y45113D01*
X335428Y38179D01*
X331723Y38179D01*
G37*
%LPD*%
G36*
X418709Y332594D02*
X418709Y332594D01*
X418761Y332592D01*
X418830Y332612D01*
X418901Y332622D01*
X418947Y332646D01*
X418997Y332661D01*
X419056Y332701D01*
X419120Y332734D01*
X419157Y332771D01*
X419199Y332801D01*
X419242Y332858D01*
X419292Y332910D01*
X419327Y332972D01*
X419346Y332998D01*
X419353Y333020D01*
X419373Y333057D01*
X421086Y337192D01*
X424498Y340604D01*
X428633Y342317D01*
X428694Y342355D01*
X428760Y342384D01*
X428798Y342419D01*
X428843Y342446D01*
X428888Y342502D01*
X428941Y342550D01*
X428966Y342596D01*
X428999Y342636D01*
X429025Y342703D01*
X429060Y342766D01*
X429069Y342817D01*
X429088Y342865D01*
X429091Y342937D01*
X429103Y343008D01*
X429096Y343059D01*
X429098Y343111D01*
X429078Y343180D01*
X429068Y343251D01*
X429044Y343297D01*
X429029Y343347D01*
X428989Y343406D01*
X428956Y343470D01*
X428919Y343507D01*
X428889Y343549D01*
X428832Y343592D01*
X428780Y343642D01*
X428718Y343677D01*
X428692Y343696D01*
X428670Y343703D01*
X428633Y343723D01*
X424498Y345436D01*
X421086Y348848D01*
X419373Y352983D01*
X419335Y353044D01*
X419306Y353110D01*
X419272Y353147D01*
X419254Y353177D01*
X419252Y353178D01*
X419244Y353193D01*
X419188Y353238D01*
X419140Y353291D01*
X419094Y353316D01*
X419054Y353349D01*
X418987Y353375D01*
X418924Y353410D01*
X418873Y353419D01*
X418825Y353438D01*
X418753Y353441D01*
X418682Y353453D01*
X418631Y353446D01*
X418579Y353448D01*
X418510Y353428D01*
X418439Y353418D01*
X418393Y353394D01*
X418343Y353379D01*
X418284Y353339D01*
X418220Y353306D01*
X418183Y353269D01*
X418141Y353239D01*
X418098Y353182D01*
X418048Y353130D01*
X418039Y353115D01*
X418038Y353114D01*
X418035Y353107D01*
X418013Y353068D01*
X417994Y353042D01*
X417987Y353020D01*
X417967Y352983D01*
X416254Y348848D01*
X412842Y345436D01*
X408707Y343723D01*
X408645Y343685D01*
X408580Y343656D01*
X408542Y343621D01*
X408497Y343594D01*
X408452Y343538D01*
X408399Y343490D01*
X408374Y343444D01*
X408341Y343404D01*
X408315Y343337D01*
X408280Y343274D01*
X408271Y343223D01*
X408252Y343175D01*
X408249Y343103D01*
X408237Y343032D01*
X408244Y342981D01*
X408242Y342929D01*
X408262Y342860D01*
X408272Y342789D01*
X408296Y342743D01*
X408311Y342693D01*
X408351Y342634D01*
X408384Y342570D01*
X408421Y342533D01*
X408451Y342491D01*
X408508Y342448D01*
X408560Y342398D01*
X408622Y342363D01*
X408648Y342344D01*
X408670Y342337D01*
X408707Y342317D01*
X412842Y340604D01*
X416254Y337192D01*
X417967Y333057D01*
X418005Y332995D01*
X418034Y332930D01*
X418069Y332892D01*
X418096Y332847D01*
X418152Y332802D01*
X418200Y332749D01*
X418246Y332724D01*
X418286Y332691D01*
X418353Y332665D01*
X418416Y332630D01*
X418467Y332621D01*
X418515Y332602D01*
X418587Y332599D01*
X418658Y332587D01*
X418709Y332594D01*
G37*
G36*
X418709Y307194D02*
X418709Y307194D01*
X418761Y307192D01*
X418830Y307212D01*
X418901Y307222D01*
X418947Y307246D01*
X418997Y307261D01*
X419056Y307301D01*
X419120Y307334D01*
X419157Y307371D01*
X419199Y307401D01*
X419242Y307458D01*
X419292Y307510D01*
X419327Y307572D01*
X419346Y307598D01*
X419353Y307620D01*
X419373Y307657D01*
X421086Y311792D01*
X424498Y315204D01*
X428633Y316917D01*
X428694Y316955D01*
X428760Y316984D01*
X428798Y317019D01*
X428843Y317046D01*
X428888Y317102D01*
X428941Y317150D01*
X428966Y317196D01*
X428999Y317236D01*
X429025Y317303D01*
X429060Y317366D01*
X429069Y317417D01*
X429088Y317465D01*
X429091Y317537D01*
X429103Y317608D01*
X429096Y317659D01*
X429098Y317711D01*
X429078Y317780D01*
X429068Y317851D01*
X429044Y317897D01*
X429029Y317947D01*
X428989Y318006D01*
X428956Y318070D01*
X428919Y318107D01*
X428889Y318149D01*
X428832Y318192D01*
X428780Y318242D01*
X428718Y318277D01*
X428692Y318296D01*
X428670Y318303D01*
X428633Y318323D01*
X424498Y320036D01*
X421086Y323448D01*
X419373Y327583D01*
X419335Y327644D01*
X419306Y327710D01*
X419271Y327748D01*
X419244Y327793D01*
X419188Y327838D01*
X419140Y327891D01*
X419094Y327916D01*
X419054Y327949D01*
X418987Y327975D01*
X418924Y328010D01*
X418873Y328019D01*
X418825Y328038D01*
X418753Y328041D01*
X418682Y328053D01*
X418631Y328046D01*
X418579Y328048D01*
X418510Y328028D01*
X418439Y328018D01*
X418393Y327994D01*
X418343Y327979D01*
X418284Y327939D01*
X418220Y327906D01*
X418183Y327869D01*
X418141Y327839D01*
X418098Y327782D01*
X418048Y327730D01*
X418013Y327668D01*
X417994Y327642D01*
X417987Y327620D01*
X417967Y327583D01*
X416254Y323448D01*
X412842Y320036D01*
X408707Y318323D01*
X408645Y318285D01*
X408580Y318256D01*
X408542Y318221D01*
X408497Y318194D01*
X408452Y318138D01*
X408399Y318090D01*
X408374Y318044D01*
X408341Y318004D01*
X408315Y317937D01*
X408280Y317874D01*
X408271Y317823D01*
X408252Y317775D01*
X408249Y317703D01*
X408237Y317632D01*
X408244Y317581D01*
X408242Y317529D01*
X408262Y317460D01*
X408272Y317389D01*
X408296Y317343D01*
X408311Y317293D01*
X408351Y317234D01*
X408384Y317170D01*
X408421Y317133D01*
X408451Y317091D01*
X408508Y317048D01*
X408560Y316998D01*
X408622Y316963D01*
X408648Y316944D01*
X408670Y316937D01*
X408707Y316917D01*
X412842Y315204D01*
X416254Y311792D01*
X417967Y307657D01*
X418005Y307595D01*
X418034Y307530D01*
X418069Y307492D01*
X418096Y307447D01*
X418152Y307402D01*
X418200Y307349D01*
X418246Y307324D01*
X418286Y307291D01*
X418353Y307265D01*
X418416Y307230D01*
X418467Y307221D01*
X418515Y307202D01*
X418587Y307199D01*
X418658Y307187D01*
X418709Y307194D01*
G37*
G36*
X418709Y357994D02*
X418709Y357994D01*
X418761Y357992D01*
X418830Y358012D01*
X418901Y358022D01*
X418947Y358046D01*
X418997Y358061D01*
X419056Y358101D01*
X419120Y358134D01*
X419157Y358171D01*
X419199Y358201D01*
X419242Y358258D01*
X419292Y358310D01*
X419327Y358372D01*
X419346Y358398D01*
X419353Y358420D01*
X419373Y358457D01*
X421086Y362592D01*
X424498Y366004D01*
X428633Y367717D01*
X428694Y367755D01*
X428760Y367784D01*
X428798Y367819D01*
X428843Y367846D01*
X428888Y367902D01*
X428941Y367950D01*
X428966Y367996D01*
X428999Y368036D01*
X429025Y368103D01*
X429060Y368166D01*
X429069Y368217D01*
X429088Y368265D01*
X429091Y368337D01*
X429103Y368408D01*
X429096Y368459D01*
X429098Y368511D01*
X429078Y368580D01*
X429068Y368651D01*
X429044Y368697D01*
X429029Y368747D01*
X428989Y368806D01*
X428956Y368870D01*
X428919Y368907D01*
X428889Y368949D01*
X428832Y368992D01*
X428780Y369042D01*
X428718Y369077D01*
X428692Y369096D01*
X428670Y369103D01*
X428633Y369123D01*
X424498Y370836D01*
X421086Y374248D01*
X419373Y378383D01*
X419335Y378444D01*
X419306Y378510D01*
X419271Y378548D01*
X419244Y378593D01*
X419188Y378638D01*
X419140Y378691D01*
X419094Y378716D01*
X419054Y378749D01*
X418987Y378775D01*
X418924Y378810D01*
X418873Y378819D01*
X418825Y378838D01*
X418753Y378841D01*
X418682Y378853D01*
X418631Y378846D01*
X418579Y378848D01*
X418510Y378828D01*
X418439Y378818D01*
X418393Y378794D01*
X418343Y378779D01*
X418284Y378739D01*
X418220Y378706D01*
X418183Y378669D01*
X418141Y378639D01*
X418098Y378582D01*
X418048Y378530D01*
X418013Y378468D01*
X417994Y378442D01*
X417987Y378420D01*
X417967Y378383D01*
X416254Y374248D01*
X412842Y370836D01*
X408707Y369123D01*
X408645Y369085D01*
X408580Y369056D01*
X408542Y369021D01*
X408497Y368994D01*
X408452Y368938D01*
X408399Y368890D01*
X408374Y368844D01*
X408341Y368804D01*
X408315Y368737D01*
X408280Y368674D01*
X408271Y368623D01*
X408252Y368575D01*
X408249Y368503D01*
X408237Y368432D01*
X408244Y368381D01*
X408242Y368329D01*
X408262Y368260D01*
X408272Y368189D01*
X408296Y368143D01*
X408311Y368093D01*
X408351Y368034D01*
X408384Y367970D01*
X408421Y367933D01*
X408451Y367891D01*
X408508Y367848D01*
X408560Y367798D01*
X408622Y367763D01*
X408648Y367744D01*
X408670Y367737D01*
X408707Y367717D01*
X412842Y366004D01*
X416254Y362592D01*
X417967Y358457D01*
X418005Y358395D01*
X418034Y358330D01*
X418069Y358292D01*
X418096Y358247D01*
X418152Y358202D01*
X418200Y358149D01*
X418246Y358124D01*
X418286Y358091D01*
X418353Y358065D01*
X418416Y358030D01*
X418467Y358021D01*
X418515Y358002D01*
X418587Y357999D01*
X418658Y357987D01*
X418709Y357994D01*
G37*
G36*
X418709Y281794D02*
X418709Y281794D01*
X418761Y281792D01*
X418830Y281812D01*
X418901Y281822D01*
X418947Y281846D01*
X418997Y281861D01*
X419056Y281901D01*
X419120Y281934D01*
X419157Y281971D01*
X419199Y282001D01*
X419242Y282058D01*
X419292Y282110D01*
X419327Y282172D01*
X419346Y282198D01*
X419353Y282220D01*
X419373Y282257D01*
X421086Y286392D01*
X424498Y289804D01*
X428633Y291517D01*
X428694Y291555D01*
X428760Y291584D01*
X428798Y291619D01*
X428843Y291646D01*
X428888Y291702D01*
X428941Y291750D01*
X428966Y291796D01*
X428999Y291836D01*
X429025Y291903D01*
X429060Y291966D01*
X429069Y292017D01*
X429088Y292065D01*
X429091Y292137D01*
X429103Y292208D01*
X429096Y292259D01*
X429098Y292311D01*
X429078Y292380D01*
X429068Y292451D01*
X429044Y292497D01*
X429029Y292547D01*
X428989Y292606D01*
X428956Y292670D01*
X428919Y292707D01*
X428889Y292749D01*
X428832Y292792D01*
X428780Y292842D01*
X428718Y292877D01*
X428692Y292896D01*
X428670Y292903D01*
X428633Y292923D01*
X424498Y294636D01*
X421086Y298048D01*
X419373Y302183D01*
X419335Y302244D01*
X419306Y302310D01*
X419271Y302348D01*
X419244Y302393D01*
X419188Y302438D01*
X419140Y302491D01*
X419094Y302516D01*
X419054Y302549D01*
X418987Y302575D01*
X418924Y302610D01*
X418873Y302619D01*
X418825Y302638D01*
X418753Y302641D01*
X418682Y302653D01*
X418631Y302646D01*
X418579Y302648D01*
X418510Y302628D01*
X418439Y302618D01*
X418393Y302594D01*
X418343Y302579D01*
X418284Y302539D01*
X418220Y302506D01*
X418183Y302469D01*
X418141Y302439D01*
X418098Y302382D01*
X418048Y302330D01*
X418013Y302268D01*
X417994Y302242D01*
X417987Y302220D01*
X417967Y302183D01*
X416254Y298048D01*
X412842Y294636D01*
X408707Y292923D01*
X408645Y292885D01*
X408580Y292856D01*
X408542Y292821D01*
X408497Y292794D01*
X408452Y292738D01*
X408399Y292690D01*
X408374Y292644D01*
X408341Y292604D01*
X408315Y292537D01*
X408280Y292474D01*
X408271Y292423D01*
X408252Y292375D01*
X408249Y292303D01*
X408237Y292232D01*
X408244Y292181D01*
X408242Y292129D01*
X408262Y292060D01*
X408272Y291989D01*
X408296Y291943D01*
X408311Y291893D01*
X408351Y291834D01*
X408384Y291770D01*
X408421Y291733D01*
X408451Y291691D01*
X408508Y291648D01*
X408560Y291598D01*
X408622Y291563D01*
X408648Y291544D01*
X408670Y291537D01*
X408707Y291517D01*
X412842Y289804D01*
X416254Y286392D01*
X417967Y282257D01*
X418005Y282195D01*
X418034Y282130D01*
X418069Y282092D01*
X418096Y282047D01*
X418152Y282002D01*
X418200Y281949D01*
X418246Y281924D01*
X418286Y281891D01*
X418353Y281865D01*
X418416Y281830D01*
X418467Y281821D01*
X418515Y281802D01*
X418587Y281799D01*
X418658Y281787D01*
X418709Y281794D01*
G37*
G36*
X418709Y230994D02*
X418709Y230994D01*
X418761Y230992D01*
X418830Y231012D01*
X418901Y231022D01*
X418947Y231046D01*
X418997Y231061D01*
X419056Y231101D01*
X419120Y231134D01*
X419157Y231171D01*
X419199Y231201D01*
X419242Y231258D01*
X419292Y231310D01*
X419327Y231372D01*
X419346Y231398D01*
X419353Y231420D01*
X419373Y231457D01*
X421086Y235592D01*
X424498Y239004D01*
X428633Y240717D01*
X428694Y240755D01*
X428760Y240784D01*
X428798Y240819D01*
X428843Y240846D01*
X428888Y240902D01*
X428941Y240950D01*
X428966Y240996D01*
X428999Y241036D01*
X429025Y241103D01*
X429060Y241166D01*
X429069Y241217D01*
X429088Y241265D01*
X429091Y241337D01*
X429103Y241408D01*
X429096Y241459D01*
X429098Y241511D01*
X429078Y241580D01*
X429068Y241651D01*
X429044Y241697D01*
X429029Y241747D01*
X428989Y241806D01*
X428956Y241870D01*
X428919Y241907D01*
X428889Y241949D01*
X428832Y241992D01*
X428780Y242042D01*
X428718Y242077D01*
X428692Y242096D01*
X428670Y242103D01*
X428633Y242123D01*
X424498Y243836D01*
X421086Y247248D01*
X419373Y251383D01*
X419335Y251444D01*
X419306Y251510D01*
X419271Y251548D01*
X419244Y251593D01*
X419188Y251638D01*
X419140Y251691D01*
X419094Y251716D01*
X419054Y251749D01*
X418987Y251775D01*
X418924Y251810D01*
X418873Y251819D01*
X418825Y251838D01*
X418753Y251841D01*
X418682Y251853D01*
X418631Y251846D01*
X418579Y251848D01*
X418510Y251828D01*
X418439Y251818D01*
X418393Y251794D01*
X418343Y251779D01*
X418284Y251739D01*
X418220Y251706D01*
X418183Y251669D01*
X418141Y251639D01*
X418098Y251582D01*
X418048Y251530D01*
X418013Y251468D01*
X417994Y251442D01*
X417987Y251420D01*
X417967Y251383D01*
X416254Y247248D01*
X412842Y243836D01*
X408707Y242123D01*
X408645Y242085D01*
X408580Y242056D01*
X408542Y242021D01*
X408497Y241994D01*
X408452Y241938D01*
X408399Y241890D01*
X408374Y241844D01*
X408341Y241804D01*
X408315Y241737D01*
X408280Y241674D01*
X408271Y241623D01*
X408252Y241575D01*
X408249Y241503D01*
X408237Y241432D01*
X408244Y241381D01*
X408242Y241329D01*
X408262Y241260D01*
X408272Y241189D01*
X408296Y241143D01*
X408311Y241093D01*
X408351Y241034D01*
X408384Y240970D01*
X408421Y240933D01*
X408451Y240891D01*
X408508Y240848D01*
X408560Y240798D01*
X408622Y240763D01*
X408648Y240744D01*
X408670Y240737D01*
X408707Y240717D01*
X412842Y239004D01*
X416254Y235592D01*
X417967Y231457D01*
X418005Y231395D01*
X418034Y231330D01*
X418069Y231292D01*
X418096Y231247D01*
X418152Y231202D01*
X418200Y231149D01*
X418246Y231124D01*
X418286Y231091D01*
X418353Y231065D01*
X418416Y231030D01*
X418467Y231021D01*
X418515Y231002D01*
X418587Y230999D01*
X418658Y230987D01*
X418709Y230994D01*
G37*
G36*
X418709Y205594D02*
X418709Y205594D01*
X418761Y205592D01*
X418830Y205612D01*
X418901Y205622D01*
X418947Y205646D01*
X418997Y205661D01*
X419056Y205701D01*
X419120Y205734D01*
X419157Y205771D01*
X419199Y205801D01*
X419242Y205858D01*
X419292Y205910D01*
X419327Y205972D01*
X419346Y205998D01*
X419353Y206020D01*
X419373Y206057D01*
X421086Y210192D01*
X424498Y213604D01*
X428633Y215317D01*
X428694Y215355D01*
X428760Y215384D01*
X428798Y215419D01*
X428843Y215446D01*
X428888Y215502D01*
X428941Y215550D01*
X428966Y215596D01*
X428999Y215636D01*
X429025Y215703D01*
X429060Y215766D01*
X429069Y215817D01*
X429088Y215865D01*
X429091Y215937D01*
X429103Y216008D01*
X429096Y216059D01*
X429098Y216111D01*
X429078Y216180D01*
X429068Y216251D01*
X429044Y216297D01*
X429029Y216347D01*
X428989Y216406D01*
X428956Y216470D01*
X428919Y216507D01*
X428889Y216549D01*
X428832Y216592D01*
X428780Y216642D01*
X428718Y216677D01*
X428692Y216696D01*
X428670Y216703D01*
X428633Y216723D01*
X424498Y218436D01*
X421086Y221848D01*
X419373Y225983D01*
X419335Y226044D01*
X419306Y226110D01*
X419271Y226148D01*
X419244Y226193D01*
X419188Y226238D01*
X419140Y226291D01*
X419094Y226316D01*
X419054Y226349D01*
X418987Y226375D01*
X418924Y226410D01*
X418873Y226419D01*
X418825Y226438D01*
X418753Y226441D01*
X418682Y226453D01*
X418631Y226446D01*
X418579Y226448D01*
X418510Y226428D01*
X418439Y226418D01*
X418393Y226394D01*
X418343Y226379D01*
X418284Y226339D01*
X418220Y226306D01*
X418183Y226269D01*
X418141Y226239D01*
X418098Y226182D01*
X418048Y226130D01*
X418013Y226068D01*
X417994Y226042D01*
X417987Y226020D01*
X417967Y225983D01*
X416254Y221848D01*
X412842Y218436D01*
X408707Y216723D01*
X408645Y216685D01*
X408580Y216656D01*
X408542Y216621D01*
X408497Y216594D01*
X408452Y216538D01*
X408399Y216490D01*
X408374Y216444D01*
X408341Y216404D01*
X408315Y216337D01*
X408280Y216274D01*
X408271Y216223D01*
X408252Y216175D01*
X408249Y216103D01*
X408237Y216032D01*
X408244Y215981D01*
X408242Y215929D01*
X408262Y215860D01*
X408272Y215789D01*
X408296Y215743D01*
X408311Y215693D01*
X408351Y215634D01*
X408384Y215570D01*
X408421Y215533D01*
X408451Y215491D01*
X408508Y215448D01*
X408560Y215398D01*
X408622Y215363D01*
X408648Y215344D01*
X408670Y215337D01*
X408707Y215317D01*
X412842Y213604D01*
X416254Y210192D01*
X417967Y206057D01*
X418005Y205995D01*
X418034Y205930D01*
X418069Y205892D01*
X418096Y205847D01*
X418152Y205802D01*
X418200Y205749D01*
X418246Y205724D01*
X418286Y205691D01*
X418353Y205665D01*
X418416Y205630D01*
X418467Y205621D01*
X418515Y205602D01*
X418587Y205599D01*
X418658Y205587D01*
X418709Y205594D01*
G37*
G36*
X418709Y256394D02*
X418709Y256394D01*
X418761Y256392D01*
X418830Y256412D01*
X418901Y256422D01*
X418947Y256446D01*
X418997Y256461D01*
X419056Y256501D01*
X419120Y256534D01*
X419157Y256571D01*
X419199Y256601D01*
X419242Y256658D01*
X419292Y256710D01*
X419327Y256772D01*
X419346Y256798D01*
X419353Y256820D01*
X419373Y256857D01*
X421086Y260992D01*
X424498Y264404D01*
X428633Y266117D01*
X428694Y266155D01*
X428760Y266184D01*
X428798Y266219D01*
X428843Y266246D01*
X428888Y266302D01*
X428941Y266350D01*
X428966Y266396D01*
X428999Y266436D01*
X429025Y266503D01*
X429060Y266566D01*
X429069Y266617D01*
X429088Y266665D01*
X429091Y266737D01*
X429103Y266808D01*
X429096Y266859D01*
X429098Y266911D01*
X429078Y266980D01*
X429068Y267051D01*
X429044Y267097D01*
X429029Y267147D01*
X428989Y267206D01*
X428956Y267270D01*
X428919Y267307D01*
X428889Y267349D01*
X428832Y267392D01*
X428780Y267442D01*
X428718Y267477D01*
X428692Y267496D01*
X428670Y267503D01*
X428633Y267523D01*
X424498Y269236D01*
X421086Y272648D01*
X419373Y276783D01*
X419335Y276844D01*
X419306Y276910D01*
X419271Y276948D01*
X419244Y276993D01*
X419188Y277038D01*
X419140Y277091D01*
X419094Y277116D01*
X419054Y277149D01*
X418987Y277175D01*
X418924Y277210D01*
X418873Y277219D01*
X418825Y277238D01*
X418753Y277241D01*
X418682Y277253D01*
X418631Y277246D01*
X418579Y277248D01*
X418510Y277228D01*
X418439Y277218D01*
X418393Y277194D01*
X418343Y277179D01*
X418284Y277139D01*
X418220Y277106D01*
X418183Y277069D01*
X418141Y277039D01*
X418098Y276982D01*
X418048Y276930D01*
X418013Y276868D01*
X417994Y276842D01*
X417987Y276820D01*
X417967Y276783D01*
X416254Y272648D01*
X412842Y269236D01*
X408707Y267523D01*
X408645Y267485D01*
X408580Y267456D01*
X408542Y267421D01*
X408497Y267394D01*
X408452Y267338D01*
X408399Y267290D01*
X408374Y267244D01*
X408341Y267204D01*
X408315Y267137D01*
X408280Y267074D01*
X408271Y267023D01*
X408252Y266975D01*
X408249Y266903D01*
X408237Y266832D01*
X408244Y266781D01*
X408242Y266729D01*
X408262Y266660D01*
X408272Y266589D01*
X408296Y266543D01*
X408311Y266493D01*
X408351Y266434D01*
X408384Y266370D01*
X408421Y266333D01*
X408451Y266291D01*
X408508Y266248D01*
X408560Y266198D01*
X408622Y266163D01*
X408648Y266144D01*
X408670Y266137D01*
X408707Y266117D01*
X412842Y264404D01*
X416254Y260992D01*
X417967Y256857D01*
X418005Y256795D01*
X418034Y256730D01*
X418069Y256692D01*
X418096Y256647D01*
X418152Y256602D01*
X418200Y256549D01*
X418246Y256524D01*
X418286Y256491D01*
X418353Y256465D01*
X418416Y256430D01*
X418467Y256421D01*
X418515Y256402D01*
X418587Y256399D01*
X418658Y256387D01*
X418709Y256394D01*
G37*
G36*
X418709Y383394D02*
X418709Y383394D01*
X418761Y383392D01*
X418830Y383412D01*
X418901Y383422D01*
X418947Y383446D01*
X418997Y383461D01*
X419056Y383501D01*
X419120Y383534D01*
X419157Y383571D01*
X419199Y383601D01*
X419242Y383658D01*
X419292Y383710D01*
X419327Y383772D01*
X419346Y383798D01*
X419353Y383820D01*
X419373Y383857D01*
X421086Y387992D01*
X424498Y391404D01*
X428633Y393117D01*
X428694Y393155D01*
X428760Y393184D01*
X428798Y393219D01*
X428843Y393246D01*
X428888Y393302D01*
X428941Y393350D01*
X428966Y393396D01*
X428999Y393436D01*
X429025Y393503D01*
X429060Y393566D01*
X429069Y393617D01*
X429088Y393665D01*
X429091Y393737D01*
X429103Y393808D01*
X429096Y393859D01*
X429098Y393911D01*
X429078Y393980D01*
X429068Y394051D01*
X429044Y394097D01*
X429029Y394147D01*
X428989Y394206D01*
X428956Y394270D01*
X428919Y394307D01*
X428889Y394349D01*
X428832Y394392D01*
X428780Y394442D01*
X428718Y394477D01*
X428692Y394496D01*
X428670Y394503D01*
X428633Y394523D01*
X424498Y396236D01*
X421086Y399648D01*
X419373Y403783D01*
X419336Y403844D01*
X419306Y403910D01*
X419271Y403948D01*
X419244Y403993D01*
X419189Y404038D01*
X419140Y404091D01*
X419094Y404116D01*
X419054Y404149D01*
X418987Y404175D01*
X418924Y404210D01*
X418873Y404219D01*
X418825Y404238D01*
X418753Y404241D01*
X418682Y404253D01*
X418631Y404246D01*
X418579Y404248D01*
X418510Y404228D01*
X418439Y404218D01*
X418393Y404194D01*
X418343Y404179D01*
X418284Y404139D01*
X418220Y404106D01*
X418183Y404069D01*
X418141Y404039D01*
X418098Y403982D01*
X418048Y403930D01*
X418013Y403868D01*
X417994Y403842D01*
X417987Y403820D01*
X417967Y403783D01*
X416254Y399648D01*
X412842Y396236D01*
X408707Y394523D01*
X408646Y394485D01*
X408580Y394456D01*
X408542Y394421D01*
X408497Y394394D01*
X408452Y394338D01*
X408399Y394290D01*
X408374Y394244D01*
X408341Y394204D01*
X408315Y394137D01*
X408280Y394074D01*
X408271Y394023D01*
X408252Y393975D01*
X408249Y393903D01*
X408237Y393832D01*
X408244Y393781D01*
X408242Y393729D01*
X408262Y393660D01*
X408272Y393589D01*
X408296Y393543D01*
X408311Y393493D01*
X408351Y393434D01*
X408384Y393370D01*
X408421Y393333D01*
X408451Y393291D01*
X408508Y393248D01*
X408560Y393198D01*
X408622Y393163D01*
X408648Y393144D01*
X408670Y393137D01*
X408707Y393117D01*
X412842Y391404D01*
X416254Y387992D01*
X417967Y383857D01*
X418005Y383795D01*
X418034Y383730D01*
X418069Y383692D01*
X418096Y383647D01*
X418152Y383602D01*
X418200Y383549D01*
X418246Y383524D01*
X418286Y383491D01*
X418353Y383465D01*
X418416Y383430D01*
X418467Y383421D01*
X418515Y383402D01*
X418587Y383399D01*
X418658Y383387D01*
X418709Y383394D01*
G37*
G36*
X418709Y180194D02*
X418709Y180194D01*
X418761Y180192D01*
X418830Y180212D01*
X418901Y180222D01*
X418947Y180246D01*
X418997Y180261D01*
X419056Y180301D01*
X419120Y180334D01*
X419157Y180371D01*
X419199Y180401D01*
X419242Y180458D01*
X419292Y180510D01*
X419327Y180572D01*
X419346Y180598D01*
X419353Y180620D01*
X419373Y180657D01*
X421086Y184792D01*
X424498Y188204D01*
X428633Y189917D01*
X428694Y189955D01*
X428760Y189984D01*
X428798Y190019D01*
X428843Y190046D01*
X428888Y190102D01*
X428941Y190150D01*
X428966Y190196D01*
X428999Y190236D01*
X429025Y190303D01*
X429060Y190366D01*
X429069Y190417D01*
X429088Y190465D01*
X429091Y190537D01*
X429103Y190608D01*
X429096Y190659D01*
X429098Y190711D01*
X429078Y190780D01*
X429068Y190851D01*
X429044Y190897D01*
X429029Y190947D01*
X428989Y191006D01*
X428956Y191070D01*
X428919Y191107D01*
X428889Y191149D01*
X428832Y191192D01*
X428780Y191242D01*
X428718Y191277D01*
X428692Y191296D01*
X428670Y191303D01*
X428633Y191323D01*
X424498Y193036D01*
X421086Y196448D01*
X419373Y200583D01*
X419335Y200644D01*
X419306Y200710D01*
X419271Y200748D01*
X419244Y200793D01*
X419188Y200838D01*
X419140Y200891D01*
X419094Y200916D01*
X419054Y200949D01*
X418987Y200975D01*
X418924Y201010D01*
X418873Y201019D01*
X418825Y201038D01*
X418753Y201041D01*
X418682Y201053D01*
X418631Y201046D01*
X418579Y201048D01*
X418510Y201028D01*
X418439Y201018D01*
X418393Y200994D01*
X418343Y200979D01*
X418284Y200939D01*
X418220Y200906D01*
X418183Y200869D01*
X418141Y200839D01*
X418098Y200782D01*
X418048Y200730D01*
X418013Y200668D01*
X417994Y200642D01*
X417987Y200620D01*
X417967Y200583D01*
X416254Y196448D01*
X412842Y193036D01*
X408707Y191323D01*
X408645Y191285D01*
X408580Y191256D01*
X408542Y191221D01*
X408497Y191194D01*
X408452Y191138D01*
X408399Y191090D01*
X408374Y191044D01*
X408341Y191004D01*
X408315Y190937D01*
X408280Y190874D01*
X408271Y190823D01*
X408252Y190775D01*
X408249Y190703D01*
X408237Y190632D01*
X408244Y190581D01*
X408242Y190529D01*
X408262Y190460D01*
X408272Y190389D01*
X408296Y190343D01*
X408311Y190293D01*
X408351Y190234D01*
X408384Y190170D01*
X408421Y190133D01*
X408451Y190091D01*
X408508Y190048D01*
X408560Y189998D01*
X408622Y189963D01*
X408648Y189944D01*
X408670Y189937D01*
X408707Y189917D01*
X412842Y188204D01*
X416254Y184792D01*
X417967Y180657D01*
X418004Y180596D01*
X418034Y180530D01*
X418069Y180492D01*
X418096Y180447D01*
X418151Y180402D01*
X418200Y180349D01*
X418246Y180324D01*
X418286Y180291D01*
X418353Y180265D01*
X418416Y180230D01*
X418467Y180221D01*
X418515Y180202D01*
X418587Y180199D01*
X418658Y180187D01*
X418709Y180194D01*
G37*
G36*
X418709Y510394D02*
X418709Y510394D01*
X418761Y510392D01*
X418830Y510412D01*
X418901Y510422D01*
X418947Y510446D01*
X418997Y510461D01*
X419056Y510501D01*
X419120Y510534D01*
X419157Y510571D01*
X419199Y510601D01*
X419242Y510658D01*
X419292Y510710D01*
X419327Y510772D01*
X419346Y510798D01*
X419353Y510820D01*
X419373Y510857D01*
X421086Y514992D01*
X424498Y518404D01*
X428633Y520117D01*
X428694Y520155D01*
X428760Y520184D01*
X428798Y520219D01*
X428843Y520246D01*
X428888Y520302D01*
X428941Y520350D01*
X428966Y520396D01*
X428999Y520436D01*
X429025Y520503D01*
X429060Y520566D01*
X429069Y520617D01*
X429088Y520665D01*
X429091Y520737D01*
X429103Y520808D01*
X429096Y520859D01*
X429098Y520911D01*
X429078Y520980D01*
X429068Y521051D01*
X429044Y521097D01*
X429029Y521147D01*
X428989Y521206D01*
X428956Y521270D01*
X428919Y521307D01*
X428889Y521349D01*
X428832Y521392D01*
X428780Y521442D01*
X428718Y521477D01*
X428692Y521496D01*
X428670Y521503D01*
X428633Y521523D01*
X424498Y523236D01*
X421086Y526648D01*
X419373Y530783D01*
X419335Y530844D01*
X419306Y530910D01*
X419271Y530948D01*
X419244Y530993D01*
X419188Y531038D01*
X419140Y531091D01*
X419094Y531116D01*
X419054Y531149D01*
X418987Y531175D01*
X418924Y531210D01*
X418873Y531219D01*
X418825Y531238D01*
X418753Y531241D01*
X418682Y531253D01*
X418631Y531246D01*
X418579Y531248D01*
X418510Y531228D01*
X418439Y531218D01*
X418393Y531194D01*
X418343Y531179D01*
X418284Y531139D01*
X418220Y531106D01*
X418183Y531069D01*
X418141Y531039D01*
X418098Y530982D01*
X418048Y530930D01*
X418013Y530868D01*
X417994Y530842D01*
X417987Y530820D01*
X417967Y530783D01*
X416254Y526648D01*
X412842Y523236D01*
X408707Y521523D01*
X408646Y521486D01*
X408580Y521456D01*
X408542Y521421D01*
X408497Y521394D01*
X408452Y521339D01*
X408399Y521290D01*
X408374Y521244D01*
X408341Y521204D01*
X408315Y521137D01*
X408280Y521074D01*
X408271Y521023D01*
X408252Y520975D01*
X408249Y520903D01*
X408237Y520832D01*
X408244Y520781D01*
X408242Y520729D01*
X408262Y520660D01*
X408272Y520589D01*
X408296Y520543D01*
X408311Y520493D01*
X408351Y520434D01*
X408384Y520370D01*
X408421Y520333D01*
X408451Y520291D01*
X408508Y520248D01*
X408560Y520198D01*
X408622Y520163D01*
X408648Y520144D01*
X408670Y520137D01*
X408707Y520117D01*
X412842Y518404D01*
X416254Y514992D01*
X417967Y510857D01*
X418004Y510796D01*
X418034Y510730D01*
X418069Y510692D01*
X418096Y510647D01*
X418151Y510602D01*
X418200Y510549D01*
X418246Y510524D01*
X418286Y510491D01*
X418353Y510465D01*
X418416Y510430D01*
X418467Y510421D01*
X418515Y510402D01*
X418587Y510399D01*
X418658Y510387D01*
X418709Y510394D01*
G37*
G36*
X418709Y434194D02*
X418709Y434194D01*
X418761Y434192D01*
X418830Y434212D01*
X418901Y434222D01*
X418947Y434246D01*
X418997Y434261D01*
X419056Y434301D01*
X419120Y434334D01*
X419157Y434371D01*
X419199Y434401D01*
X419242Y434458D01*
X419292Y434510D01*
X419327Y434572D01*
X419346Y434598D01*
X419353Y434620D01*
X419373Y434657D01*
X421086Y438792D01*
X424498Y442204D01*
X428633Y443917D01*
X428694Y443955D01*
X428760Y443984D01*
X428798Y444019D01*
X428843Y444046D01*
X428888Y444102D01*
X428941Y444150D01*
X428966Y444196D01*
X428999Y444236D01*
X429025Y444303D01*
X429060Y444366D01*
X429069Y444417D01*
X429088Y444465D01*
X429091Y444537D01*
X429103Y444608D01*
X429096Y444659D01*
X429098Y444711D01*
X429078Y444780D01*
X429068Y444851D01*
X429044Y444897D01*
X429029Y444947D01*
X428989Y445006D01*
X428956Y445070D01*
X428919Y445107D01*
X428889Y445149D01*
X428832Y445192D01*
X428780Y445242D01*
X428718Y445277D01*
X428692Y445296D01*
X428670Y445303D01*
X428633Y445323D01*
X424498Y447036D01*
X421086Y450448D01*
X419373Y454583D01*
X419335Y454644D01*
X419306Y454710D01*
X419271Y454748D01*
X419244Y454793D01*
X419188Y454838D01*
X419140Y454891D01*
X419094Y454916D01*
X419054Y454949D01*
X418987Y454975D01*
X418924Y455010D01*
X418873Y455019D01*
X418825Y455038D01*
X418753Y455041D01*
X418682Y455053D01*
X418631Y455046D01*
X418579Y455048D01*
X418510Y455028D01*
X418439Y455018D01*
X418393Y454994D01*
X418343Y454979D01*
X418284Y454939D01*
X418220Y454906D01*
X418183Y454869D01*
X418141Y454839D01*
X418098Y454782D01*
X418048Y454730D01*
X418013Y454668D01*
X417994Y454642D01*
X417987Y454620D01*
X417967Y454583D01*
X416254Y450448D01*
X412842Y447036D01*
X408707Y445323D01*
X408646Y445286D01*
X408580Y445256D01*
X408542Y445221D01*
X408497Y445194D01*
X408452Y445139D01*
X408399Y445090D01*
X408374Y445044D01*
X408341Y445004D01*
X408315Y444937D01*
X408280Y444874D01*
X408271Y444823D01*
X408252Y444775D01*
X408249Y444703D01*
X408237Y444632D01*
X408244Y444581D01*
X408242Y444529D01*
X408262Y444460D01*
X408272Y444389D01*
X408296Y444343D01*
X408311Y444293D01*
X408351Y444234D01*
X408384Y444170D01*
X408421Y444133D01*
X408451Y444091D01*
X408508Y444048D01*
X408560Y443998D01*
X408622Y443963D01*
X408648Y443944D01*
X408670Y443937D01*
X408707Y443917D01*
X412842Y442204D01*
X416254Y438792D01*
X417967Y434657D01*
X418004Y434596D01*
X418034Y434530D01*
X418069Y434492D01*
X418096Y434447D01*
X418151Y434402D01*
X418200Y434349D01*
X418246Y434324D01*
X418286Y434291D01*
X418353Y434265D01*
X418416Y434230D01*
X418467Y434221D01*
X418515Y434202D01*
X418587Y434199D01*
X418658Y434187D01*
X418709Y434194D01*
G37*
G36*
X418709Y154794D02*
X418709Y154794D01*
X418761Y154792D01*
X418830Y154812D01*
X418901Y154822D01*
X418947Y154846D01*
X418997Y154861D01*
X419056Y154901D01*
X419120Y154934D01*
X419157Y154971D01*
X419199Y155001D01*
X419242Y155058D01*
X419292Y155110D01*
X419327Y155172D01*
X419346Y155198D01*
X419353Y155220D01*
X419373Y155257D01*
X421086Y159392D01*
X424498Y162804D01*
X428633Y164517D01*
X428694Y164555D01*
X428760Y164584D01*
X428798Y164619D01*
X428843Y164646D01*
X428888Y164702D01*
X428941Y164750D01*
X428966Y164796D01*
X428999Y164836D01*
X429025Y164903D01*
X429060Y164966D01*
X429069Y165017D01*
X429088Y165065D01*
X429091Y165137D01*
X429103Y165208D01*
X429096Y165259D01*
X429098Y165311D01*
X429078Y165380D01*
X429068Y165451D01*
X429044Y165497D01*
X429029Y165547D01*
X428989Y165606D01*
X428956Y165670D01*
X428919Y165707D01*
X428889Y165749D01*
X428832Y165792D01*
X428780Y165842D01*
X428718Y165877D01*
X428692Y165896D01*
X428670Y165903D01*
X428633Y165923D01*
X424498Y167636D01*
X421086Y171048D01*
X419373Y175183D01*
X419335Y175244D01*
X419306Y175310D01*
X419271Y175348D01*
X419244Y175393D01*
X419188Y175438D01*
X419140Y175491D01*
X419094Y175516D01*
X419054Y175549D01*
X418987Y175575D01*
X418924Y175610D01*
X418873Y175619D01*
X418825Y175638D01*
X418753Y175641D01*
X418682Y175653D01*
X418631Y175646D01*
X418579Y175648D01*
X418510Y175628D01*
X418439Y175618D01*
X418393Y175594D01*
X418343Y175579D01*
X418284Y175539D01*
X418220Y175506D01*
X418183Y175469D01*
X418141Y175439D01*
X418098Y175382D01*
X418048Y175330D01*
X418013Y175268D01*
X417994Y175242D01*
X417987Y175220D01*
X417967Y175183D01*
X416254Y171048D01*
X412842Y167636D01*
X408707Y165923D01*
X408646Y165886D01*
X408580Y165856D01*
X408542Y165821D01*
X408497Y165794D01*
X408452Y165739D01*
X408399Y165690D01*
X408374Y165644D01*
X408341Y165604D01*
X408315Y165537D01*
X408280Y165474D01*
X408271Y165423D01*
X408252Y165375D01*
X408249Y165303D01*
X408237Y165232D01*
X408244Y165181D01*
X408242Y165129D01*
X408262Y165060D01*
X408272Y164989D01*
X408296Y164943D01*
X408311Y164893D01*
X408351Y164834D01*
X408384Y164770D01*
X408421Y164733D01*
X408451Y164691D01*
X408508Y164648D01*
X408560Y164598D01*
X408622Y164563D01*
X408648Y164544D01*
X408670Y164537D01*
X408707Y164517D01*
X412842Y162804D01*
X416254Y159392D01*
X417967Y155257D01*
X418004Y155196D01*
X418034Y155130D01*
X418069Y155092D01*
X418096Y155047D01*
X418151Y155002D01*
X418200Y154949D01*
X418246Y154924D01*
X418286Y154891D01*
X418353Y154865D01*
X418416Y154830D01*
X418467Y154821D01*
X418515Y154802D01*
X418587Y154799D01*
X418658Y154787D01*
X418709Y154794D01*
G37*
G36*
X418709Y408794D02*
X418709Y408794D01*
X418761Y408792D01*
X418830Y408812D01*
X418901Y408822D01*
X418947Y408846D01*
X418997Y408861D01*
X419056Y408901D01*
X419120Y408934D01*
X419157Y408971D01*
X419199Y409001D01*
X419242Y409058D01*
X419292Y409110D01*
X419327Y409172D01*
X419346Y409198D01*
X419353Y409220D01*
X419373Y409257D01*
X421086Y413392D01*
X424498Y416804D01*
X428633Y418517D01*
X428694Y418554D01*
X428760Y418584D01*
X428798Y418619D01*
X428843Y418646D01*
X428888Y418701D01*
X428941Y418750D01*
X428966Y418796D01*
X428999Y418836D01*
X429025Y418903D01*
X429060Y418966D01*
X429069Y419017D01*
X429088Y419065D01*
X429091Y419137D01*
X429103Y419208D01*
X429096Y419259D01*
X429098Y419311D01*
X429078Y419380D01*
X429068Y419451D01*
X429044Y419497D01*
X429029Y419547D01*
X428989Y419606D01*
X428956Y419670D01*
X428919Y419707D01*
X428889Y419749D01*
X428832Y419792D01*
X428780Y419842D01*
X428718Y419877D01*
X428692Y419896D01*
X428670Y419903D01*
X428633Y419923D01*
X424498Y421636D01*
X421086Y425048D01*
X419373Y429183D01*
X419335Y429244D01*
X419306Y429310D01*
X419271Y429348D01*
X419244Y429393D01*
X419188Y429438D01*
X419140Y429491D01*
X419094Y429516D01*
X419054Y429549D01*
X418987Y429575D01*
X418924Y429610D01*
X418873Y429619D01*
X418825Y429638D01*
X418753Y429641D01*
X418682Y429653D01*
X418631Y429646D01*
X418579Y429648D01*
X418510Y429628D01*
X418439Y429618D01*
X418393Y429594D01*
X418343Y429579D01*
X418284Y429539D01*
X418220Y429506D01*
X418183Y429469D01*
X418141Y429439D01*
X418098Y429382D01*
X418048Y429330D01*
X418013Y429268D01*
X417994Y429242D01*
X417987Y429220D01*
X417967Y429183D01*
X416254Y425048D01*
X412842Y421636D01*
X408707Y419923D01*
X408646Y419886D01*
X408580Y419856D01*
X408542Y419821D01*
X408497Y419794D01*
X408452Y419739D01*
X408399Y419690D01*
X408374Y419644D01*
X408341Y419604D01*
X408315Y419537D01*
X408280Y419474D01*
X408271Y419423D01*
X408252Y419375D01*
X408249Y419303D01*
X408237Y419232D01*
X408244Y419181D01*
X408242Y419129D01*
X408262Y419060D01*
X408272Y418989D01*
X408296Y418943D01*
X408311Y418893D01*
X408351Y418834D01*
X408384Y418770D01*
X408421Y418733D01*
X408451Y418691D01*
X408508Y418648D01*
X408560Y418598D01*
X408622Y418563D01*
X408648Y418544D01*
X408670Y418537D01*
X408707Y418517D01*
X412842Y416804D01*
X416254Y413392D01*
X417967Y409257D01*
X418005Y409196D01*
X418034Y409130D01*
X418069Y409092D01*
X418096Y409047D01*
X418152Y409002D01*
X418200Y408949D01*
X418246Y408924D01*
X418286Y408891D01*
X418353Y408865D01*
X418416Y408830D01*
X418467Y408821D01*
X418515Y408802D01*
X418587Y408799D01*
X418658Y408787D01*
X418709Y408794D01*
G37*
G36*
X418709Y129394D02*
X418709Y129394D01*
X418761Y129392D01*
X418830Y129412D01*
X418901Y129422D01*
X418947Y129446D01*
X418997Y129461D01*
X419056Y129501D01*
X419120Y129534D01*
X419157Y129571D01*
X419199Y129601D01*
X419242Y129658D01*
X419292Y129710D01*
X419327Y129772D01*
X419346Y129798D01*
X419353Y129820D01*
X419373Y129857D01*
X421086Y133992D01*
X424498Y137404D01*
X428633Y139117D01*
X428694Y139155D01*
X428760Y139184D01*
X428798Y139219D01*
X428843Y139246D01*
X428888Y139302D01*
X428941Y139350D01*
X428966Y139396D01*
X428999Y139436D01*
X429025Y139503D01*
X429060Y139566D01*
X429069Y139617D01*
X429088Y139665D01*
X429091Y139737D01*
X429103Y139808D01*
X429096Y139859D01*
X429098Y139911D01*
X429078Y139980D01*
X429068Y140051D01*
X429044Y140097D01*
X429029Y140147D01*
X428989Y140206D01*
X428956Y140270D01*
X428919Y140307D01*
X428889Y140349D01*
X428832Y140392D01*
X428780Y140442D01*
X428718Y140477D01*
X428692Y140496D01*
X428670Y140503D01*
X428633Y140523D01*
X424498Y142236D01*
X421086Y145648D01*
X419373Y149783D01*
X419335Y149844D01*
X419306Y149910D01*
X419271Y149948D01*
X419244Y149993D01*
X419188Y150038D01*
X419140Y150091D01*
X419094Y150116D01*
X419054Y150149D01*
X418987Y150175D01*
X418924Y150210D01*
X418873Y150219D01*
X418825Y150238D01*
X418753Y150241D01*
X418682Y150253D01*
X418631Y150246D01*
X418579Y150248D01*
X418510Y150228D01*
X418439Y150218D01*
X418393Y150194D01*
X418343Y150179D01*
X418284Y150139D01*
X418220Y150106D01*
X418183Y150069D01*
X418141Y150039D01*
X418098Y149982D01*
X418048Y149930D01*
X418013Y149868D01*
X417994Y149842D01*
X417987Y149820D01*
X417967Y149783D01*
X416254Y145648D01*
X412842Y142236D01*
X408707Y140523D01*
X408646Y140486D01*
X408580Y140456D01*
X408542Y140421D01*
X408497Y140394D01*
X408452Y140339D01*
X408399Y140290D01*
X408374Y140244D01*
X408341Y140204D01*
X408315Y140137D01*
X408280Y140074D01*
X408271Y140023D01*
X408252Y139975D01*
X408249Y139903D01*
X408237Y139832D01*
X408244Y139781D01*
X408242Y139729D01*
X408262Y139660D01*
X408272Y139589D01*
X408296Y139543D01*
X408311Y139493D01*
X408351Y139434D01*
X408384Y139370D01*
X408421Y139333D01*
X408451Y139291D01*
X408508Y139248D01*
X408560Y139198D01*
X408622Y139163D01*
X408648Y139144D01*
X408670Y139137D01*
X408707Y139117D01*
X412842Y137404D01*
X416254Y133992D01*
X417967Y129857D01*
X418004Y129796D01*
X418034Y129730D01*
X418069Y129692D01*
X418096Y129647D01*
X418151Y129602D01*
X418200Y129549D01*
X418246Y129524D01*
X418286Y129491D01*
X418353Y129465D01*
X418416Y129430D01*
X418467Y129421D01*
X418515Y129402D01*
X418587Y129399D01*
X418658Y129387D01*
X418709Y129394D01*
G37*
G36*
X418896Y104513D02*
X418896Y104513D01*
X418918Y104511D01*
X419017Y104531D01*
X419118Y104546D01*
X419138Y104556D01*
X419159Y104560D01*
X419247Y104611D01*
X419337Y104657D01*
X419353Y104673D01*
X419372Y104684D01*
X419438Y104760D01*
X419509Y104833D01*
X419519Y104851D01*
X419520Y104851D01*
X419521Y104855D01*
X419523Y104857D01*
X419533Y104870D01*
X419546Y104900D01*
X419590Y104980D01*
X421086Y108592D01*
X424498Y112004D01*
X428633Y113717D01*
X428694Y113755D01*
X428760Y113784D01*
X428783Y113805D01*
X428789Y113808D01*
X428801Y113820D01*
X428843Y113846D01*
X428888Y113902D01*
X428941Y113950D01*
X428966Y113996D01*
X428999Y114036D01*
X429025Y114103D01*
X429060Y114166D01*
X429069Y114217D01*
X429088Y114265D01*
X429091Y114337D01*
X429103Y114408D01*
X429096Y114459D01*
X429098Y114511D01*
X429078Y114580D01*
X429068Y114651D01*
X429044Y114697D01*
X429029Y114747D01*
X428989Y114806D01*
X428956Y114870D01*
X428919Y114907D01*
X428889Y114949D01*
X428832Y114992D01*
X428780Y115042D01*
X428718Y115077D01*
X428692Y115096D01*
X428670Y115103D01*
X428633Y115123D01*
X424498Y116836D01*
X421086Y120248D01*
X419373Y124383D01*
X419335Y124444D01*
X419306Y124510D01*
X419271Y124548D01*
X419244Y124593D01*
X419188Y124638D01*
X419140Y124691D01*
X419094Y124716D01*
X419054Y124749D01*
X418987Y124775D01*
X418924Y124810D01*
X418873Y124819D01*
X418825Y124838D01*
X418753Y124841D01*
X418682Y124853D01*
X418631Y124846D01*
X418579Y124848D01*
X418510Y124828D01*
X418439Y124818D01*
X418393Y124794D01*
X418343Y124779D01*
X418284Y124739D01*
X418220Y124706D01*
X418183Y124669D01*
X418141Y124639D01*
X418098Y124582D01*
X418048Y124530D01*
X418013Y124468D01*
X417994Y124442D01*
X417987Y124420D01*
X417967Y124383D01*
X416254Y120248D01*
X412842Y116836D01*
X409230Y115340D01*
X409144Y115287D01*
X409055Y115238D01*
X409040Y115222D01*
X409021Y115210D01*
X408956Y115133D01*
X408887Y115058D01*
X408878Y115038D01*
X408864Y115021D01*
X408828Y114927D01*
X408786Y114834D01*
X408784Y114812D01*
X408776Y114791D01*
X408772Y114690D01*
X408761Y114589D01*
X408766Y114568D01*
X408765Y114546D01*
X408794Y114449D01*
X408816Y114350D01*
X408828Y114331D01*
X408834Y114309D01*
X408892Y114226D01*
X408945Y114140D01*
X408962Y114126D01*
X408974Y114107D01*
X409055Y114047D01*
X409133Y113982D01*
X409158Y113971D01*
X409172Y113961D01*
X409203Y113950D01*
X409286Y113913D01*
X410815Y113416D01*
X412585Y112514D01*
X414192Y111347D01*
X415597Y109942D01*
X416764Y108335D01*
X417666Y106565D01*
X418163Y105036D01*
X418172Y105018D01*
X418176Y105000D01*
X418212Y104939D01*
X418250Y104853D01*
X418265Y104837D01*
X418276Y104817D01*
X418298Y104796D01*
X418302Y104789D01*
X418328Y104766D01*
X418348Y104747D01*
X418417Y104672D01*
X418436Y104662D01*
X418452Y104646D01*
X418543Y104603D01*
X418632Y104554D01*
X418654Y104550D01*
X418674Y104540D01*
X418775Y104528D01*
X418874Y104510D01*
X418896Y104513D01*
G37*
G36*
X418896Y485513D02*
X418896Y485513D01*
X418918Y485511D01*
X419017Y485531D01*
X419118Y485546D01*
X419138Y485556D01*
X419159Y485560D01*
X419247Y485611D01*
X419337Y485657D01*
X419353Y485673D01*
X419372Y485684D01*
X419438Y485760D01*
X419509Y485833D01*
X419523Y485857D01*
X419533Y485870D01*
X419546Y485900D01*
X419590Y485980D01*
X421086Y489592D01*
X424498Y493004D01*
X428633Y494717D01*
X428694Y494755D01*
X428760Y494784D01*
X428798Y494819D01*
X428843Y494846D01*
X428888Y494902D01*
X428941Y494950D01*
X428966Y494996D01*
X428999Y495036D01*
X429025Y495103D01*
X429060Y495166D01*
X429069Y495217D01*
X429088Y495265D01*
X429091Y495337D01*
X429103Y495408D01*
X429096Y495459D01*
X429098Y495511D01*
X429078Y495580D01*
X429068Y495651D01*
X429044Y495697D01*
X429029Y495747D01*
X428989Y495806D01*
X428956Y495870D01*
X428919Y495907D01*
X428889Y495949D01*
X428832Y495992D01*
X428780Y496042D01*
X428718Y496077D01*
X428692Y496096D01*
X428670Y496103D01*
X428633Y496123D01*
X424498Y497836D01*
X421086Y501248D01*
X419373Y505383D01*
X419335Y505444D01*
X419306Y505510D01*
X419271Y505548D01*
X419244Y505593D01*
X419188Y505638D01*
X419140Y505691D01*
X419094Y505716D01*
X419054Y505749D01*
X418987Y505775D01*
X418924Y505810D01*
X418873Y505819D01*
X418825Y505838D01*
X418753Y505841D01*
X418682Y505853D01*
X418631Y505846D01*
X418579Y505848D01*
X418510Y505828D01*
X418439Y505818D01*
X418393Y505794D01*
X418343Y505779D01*
X418284Y505739D01*
X418220Y505706D01*
X418183Y505669D01*
X418141Y505639D01*
X418098Y505582D01*
X418048Y505530D01*
X418013Y505468D01*
X417994Y505442D01*
X417987Y505420D01*
X417967Y505383D01*
X416254Y501248D01*
X412842Y497836D01*
X409230Y496340D01*
X409144Y496287D01*
X409055Y496238D01*
X409040Y496222D01*
X409021Y496210D01*
X408956Y496133D01*
X408887Y496058D01*
X408878Y496038D01*
X408864Y496021D01*
X408828Y495927D01*
X408786Y495834D01*
X408784Y495812D01*
X408776Y495791D01*
X408772Y495690D01*
X408761Y495589D01*
X408766Y495568D01*
X408765Y495546D01*
X408794Y495449D01*
X408816Y495350D01*
X408828Y495331D01*
X408834Y495309D01*
X408892Y495226D01*
X408945Y495140D01*
X408962Y495126D01*
X408974Y495107D01*
X409055Y495047D01*
X409133Y494982D01*
X409158Y494971D01*
X409172Y494961D01*
X409203Y494950D01*
X409286Y494913D01*
X410815Y494416D01*
X412585Y493514D01*
X414192Y492347D01*
X415597Y490942D01*
X416764Y489335D01*
X417666Y487565D01*
X418163Y486036D01*
X418209Y485946D01*
X418250Y485853D01*
X418265Y485837D01*
X418276Y485817D01*
X418348Y485747D01*
X418417Y485672D01*
X418436Y485662D01*
X418452Y485646D01*
X418543Y485603D01*
X418632Y485554D01*
X418654Y485550D01*
X418674Y485540D01*
X418775Y485528D01*
X418874Y485510D01*
X418896Y485513D01*
G37*
G36*
X418709Y459594D02*
X418709Y459594D01*
X418761Y459592D01*
X418830Y459612D01*
X418901Y459622D01*
X418947Y459646D01*
X418997Y459661D01*
X419056Y459701D01*
X419120Y459734D01*
X419157Y459771D01*
X419199Y459801D01*
X419242Y459858D01*
X419292Y459910D01*
X419327Y459972D01*
X419346Y459998D01*
X419353Y460020D01*
X419373Y460057D01*
X421086Y464192D01*
X424498Y467604D01*
X428633Y469317D01*
X428694Y469355D01*
X428760Y469384D01*
X428798Y469419D01*
X428843Y469446D01*
X428888Y469502D01*
X428941Y469550D01*
X428966Y469596D01*
X428999Y469636D01*
X429025Y469703D01*
X429060Y469766D01*
X429069Y469817D01*
X429088Y469865D01*
X429091Y469937D01*
X429103Y470008D01*
X429096Y470059D01*
X429098Y470111D01*
X429078Y470180D01*
X429068Y470251D01*
X429044Y470297D01*
X429029Y470347D01*
X428989Y470406D01*
X428956Y470470D01*
X428919Y470507D01*
X428889Y470549D01*
X428832Y470592D01*
X428780Y470642D01*
X428718Y470677D01*
X428692Y470696D01*
X428670Y470703D01*
X428633Y470723D01*
X424498Y472436D01*
X421086Y475848D01*
X419590Y479460D01*
X419537Y479546D01*
X419488Y479635D01*
X419472Y479650D01*
X419460Y479669D01*
X419383Y479734D01*
X419308Y479803D01*
X419288Y479812D01*
X419271Y479826D01*
X419177Y479862D01*
X419084Y479904D01*
X419062Y479906D01*
X419041Y479914D01*
X418940Y479918D01*
X418839Y479929D01*
X418818Y479924D01*
X418796Y479925D01*
X418699Y479896D01*
X418600Y479874D01*
X418581Y479862D01*
X418559Y479856D01*
X418476Y479798D01*
X418390Y479745D01*
X418376Y479728D01*
X418357Y479716D01*
X418297Y479635D01*
X418232Y479557D01*
X418221Y479532D01*
X418211Y479518D01*
X418200Y479487D01*
X418163Y479404D01*
X417666Y477875D01*
X416764Y476105D01*
X415597Y474498D01*
X414192Y473093D01*
X412585Y471926D01*
X410815Y471024D01*
X409286Y470527D01*
X409196Y470481D01*
X409103Y470440D01*
X409087Y470425D01*
X409067Y470414D01*
X408997Y470342D01*
X408922Y470273D01*
X408912Y470254D01*
X408896Y470238D01*
X408853Y470147D01*
X408804Y470058D01*
X408800Y470036D01*
X408790Y470016D01*
X408778Y469915D01*
X408760Y469816D01*
X408763Y469794D01*
X408761Y469772D01*
X408781Y469673D01*
X408796Y469572D01*
X408806Y469552D01*
X408810Y469531D01*
X408861Y469443D01*
X408907Y469353D01*
X408923Y469337D01*
X408934Y469318D01*
X409010Y469252D01*
X409083Y469181D01*
X409107Y469167D01*
X409120Y469157D01*
X409150Y469144D01*
X409230Y469100D01*
X412842Y467604D01*
X416254Y464192D01*
X417967Y460057D01*
X418004Y459996D01*
X418034Y459930D01*
X418069Y459892D01*
X418096Y459847D01*
X418151Y459802D01*
X418200Y459749D01*
X418246Y459724D01*
X418286Y459691D01*
X418353Y459665D01*
X418416Y459630D01*
X418467Y459621D01*
X418515Y459602D01*
X418587Y459599D01*
X418658Y459587D01*
X418709Y459594D01*
G37*
%LPC*%
G36*
X280923Y509523D02*
X280923Y509523D01*
X280923Y523241D01*
X285713Y523241D01*
X294641Y514313D01*
X294641Y509523D01*
X280923Y509523D01*
G37*
%LPD*%
%LPC*%
G36*
X264159Y509523D02*
X264159Y509523D01*
X264159Y514313D01*
X273087Y523241D01*
X277877Y523241D01*
X277877Y509523D01*
X264159Y509523D01*
G37*
%LPD*%
%LPC*%
G36*
X280923Y492759D02*
X280923Y492759D01*
X280923Y506477D01*
X294641Y506477D01*
X294641Y501687D01*
X285713Y492759D01*
X280923Y492759D01*
G37*
%LPD*%
%LPC*%
G36*
X273087Y492759D02*
X273087Y492759D01*
X264159Y501687D01*
X264159Y506477D01*
X277877Y506477D01*
X277877Y492759D01*
X273087Y492759D01*
G37*
%LPD*%
G36*
X418709Y535794D02*
X418709Y535794D01*
X418761Y535792D01*
X418830Y535812D01*
X418901Y535822D01*
X418947Y535846D01*
X418997Y535861D01*
X419056Y535901D01*
X419120Y535934D01*
X419157Y535971D01*
X419199Y536001D01*
X419242Y536058D01*
X419292Y536110D01*
X419327Y536172D01*
X419346Y536198D01*
X419353Y536220D01*
X419373Y536257D01*
X421086Y540392D01*
X424498Y543804D01*
X427330Y544977D01*
X427390Y545014D01*
X427456Y545044D01*
X427494Y545079D01*
X427539Y545106D01*
X427584Y545161D01*
X427637Y545210D01*
X427662Y545256D01*
X427695Y545296D01*
X427721Y545363D01*
X427756Y545425D01*
X427765Y545477D01*
X427784Y545525D01*
X427787Y545597D01*
X427799Y545667D01*
X427792Y545719D01*
X427794Y545771D01*
X427774Y545840D01*
X427764Y545911D01*
X427740Y545957D01*
X427725Y546007D01*
X427685Y546066D01*
X427652Y546130D01*
X427615Y546167D01*
X427585Y546209D01*
X427528Y546252D01*
X427476Y546302D01*
X427414Y546337D01*
X427388Y546356D01*
X427366Y546363D01*
X427330Y546383D01*
X423933Y547790D01*
X420240Y551483D01*
X419373Y553576D01*
X419335Y553637D01*
X419306Y553702D01*
X419271Y553740D01*
X419244Y553785D01*
X419188Y553830D01*
X419140Y553883D01*
X419094Y553908D01*
X419054Y553941D01*
X418987Y553967D01*
X418924Y554002D01*
X418873Y554011D01*
X418825Y554030D01*
X418753Y554033D01*
X418682Y554045D01*
X418631Y554038D01*
X418579Y554040D01*
X418510Y554020D01*
X418439Y554010D01*
X418393Y553986D01*
X418343Y553972D01*
X418284Y553931D01*
X418220Y553898D01*
X418183Y553861D01*
X418141Y553831D01*
X418098Y553774D01*
X418048Y553723D01*
X418013Y553660D01*
X417994Y553634D01*
X417987Y553612D01*
X417967Y553576D01*
X417100Y551483D01*
X413407Y547790D01*
X410010Y546383D01*
X409950Y546345D01*
X409884Y546316D01*
X409846Y546281D01*
X409801Y546254D01*
X409756Y546198D01*
X409703Y546150D01*
X409678Y546104D01*
X409645Y546064D01*
X409619Y545997D01*
X409584Y545934D01*
X409575Y545883D01*
X409556Y545834D01*
X409553Y545763D01*
X409541Y545692D01*
X409548Y545641D01*
X409546Y545589D01*
X409566Y545520D01*
X409576Y545449D01*
X409600Y545403D01*
X409615Y545353D01*
X409655Y545294D01*
X409688Y545230D01*
X409725Y545193D01*
X409755Y545150D01*
X409812Y545108D01*
X409864Y545057D01*
X409926Y545023D01*
X409952Y545004D01*
X409974Y544996D01*
X410010Y544977D01*
X412842Y543804D01*
X416254Y540392D01*
X417967Y536257D01*
X418004Y536196D01*
X418034Y536130D01*
X418069Y536092D01*
X418096Y536047D01*
X418151Y536002D01*
X418200Y535949D01*
X418246Y535924D01*
X418286Y535891D01*
X418353Y535865D01*
X418416Y535830D01*
X418467Y535821D01*
X418515Y535802D01*
X418587Y535799D01*
X418658Y535787D01*
X418709Y535794D01*
G37*
G36*
X342939Y56274D02*
X342939Y56274D01*
X343042Y56277D01*
X343061Y56284D01*
X343081Y56286D01*
X343176Y56326D01*
X343273Y56362D01*
X343289Y56374D01*
X343307Y56382D01*
X343438Y56487D01*
X350260Y63308D01*
X350271Y63324D01*
X350287Y63337D01*
X350343Y63424D01*
X350403Y63508D01*
X350409Y63527D01*
X350420Y63544D01*
X350445Y63644D01*
X350476Y63743D01*
X350475Y63763D01*
X350480Y63782D01*
X350472Y63885D01*
X350469Y63989D01*
X350462Y64008D01*
X350461Y64027D01*
X350421Y64122D01*
X350385Y64220D01*
X350372Y64236D01*
X350365Y64254D01*
X350260Y64385D01*
X343438Y71206D01*
X343422Y71218D01*
X343410Y71233D01*
X343322Y71290D01*
X343239Y71350D01*
X343220Y71356D01*
X343203Y71366D01*
X343102Y71392D01*
X343003Y71422D01*
X342984Y71422D01*
X342964Y71427D01*
X342861Y71419D01*
X342758Y71416D01*
X342739Y71409D01*
X342719Y71407D01*
X342624Y71367D01*
X342527Y71331D01*
X342511Y71319D01*
X342493Y71311D01*
X342362Y71206D01*
X335540Y64385D01*
X335529Y64369D01*
X335513Y64356D01*
X335457Y64269D01*
X335397Y64185D01*
X335391Y64166D01*
X335380Y64149D01*
X335355Y64049D01*
X335324Y63950D01*
X335325Y63930D01*
X335320Y63911D01*
X335328Y63808D01*
X335331Y63704D01*
X335338Y63685D01*
X335339Y63665D01*
X335379Y63571D01*
X335415Y63473D01*
X335428Y63457D01*
X335435Y63439D01*
X335540Y63308D01*
X342362Y56487D01*
X342378Y56475D01*
X342390Y56459D01*
X342478Y56403D01*
X342561Y56343D01*
X342580Y56337D01*
X342597Y56326D01*
X342698Y56301D01*
X342797Y56271D01*
X342816Y56271D01*
X342836Y56266D01*
X342939Y56274D01*
G37*
G36*
X267085Y55928D02*
X267085Y55928D01*
X267189Y55931D01*
X267208Y55938D01*
X267227Y55939D01*
X267322Y55979D01*
X267420Y56015D01*
X267436Y56028D01*
X267454Y56035D01*
X267585Y56140D01*
X274406Y62962D01*
X274418Y62978D01*
X274433Y62990D01*
X274490Y63078D01*
X274550Y63161D01*
X274556Y63180D01*
X274566Y63197D01*
X274592Y63298D01*
X274622Y63397D01*
X274622Y63416D01*
X274627Y63436D01*
X274619Y63539D01*
X274616Y63642D01*
X274609Y63661D01*
X274607Y63681D01*
X274567Y63776D01*
X274531Y63873D01*
X274519Y63889D01*
X274511Y63907D01*
X274406Y64038D01*
X267585Y70860D01*
X267569Y70871D01*
X267556Y70887D01*
X267469Y70943D01*
X267385Y71003D01*
X267366Y71009D01*
X267349Y71020D01*
X267249Y71045D01*
X267150Y71076D01*
X267130Y71075D01*
X267111Y71080D01*
X267008Y71072D01*
X266904Y71069D01*
X266885Y71062D01*
X266865Y71061D01*
X266771Y71021D01*
X266673Y70985D01*
X266657Y70972D01*
X266639Y70965D01*
X266508Y70860D01*
X259687Y64038D01*
X259675Y64022D01*
X259659Y64010D01*
X259603Y63922D01*
X259543Y63839D01*
X259537Y63820D01*
X259526Y63803D01*
X259501Y63702D01*
X259471Y63603D01*
X259471Y63584D01*
X259466Y63564D01*
X259474Y63461D01*
X259477Y63358D01*
X259484Y63339D01*
X259486Y63319D01*
X259526Y63224D01*
X259562Y63127D01*
X259574Y63111D01*
X259582Y63093D01*
X259687Y62962D01*
X266508Y56140D01*
X266524Y56129D01*
X266537Y56113D01*
X266624Y56057D01*
X266708Y55997D01*
X266727Y55991D01*
X266744Y55980D01*
X266844Y55955D01*
X266943Y55924D01*
X266963Y55925D01*
X266982Y55920D01*
X267085Y55928D01*
G37*
G36*
X291433Y56287D02*
X291433Y56287D01*
X291537Y56290D01*
X291555Y56297D01*
X291575Y56298D01*
X291670Y56339D01*
X291768Y56374D01*
X291783Y56387D01*
X291802Y56395D01*
X291933Y56499D01*
X298754Y63321D01*
X298766Y63337D01*
X298781Y63350D01*
X298837Y63437D01*
X298898Y63521D01*
X298903Y63540D01*
X298914Y63556D01*
X298940Y63657D01*
X298970Y63756D01*
X298969Y63776D01*
X298974Y63795D01*
X298966Y63898D01*
X298964Y64002D01*
X298957Y64020D01*
X298955Y64040D01*
X298915Y64135D01*
X298879Y64233D01*
X298867Y64248D01*
X298859Y64267D01*
X298754Y64398D01*
X292292Y70860D01*
X292276Y70871D01*
X292263Y70887D01*
X292176Y70943D01*
X292092Y71003D01*
X292073Y71009D01*
X292056Y71020D01*
X291956Y71045D01*
X291857Y71076D01*
X291837Y71075D01*
X291818Y71080D01*
X291715Y71072D01*
X291611Y71069D01*
X291592Y71062D01*
X291573Y71061D01*
X291478Y71021D01*
X291380Y70985D01*
X291364Y70972D01*
X291346Y70965D01*
X291215Y70860D01*
X284394Y64038D01*
X284382Y64022D01*
X284367Y64010D01*
X284310Y63922D01*
X284250Y63839D01*
X284244Y63820D01*
X284234Y63803D01*
X284208Y63702D01*
X284178Y63603D01*
X284178Y63584D01*
X284173Y63564D01*
X284181Y63461D01*
X284184Y63358D01*
X284191Y63339D01*
X284193Y63319D01*
X284233Y63224D01*
X284269Y63127D01*
X284281Y63111D01*
X284289Y63093D01*
X284394Y62962D01*
X290856Y56499D01*
X290872Y56488D01*
X290885Y56472D01*
X290972Y56416D01*
X291056Y56356D01*
X291075Y56350D01*
X291092Y56339D01*
X291192Y56314D01*
X291291Y56283D01*
X291311Y56284D01*
X291330Y56279D01*
X291433Y56287D01*
G37*
G36*
X317898Y56634D02*
X317898Y56634D01*
X318002Y56636D01*
X318020Y56643D01*
X318040Y56645D01*
X318135Y56685D01*
X318233Y56721D01*
X318248Y56733D01*
X318267Y56741D01*
X318398Y56846D01*
X324860Y63308D01*
X324871Y63324D01*
X324887Y63337D01*
X324943Y63424D01*
X325003Y63508D01*
X325009Y63527D01*
X325020Y63544D01*
X325045Y63644D01*
X325076Y63743D01*
X325075Y63763D01*
X325080Y63782D01*
X325072Y63885D01*
X325069Y63989D01*
X325062Y64008D01*
X325061Y64027D01*
X325021Y64122D01*
X324985Y64220D01*
X324972Y64236D01*
X324965Y64254D01*
X324860Y64385D01*
X318385Y70860D01*
X318369Y70871D01*
X318356Y70887D01*
X318269Y70943D01*
X318185Y71003D01*
X318166Y71009D01*
X318149Y71020D01*
X318049Y71045D01*
X317950Y71076D01*
X317930Y71075D01*
X317911Y71080D01*
X317808Y71072D01*
X317704Y71069D01*
X317685Y71062D01*
X317665Y71061D01*
X317571Y71021D01*
X317473Y70985D01*
X317457Y70972D01*
X317439Y70965D01*
X317308Y70860D01*
X310846Y64398D01*
X310834Y64381D01*
X310819Y64369D01*
X310763Y64282D01*
X310702Y64198D01*
X310697Y64179D01*
X310686Y64162D01*
X310660Y64061D01*
X310630Y63963D01*
X310631Y63943D01*
X310626Y63923D01*
X310634Y63820D01*
X310636Y63717D01*
X310643Y63698D01*
X310645Y63678D01*
X310685Y63583D01*
X310721Y63486D01*
X310733Y63470D01*
X310741Y63452D01*
X310846Y63321D01*
X317321Y56846D01*
X317337Y56834D01*
X317350Y56819D01*
X317437Y56763D01*
X317521Y56702D01*
X317540Y56697D01*
X317556Y56686D01*
X317657Y56660D01*
X317756Y56630D01*
X317776Y56631D01*
X317795Y56626D01*
X317898Y56634D01*
G37*
%LPC*%
G36*
X357123Y38179D02*
X357123Y38179D01*
X357123Y49277D01*
X368221Y49277D01*
X368221Y45572D01*
X360828Y38179D01*
X357123Y38179D01*
G37*
%LPD*%
%LPC*%
G36*
X403015Y89410D02*
X403015Y89410D01*
X401125Y90024D01*
X399355Y90926D01*
X397748Y92093D01*
X396343Y93498D01*
X395176Y95105D01*
X394274Y96875D01*
X393660Y98765D01*
X393433Y100197D01*
X404447Y100197D01*
X404447Y89183D01*
X403015Y89410D01*
G37*
%LPD*%
G36*
X418709Y563802D02*
X418709Y563802D01*
X418761Y563800D01*
X418830Y563820D01*
X418901Y563830D01*
X418947Y563854D01*
X418997Y563868D01*
X419056Y563909D01*
X419120Y563942D01*
X419157Y563979D01*
X419199Y564009D01*
X419242Y564066D01*
X419292Y564117D01*
X419327Y564180D01*
X419346Y564206D01*
X419353Y564228D01*
X419373Y564264D01*
X420240Y566357D01*
X423933Y570050D01*
X426026Y570917D01*
X426087Y570955D01*
X426152Y570984D01*
X426190Y571019D01*
X426235Y571046D01*
X426280Y571102D01*
X426333Y571150D01*
X426358Y571196D01*
X426391Y571236D01*
X426417Y571303D01*
X426452Y571366D01*
X426461Y571417D01*
X426480Y571465D01*
X426483Y571537D01*
X426495Y571608D01*
X426488Y571659D01*
X426490Y571711D01*
X426470Y571780D01*
X426460Y571851D01*
X426436Y571897D01*
X426422Y571947D01*
X426381Y572006D01*
X426348Y572070D01*
X426311Y572107D01*
X426281Y572149D01*
X426224Y572192D01*
X426173Y572242D01*
X426110Y572277D01*
X426084Y572296D01*
X426062Y572303D01*
X426026Y572323D01*
X423933Y573190D01*
X420240Y576883D01*
X419565Y578512D01*
X419514Y578595D01*
X419468Y578681D01*
X419450Y578699D01*
X419436Y578721D01*
X419360Y578783D01*
X419290Y578850D01*
X419266Y578861D01*
X419246Y578878D01*
X419155Y578913D01*
X419067Y578954D01*
X419041Y578957D01*
X419017Y578966D01*
X418919Y578970D01*
X418823Y578981D01*
X418797Y578975D01*
X418771Y578977D01*
X418677Y578949D01*
X418582Y578929D01*
X418560Y578915D01*
X418535Y578908D01*
X418455Y578853D01*
X418371Y578803D01*
X418354Y578783D01*
X418333Y578768D01*
X418274Y578690D01*
X418211Y578616D01*
X418201Y578591D01*
X418186Y578570D01*
X418156Y578478D01*
X418119Y578388D01*
X418116Y578355D01*
X418110Y578337D01*
X418110Y578304D01*
X418101Y578221D01*
X418101Y573391D01*
X416899Y572189D01*
X412069Y572189D01*
X411973Y572174D01*
X411876Y572164D01*
X411852Y572154D01*
X411826Y572150D01*
X411740Y572104D01*
X411651Y572064D01*
X411632Y572047D01*
X411609Y572034D01*
X411542Y571964D01*
X411470Y571898D01*
X411458Y571875D01*
X411440Y571856D01*
X411399Y571768D01*
X411352Y571682D01*
X411347Y571657D01*
X411336Y571633D01*
X411325Y571536D01*
X411308Y571440D01*
X411312Y571414D01*
X411309Y571389D01*
X411330Y571293D01*
X411344Y571197D01*
X411356Y571174D01*
X411361Y571148D01*
X411411Y571065D01*
X411455Y570978D01*
X411474Y570959D01*
X411487Y570937D01*
X411561Y570874D01*
X411631Y570806D01*
X411660Y570790D01*
X411674Y570777D01*
X411705Y570765D01*
X411778Y570725D01*
X413407Y570050D01*
X417100Y566357D01*
X417967Y564264D01*
X418005Y564203D01*
X418034Y564138D01*
X418069Y564100D01*
X418096Y564055D01*
X418152Y564010D01*
X418200Y563957D01*
X418246Y563932D01*
X418286Y563899D01*
X418353Y563873D01*
X418416Y563838D01*
X418467Y563829D01*
X418515Y563810D01*
X418587Y563807D01*
X418658Y563795D01*
X418709Y563802D01*
G37*
%LPC*%
G36*
X204723Y509523D02*
X204723Y509523D01*
X204723Y519685D01*
X208040Y519685D01*
X214885Y512840D01*
X214885Y509523D01*
X204723Y509523D01*
G37*
%LPD*%
%LPC*%
G36*
X204723Y204723D02*
X204723Y204723D01*
X204723Y214885D01*
X208040Y214885D01*
X214885Y208040D01*
X214885Y204723D01*
X204723Y204723D01*
G37*
%LPD*%
%LPC*%
G36*
X268223Y560323D02*
X268223Y560323D01*
X268223Y570485D01*
X271540Y570485D01*
X278385Y563640D01*
X278385Y560323D01*
X268223Y560323D01*
G37*
%LPD*%
%LPC*%
G36*
X204723Y230123D02*
X204723Y230123D01*
X204723Y240285D01*
X208040Y240285D01*
X214885Y233440D01*
X214885Y230123D01*
X204723Y230123D01*
G37*
%LPD*%
%LPC*%
G36*
X204723Y255523D02*
X204723Y255523D01*
X204723Y265685D01*
X208040Y265685D01*
X214885Y258840D01*
X214885Y255523D01*
X204723Y255523D01*
G37*
%LPD*%
%LPC*%
G36*
X204723Y179323D02*
X204723Y179323D01*
X204723Y189485D01*
X208040Y189485D01*
X214885Y182640D01*
X214885Y179323D01*
X204723Y179323D01*
G37*
%LPD*%
%LPC*%
G36*
X306323Y560323D02*
X306323Y560323D01*
X306323Y570485D01*
X309640Y570485D01*
X316485Y563640D01*
X316485Y560323D01*
X306323Y560323D01*
G37*
%LPD*%
%LPC*%
G36*
X255015Y560323D02*
X255015Y560323D01*
X255015Y563640D01*
X261860Y570485D01*
X265177Y570485D01*
X265177Y560323D01*
X255015Y560323D01*
G37*
%LPD*%
%LPC*%
G36*
X293115Y560323D02*
X293115Y560323D01*
X293115Y563640D01*
X299960Y570485D01*
X303277Y570485D01*
X303277Y560323D01*
X293115Y560323D01*
G37*
%LPD*%
%LPC*%
G36*
X204723Y166115D02*
X204723Y166115D01*
X204723Y176277D01*
X214885Y176277D01*
X214885Y172960D01*
X208040Y166115D01*
X204723Y166115D01*
G37*
%LPD*%
%LPC*%
G36*
X306323Y547115D02*
X306323Y547115D01*
X306323Y557277D01*
X316485Y557277D01*
X316485Y553960D01*
X309640Y547115D01*
X306323Y547115D01*
G37*
%LPD*%
%LPC*%
G36*
X204723Y242315D02*
X204723Y242315D01*
X204723Y252477D01*
X214885Y252477D01*
X214885Y249160D01*
X208040Y242315D01*
X204723Y242315D01*
G37*
%LPD*%
%LPC*%
G36*
X204723Y191515D02*
X204723Y191515D01*
X204723Y201677D01*
X214885Y201677D01*
X214885Y198360D01*
X208040Y191515D01*
X204723Y191515D01*
G37*
%LPD*%
%LPC*%
G36*
X204723Y496315D02*
X204723Y496315D01*
X204723Y506477D01*
X214885Y506477D01*
X214885Y503160D01*
X208040Y496315D01*
X204723Y496315D01*
G37*
%LPD*%
%LPC*%
G36*
X268223Y547115D02*
X268223Y547115D01*
X268223Y557277D01*
X278385Y557277D01*
X278385Y553960D01*
X271540Y547115D01*
X268223Y547115D01*
G37*
%LPD*%
%LPC*%
G36*
X204723Y216915D02*
X204723Y216915D01*
X204723Y227077D01*
X214885Y227077D01*
X214885Y223760D01*
X208040Y216915D01*
X204723Y216915D01*
G37*
%LPD*%
%LPC*%
G36*
X261860Y547115D02*
X261860Y547115D01*
X255015Y553960D01*
X255015Y557277D01*
X265177Y557277D01*
X265177Y547115D01*
X261860Y547115D01*
G37*
%LPD*%
%LPC*%
G36*
X299960Y547115D02*
X299960Y547115D01*
X293115Y553960D01*
X293115Y557277D01*
X303277Y557277D01*
X303277Y547115D01*
X299960Y547115D01*
G37*
%LPD*%
G36*
X254782Y50804D02*
X254782Y50804D01*
X254801Y50802D01*
X254903Y50824D01*
X255005Y50841D01*
X255022Y50850D01*
X255042Y50854D01*
X255131Y50907D01*
X255222Y50956D01*
X255236Y50970D01*
X255253Y50980D01*
X255320Y51059D01*
X255391Y51134D01*
X255400Y51152D01*
X255413Y51167D01*
X255452Y51263D01*
X255495Y51357D01*
X255497Y51377D01*
X255505Y51395D01*
X255523Y51562D01*
X255523Y75438D01*
X255520Y75458D01*
X255522Y75477D01*
X255500Y75579D01*
X255483Y75681D01*
X255474Y75698D01*
X255470Y75718D01*
X255417Y75807D01*
X255368Y75898D01*
X255354Y75912D01*
X255344Y75929D01*
X255265Y75996D01*
X255190Y76067D01*
X255172Y76076D01*
X255157Y76089D01*
X255061Y76127D01*
X254967Y76171D01*
X254947Y76173D01*
X254929Y76181D01*
X254762Y76199D01*
X253238Y76199D01*
X253218Y76196D01*
X253199Y76198D01*
X253097Y76176D01*
X252995Y76159D01*
X252978Y76150D01*
X252958Y76146D01*
X252869Y76093D01*
X252778Y76044D01*
X252764Y76030D01*
X252747Y76020D01*
X252680Y75941D01*
X252609Y75866D01*
X252600Y75848D01*
X252587Y75833D01*
X252548Y75737D01*
X252505Y75643D01*
X252503Y75623D01*
X252495Y75605D01*
X252477Y75438D01*
X252477Y51562D01*
X252480Y51542D01*
X252478Y51523D01*
X252500Y51421D01*
X252517Y51319D01*
X252526Y51302D01*
X252530Y51282D01*
X252583Y51193D01*
X252632Y51102D01*
X252646Y51088D01*
X252656Y51071D01*
X252735Y51004D01*
X252810Y50933D01*
X252828Y50924D01*
X252843Y50911D01*
X252939Y50873D01*
X253033Y50829D01*
X253053Y50827D01*
X253071Y50819D01*
X253238Y50801D01*
X254762Y50801D01*
X254782Y50804D01*
G37*
G36*
X443043Y436829D02*
X443043Y436829D01*
X443069Y436828D01*
X443163Y436855D01*
X443258Y436876D01*
X443280Y436890D01*
X443305Y436897D01*
X443385Y436952D01*
X443469Y437002D01*
X443486Y437022D01*
X443507Y437037D01*
X443566Y437115D01*
X443629Y437189D01*
X443639Y437214D01*
X443654Y437234D01*
X443684Y437327D01*
X443721Y437417D01*
X443724Y437450D01*
X443730Y437468D01*
X443730Y437501D01*
X443739Y437584D01*
X443739Y451656D01*
X443737Y451672D01*
X443738Y451688D01*
X443723Y451758D01*
X443714Y451849D01*
X443704Y451873D01*
X443700Y451899D01*
X443687Y451922D01*
X443686Y451928D01*
X443668Y451958D01*
X443654Y451985D01*
X443614Y452074D01*
X443597Y452093D01*
X443584Y452116D01*
X443514Y452183D01*
X443448Y452255D01*
X443425Y452267D01*
X443406Y452285D01*
X443318Y452326D01*
X443232Y452373D01*
X443207Y452378D01*
X443183Y452389D01*
X443086Y452400D01*
X442990Y452417D01*
X442964Y452413D01*
X442939Y452416D01*
X442843Y452395D01*
X442747Y452381D01*
X442724Y452369D01*
X442698Y452364D01*
X442615Y452314D01*
X442528Y452270D01*
X442509Y452251D01*
X442487Y452238D01*
X442424Y452164D01*
X442356Y452094D01*
X442346Y452077D01*
X442345Y452076D01*
X442343Y452071D01*
X442340Y452066D01*
X442327Y452051D01*
X442315Y452020D01*
X442275Y451947D01*
X441654Y450448D01*
X438242Y447036D01*
X434107Y445323D01*
X434046Y445286D01*
X433980Y445256D01*
X433942Y445221D01*
X433897Y445194D01*
X433852Y445139D01*
X433799Y445090D01*
X433774Y445044D01*
X433741Y445004D01*
X433715Y444937D01*
X433680Y444874D01*
X433671Y444823D01*
X433652Y444775D01*
X433649Y444703D01*
X433637Y444632D01*
X433644Y444581D01*
X433642Y444529D01*
X433662Y444460D01*
X433672Y444389D01*
X433696Y444343D01*
X433711Y444293D01*
X433751Y444234D01*
X433784Y444170D01*
X433821Y444133D01*
X433851Y444091D01*
X433908Y444048D01*
X433960Y443998D01*
X434022Y443963D01*
X434048Y443944D01*
X434070Y443937D01*
X434107Y443917D01*
X438242Y442204D01*
X441654Y438792D01*
X442275Y437293D01*
X442326Y437210D01*
X442372Y437124D01*
X442390Y437106D01*
X442404Y437084D01*
X442480Y437021D01*
X442550Y436955D01*
X442574Y436944D01*
X442594Y436927D01*
X442685Y436892D01*
X442773Y436851D01*
X442799Y436848D01*
X442823Y436839D01*
X442921Y436835D01*
X443017Y436824D01*
X443043Y436829D01*
G37*
G36*
X443043Y309829D02*
X443043Y309829D01*
X443069Y309828D01*
X443163Y309855D01*
X443258Y309876D01*
X443280Y309890D01*
X443305Y309897D01*
X443385Y309952D01*
X443469Y310002D01*
X443486Y310022D01*
X443507Y310037D01*
X443566Y310115D01*
X443629Y310189D01*
X443639Y310213D01*
X443654Y310234D01*
X443684Y310327D01*
X443721Y310417D01*
X443724Y310450D01*
X443730Y310468D01*
X443730Y310501D01*
X443739Y310584D01*
X443739Y324656D01*
X443724Y324752D01*
X443714Y324849D01*
X443704Y324873D01*
X443700Y324899D01*
X443654Y324985D01*
X443614Y325074D01*
X443597Y325093D01*
X443584Y325116D01*
X443514Y325183D01*
X443448Y325255D01*
X443425Y325267D01*
X443406Y325285D01*
X443318Y325326D01*
X443232Y325373D01*
X443207Y325378D01*
X443183Y325389D01*
X443086Y325400D01*
X442990Y325417D01*
X442964Y325413D01*
X442939Y325416D01*
X442843Y325395D01*
X442747Y325381D01*
X442724Y325369D01*
X442698Y325364D01*
X442615Y325314D01*
X442528Y325270D01*
X442509Y325251D01*
X442487Y325238D01*
X442424Y325164D01*
X442356Y325094D01*
X442340Y325066D01*
X442327Y325051D01*
X442315Y325020D01*
X442275Y324947D01*
X441654Y323448D01*
X438242Y320036D01*
X434107Y318323D01*
X434045Y318285D01*
X433980Y318256D01*
X433942Y318221D01*
X433897Y318194D01*
X433852Y318138D01*
X433799Y318090D01*
X433774Y318044D01*
X433741Y318004D01*
X433715Y317937D01*
X433680Y317874D01*
X433671Y317823D01*
X433652Y317775D01*
X433649Y317703D01*
X433637Y317632D01*
X433644Y317581D01*
X433642Y317529D01*
X433662Y317460D01*
X433672Y317389D01*
X433696Y317343D01*
X433711Y317293D01*
X433751Y317234D01*
X433784Y317170D01*
X433821Y317133D01*
X433851Y317091D01*
X433908Y317048D01*
X433960Y316998D01*
X434022Y316963D01*
X434048Y316944D01*
X434070Y316937D01*
X434107Y316917D01*
X438242Y315204D01*
X441654Y311792D01*
X442275Y310293D01*
X442326Y310210D01*
X442372Y310124D01*
X442390Y310106D01*
X442404Y310084D01*
X442480Y310021D01*
X442550Y309955D01*
X442574Y309944D01*
X442594Y309927D01*
X442685Y309892D01*
X442773Y309851D01*
X442799Y309848D01*
X442823Y309839D01*
X442921Y309835D01*
X443017Y309824D01*
X443043Y309829D01*
G37*
G36*
X443043Y233629D02*
X443043Y233629D01*
X443069Y233628D01*
X443163Y233655D01*
X443258Y233676D01*
X443280Y233690D01*
X443305Y233697D01*
X443385Y233752D01*
X443469Y233802D01*
X443486Y233822D01*
X443507Y233837D01*
X443566Y233915D01*
X443629Y233989D01*
X443639Y234013D01*
X443654Y234034D01*
X443684Y234127D01*
X443721Y234217D01*
X443724Y234250D01*
X443730Y234268D01*
X443730Y234301D01*
X443739Y234384D01*
X443739Y248456D01*
X443724Y248552D01*
X443714Y248649D01*
X443704Y248673D01*
X443700Y248699D01*
X443654Y248785D01*
X443614Y248874D01*
X443597Y248893D01*
X443584Y248916D01*
X443514Y248983D01*
X443448Y249055D01*
X443425Y249067D01*
X443406Y249085D01*
X443318Y249126D01*
X443232Y249173D01*
X443207Y249178D01*
X443183Y249189D01*
X443086Y249200D01*
X442990Y249217D01*
X442964Y249213D01*
X442939Y249216D01*
X442843Y249195D01*
X442747Y249181D01*
X442724Y249169D01*
X442698Y249164D01*
X442615Y249114D01*
X442528Y249070D01*
X442509Y249051D01*
X442487Y249038D01*
X442424Y248964D01*
X442356Y248894D01*
X442340Y248866D01*
X442327Y248851D01*
X442315Y248820D01*
X442275Y248747D01*
X441654Y247248D01*
X438242Y243836D01*
X434107Y242123D01*
X434045Y242085D01*
X433980Y242056D01*
X433942Y242021D01*
X433897Y241994D01*
X433852Y241938D01*
X433799Y241890D01*
X433774Y241844D01*
X433741Y241804D01*
X433715Y241737D01*
X433680Y241674D01*
X433671Y241623D01*
X433652Y241575D01*
X433649Y241503D01*
X433637Y241432D01*
X433644Y241381D01*
X433642Y241329D01*
X433662Y241260D01*
X433672Y241189D01*
X433696Y241143D01*
X433711Y241093D01*
X433751Y241034D01*
X433784Y240970D01*
X433821Y240933D01*
X433851Y240891D01*
X433908Y240848D01*
X433960Y240798D01*
X434022Y240763D01*
X434048Y240744D01*
X434070Y240737D01*
X434107Y240717D01*
X438242Y239004D01*
X441654Y235592D01*
X442275Y234093D01*
X442326Y234010D01*
X442372Y233924D01*
X442390Y233906D01*
X442404Y233884D01*
X442480Y233821D01*
X442550Y233755D01*
X442574Y233744D01*
X442594Y233727D01*
X442685Y233692D01*
X442773Y233651D01*
X442799Y233648D01*
X442823Y233639D01*
X442921Y233635D01*
X443017Y233624D01*
X443043Y233629D01*
G37*
G36*
X443043Y208229D02*
X443043Y208229D01*
X443069Y208228D01*
X443163Y208255D01*
X443258Y208276D01*
X443280Y208290D01*
X443305Y208297D01*
X443385Y208352D01*
X443469Y208402D01*
X443486Y208422D01*
X443507Y208437D01*
X443566Y208515D01*
X443629Y208589D01*
X443639Y208613D01*
X443654Y208634D01*
X443684Y208727D01*
X443721Y208817D01*
X443724Y208850D01*
X443730Y208868D01*
X443730Y208901D01*
X443739Y208984D01*
X443739Y223056D01*
X443724Y223152D01*
X443714Y223249D01*
X443704Y223273D01*
X443700Y223299D01*
X443654Y223385D01*
X443614Y223474D01*
X443597Y223493D01*
X443584Y223516D01*
X443514Y223583D01*
X443448Y223655D01*
X443425Y223667D01*
X443406Y223685D01*
X443318Y223726D01*
X443232Y223773D01*
X443207Y223778D01*
X443183Y223789D01*
X443086Y223800D01*
X442990Y223817D01*
X442964Y223813D01*
X442939Y223816D01*
X442843Y223795D01*
X442747Y223781D01*
X442724Y223769D01*
X442698Y223764D01*
X442615Y223714D01*
X442528Y223670D01*
X442509Y223651D01*
X442487Y223638D01*
X442424Y223564D01*
X442356Y223494D01*
X442340Y223466D01*
X442327Y223451D01*
X442315Y223420D01*
X442275Y223347D01*
X441654Y221848D01*
X438242Y218436D01*
X434107Y216723D01*
X434045Y216685D01*
X433980Y216656D01*
X433942Y216621D01*
X433897Y216594D01*
X433852Y216538D01*
X433799Y216490D01*
X433774Y216444D01*
X433741Y216404D01*
X433715Y216337D01*
X433680Y216274D01*
X433671Y216223D01*
X433652Y216175D01*
X433649Y216103D01*
X433637Y216032D01*
X433644Y215981D01*
X433642Y215929D01*
X433662Y215860D01*
X433672Y215789D01*
X433696Y215743D01*
X433711Y215693D01*
X433751Y215634D01*
X433784Y215570D01*
X433821Y215533D01*
X433851Y215491D01*
X433908Y215448D01*
X433960Y215398D01*
X434022Y215363D01*
X434048Y215344D01*
X434070Y215337D01*
X434107Y215317D01*
X438242Y213604D01*
X441654Y210192D01*
X442275Y208693D01*
X442326Y208610D01*
X442372Y208524D01*
X442390Y208506D01*
X442404Y208484D01*
X442480Y208421D01*
X442550Y208355D01*
X442574Y208344D01*
X442594Y208327D01*
X442685Y208292D01*
X442773Y208251D01*
X442799Y208248D01*
X442823Y208239D01*
X442921Y208235D01*
X443017Y208224D01*
X443043Y208229D01*
G37*
G36*
X443043Y259029D02*
X443043Y259029D01*
X443069Y259028D01*
X443163Y259055D01*
X443258Y259076D01*
X443280Y259090D01*
X443305Y259097D01*
X443385Y259152D01*
X443469Y259202D01*
X443486Y259222D01*
X443507Y259237D01*
X443566Y259315D01*
X443629Y259389D01*
X443639Y259413D01*
X443654Y259434D01*
X443684Y259527D01*
X443721Y259617D01*
X443724Y259650D01*
X443730Y259668D01*
X443730Y259701D01*
X443739Y259784D01*
X443739Y273856D01*
X443724Y273952D01*
X443714Y274049D01*
X443704Y274073D01*
X443700Y274099D01*
X443654Y274185D01*
X443614Y274274D01*
X443597Y274293D01*
X443584Y274316D01*
X443514Y274383D01*
X443448Y274455D01*
X443425Y274467D01*
X443406Y274485D01*
X443318Y274526D01*
X443232Y274573D01*
X443207Y274578D01*
X443183Y274589D01*
X443086Y274600D01*
X442990Y274617D01*
X442964Y274613D01*
X442939Y274616D01*
X442843Y274595D01*
X442747Y274581D01*
X442724Y274569D01*
X442698Y274564D01*
X442615Y274514D01*
X442528Y274470D01*
X442509Y274451D01*
X442487Y274438D01*
X442424Y274364D01*
X442356Y274294D01*
X442340Y274266D01*
X442327Y274251D01*
X442315Y274220D01*
X442275Y274147D01*
X441654Y272648D01*
X438242Y269236D01*
X434107Y267523D01*
X434045Y267485D01*
X433980Y267456D01*
X433942Y267421D01*
X433897Y267394D01*
X433852Y267338D01*
X433799Y267290D01*
X433774Y267244D01*
X433741Y267204D01*
X433715Y267137D01*
X433680Y267074D01*
X433671Y267023D01*
X433652Y266975D01*
X433649Y266903D01*
X433637Y266832D01*
X433644Y266781D01*
X433642Y266729D01*
X433662Y266660D01*
X433672Y266589D01*
X433696Y266543D01*
X433711Y266493D01*
X433751Y266434D01*
X433784Y266370D01*
X433821Y266333D01*
X433851Y266291D01*
X433908Y266248D01*
X433960Y266198D01*
X434022Y266163D01*
X434048Y266144D01*
X434070Y266137D01*
X434107Y266117D01*
X438242Y264404D01*
X441654Y260992D01*
X442275Y259493D01*
X442326Y259410D01*
X442372Y259324D01*
X442390Y259306D01*
X442404Y259284D01*
X442480Y259221D01*
X442550Y259155D01*
X442574Y259144D01*
X442594Y259127D01*
X442685Y259092D01*
X442773Y259051D01*
X442799Y259048D01*
X442823Y259039D01*
X442921Y259035D01*
X443017Y259024D01*
X443043Y259029D01*
G37*
G36*
X443043Y284429D02*
X443043Y284429D01*
X443069Y284428D01*
X443163Y284455D01*
X443258Y284476D01*
X443280Y284490D01*
X443305Y284497D01*
X443385Y284552D01*
X443469Y284602D01*
X443486Y284622D01*
X443507Y284637D01*
X443566Y284715D01*
X443629Y284789D01*
X443639Y284813D01*
X443654Y284834D01*
X443684Y284927D01*
X443721Y285017D01*
X443724Y285050D01*
X443730Y285068D01*
X443730Y285101D01*
X443739Y285184D01*
X443739Y299256D01*
X443724Y299352D01*
X443714Y299449D01*
X443704Y299473D01*
X443700Y299499D01*
X443654Y299585D01*
X443614Y299674D01*
X443597Y299693D01*
X443584Y299716D01*
X443514Y299783D01*
X443448Y299855D01*
X443425Y299867D01*
X443406Y299885D01*
X443318Y299926D01*
X443232Y299973D01*
X443207Y299978D01*
X443183Y299989D01*
X443086Y300000D01*
X442990Y300017D01*
X442964Y300013D01*
X442939Y300016D01*
X442843Y299995D01*
X442747Y299981D01*
X442724Y299969D01*
X442698Y299964D01*
X442615Y299914D01*
X442528Y299870D01*
X442509Y299851D01*
X442487Y299838D01*
X442424Y299764D01*
X442356Y299694D01*
X442340Y299666D01*
X442327Y299651D01*
X442315Y299620D01*
X442275Y299547D01*
X441654Y298048D01*
X438242Y294636D01*
X434107Y292923D01*
X434045Y292885D01*
X433980Y292856D01*
X433942Y292821D01*
X433897Y292794D01*
X433852Y292738D01*
X433799Y292690D01*
X433774Y292644D01*
X433741Y292604D01*
X433715Y292537D01*
X433680Y292474D01*
X433671Y292423D01*
X433652Y292375D01*
X433649Y292303D01*
X433637Y292232D01*
X433644Y292181D01*
X433642Y292129D01*
X433662Y292060D01*
X433672Y291989D01*
X433696Y291943D01*
X433711Y291893D01*
X433751Y291834D01*
X433784Y291770D01*
X433821Y291733D01*
X433851Y291691D01*
X433908Y291648D01*
X433960Y291598D01*
X434022Y291563D01*
X434048Y291544D01*
X434070Y291537D01*
X434107Y291517D01*
X438242Y289804D01*
X441654Y286392D01*
X442275Y284893D01*
X442326Y284810D01*
X442372Y284724D01*
X442390Y284706D01*
X442404Y284684D01*
X442480Y284621D01*
X442550Y284555D01*
X442574Y284544D01*
X442594Y284527D01*
X442685Y284492D01*
X442773Y284451D01*
X442799Y284448D01*
X442823Y284439D01*
X442921Y284435D01*
X443017Y284424D01*
X443043Y284429D01*
G37*
G36*
X443043Y335229D02*
X443043Y335229D01*
X443069Y335228D01*
X443163Y335255D01*
X443258Y335276D01*
X443280Y335290D01*
X443305Y335297D01*
X443385Y335352D01*
X443469Y335402D01*
X443486Y335422D01*
X443507Y335437D01*
X443566Y335515D01*
X443629Y335589D01*
X443639Y335613D01*
X443654Y335634D01*
X443684Y335727D01*
X443721Y335817D01*
X443724Y335850D01*
X443730Y335868D01*
X443730Y335901D01*
X443739Y335984D01*
X443739Y350056D01*
X443724Y350152D01*
X443714Y350249D01*
X443704Y350273D01*
X443700Y350299D01*
X443654Y350385D01*
X443614Y350474D01*
X443597Y350493D01*
X443584Y350516D01*
X443514Y350583D01*
X443448Y350655D01*
X443425Y350667D01*
X443406Y350685D01*
X443318Y350726D01*
X443232Y350773D01*
X443207Y350778D01*
X443183Y350789D01*
X443086Y350800D01*
X442990Y350817D01*
X442964Y350813D01*
X442939Y350816D01*
X442843Y350795D01*
X442747Y350781D01*
X442724Y350769D01*
X442698Y350764D01*
X442615Y350714D01*
X442528Y350670D01*
X442509Y350651D01*
X442487Y350638D01*
X442424Y350564D01*
X442356Y350494D01*
X442340Y350466D01*
X442327Y350451D01*
X442315Y350420D01*
X442275Y350347D01*
X441654Y348848D01*
X438242Y345436D01*
X434107Y343723D01*
X434045Y343685D01*
X433980Y343656D01*
X433942Y343621D01*
X433897Y343594D01*
X433852Y343538D01*
X433799Y343490D01*
X433774Y343444D01*
X433741Y343404D01*
X433715Y343337D01*
X433680Y343274D01*
X433671Y343223D01*
X433652Y343175D01*
X433649Y343103D01*
X433637Y343032D01*
X433644Y342981D01*
X433642Y342929D01*
X433662Y342860D01*
X433672Y342789D01*
X433696Y342743D01*
X433711Y342693D01*
X433751Y342634D01*
X433784Y342570D01*
X433821Y342533D01*
X433851Y342491D01*
X433908Y342448D01*
X433960Y342398D01*
X434022Y342363D01*
X434048Y342344D01*
X434070Y342337D01*
X434107Y342317D01*
X438242Y340604D01*
X441654Y337192D01*
X442275Y335693D01*
X442326Y335610D01*
X442372Y335524D01*
X442390Y335506D01*
X442404Y335484D01*
X442480Y335421D01*
X442550Y335355D01*
X442574Y335344D01*
X442594Y335327D01*
X442685Y335292D01*
X442773Y335251D01*
X442799Y335248D01*
X442823Y335239D01*
X442921Y335235D01*
X443017Y335224D01*
X443043Y335229D01*
G37*
G36*
X443043Y360629D02*
X443043Y360629D01*
X443069Y360628D01*
X443163Y360655D01*
X443258Y360676D01*
X443280Y360690D01*
X443305Y360697D01*
X443385Y360752D01*
X443469Y360802D01*
X443486Y360822D01*
X443507Y360837D01*
X443566Y360915D01*
X443629Y360989D01*
X443639Y361013D01*
X443654Y361034D01*
X443684Y361127D01*
X443721Y361217D01*
X443724Y361250D01*
X443730Y361268D01*
X443730Y361301D01*
X443739Y361384D01*
X443739Y375456D01*
X443724Y375552D01*
X443714Y375649D01*
X443704Y375673D01*
X443700Y375699D01*
X443654Y375785D01*
X443614Y375874D01*
X443597Y375893D01*
X443584Y375916D01*
X443514Y375983D01*
X443448Y376055D01*
X443425Y376067D01*
X443406Y376085D01*
X443318Y376126D01*
X443232Y376173D01*
X443207Y376178D01*
X443183Y376189D01*
X443086Y376200D01*
X442990Y376217D01*
X442964Y376213D01*
X442939Y376216D01*
X442843Y376195D01*
X442747Y376181D01*
X442724Y376169D01*
X442698Y376164D01*
X442615Y376114D01*
X442528Y376070D01*
X442509Y376051D01*
X442487Y376038D01*
X442424Y375964D01*
X442356Y375894D01*
X442340Y375866D01*
X442327Y375851D01*
X442315Y375820D01*
X442275Y375747D01*
X441654Y374248D01*
X438242Y370836D01*
X434107Y369123D01*
X434045Y369085D01*
X433980Y369056D01*
X433942Y369021D01*
X433897Y368994D01*
X433852Y368938D01*
X433799Y368890D01*
X433774Y368844D01*
X433741Y368804D01*
X433715Y368737D01*
X433680Y368674D01*
X433671Y368623D01*
X433652Y368575D01*
X433649Y368503D01*
X433637Y368432D01*
X433644Y368381D01*
X433642Y368329D01*
X433662Y368260D01*
X433672Y368189D01*
X433696Y368143D01*
X433711Y368093D01*
X433751Y368034D01*
X433784Y367970D01*
X433821Y367933D01*
X433851Y367891D01*
X433908Y367848D01*
X433960Y367798D01*
X434022Y367763D01*
X434048Y367744D01*
X434070Y367737D01*
X434107Y367717D01*
X438242Y366004D01*
X441654Y362592D01*
X442275Y361093D01*
X442326Y361010D01*
X442372Y360924D01*
X442390Y360906D01*
X442404Y360884D01*
X442480Y360821D01*
X442550Y360755D01*
X442574Y360744D01*
X442594Y360727D01*
X442685Y360692D01*
X442773Y360651D01*
X442799Y360648D01*
X442823Y360639D01*
X442921Y360635D01*
X443017Y360624D01*
X443043Y360629D01*
G37*
G36*
X443043Y386029D02*
X443043Y386029D01*
X443069Y386028D01*
X443163Y386055D01*
X443258Y386076D01*
X443280Y386090D01*
X443305Y386097D01*
X443385Y386152D01*
X443469Y386202D01*
X443486Y386222D01*
X443507Y386237D01*
X443566Y386315D01*
X443629Y386389D01*
X443639Y386413D01*
X443654Y386434D01*
X443684Y386527D01*
X443721Y386617D01*
X443724Y386650D01*
X443730Y386668D01*
X443730Y386701D01*
X443739Y386784D01*
X443739Y400856D01*
X443724Y400952D01*
X443714Y401049D01*
X443704Y401073D01*
X443700Y401099D01*
X443654Y401185D01*
X443614Y401274D01*
X443597Y401293D01*
X443584Y401316D01*
X443514Y401383D01*
X443448Y401455D01*
X443425Y401467D01*
X443406Y401485D01*
X443318Y401526D01*
X443232Y401573D01*
X443207Y401578D01*
X443183Y401589D01*
X443086Y401600D01*
X442990Y401617D01*
X442964Y401613D01*
X442939Y401616D01*
X442843Y401595D01*
X442747Y401581D01*
X442724Y401569D01*
X442698Y401564D01*
X442615Y401514D01*
X442528Y401470D01*
X442509Y401451D01*
X442487Y401438D01*
X442424Y401364D01*
X442356Y401294D01*
X442340Y401266D01*
X442327Y401251D01*
X442315Y401220D01*
X442275Y401147D01*
X441654Y399648D01*
X438242Y396236D01*
X434107Y394523D01*
X434045Y394485D01*
X433980Y394456D01*
X433942Y394421D01*
X433897Y394394D01*
X433852Y394338D01*
X433799Y394290D01*
X433774Y394244D01*
X433741Y394204D01*
X433715Y394137D01*
X433680Y394074D01*
X433671Y394023D01*
X433652Y393975D01*
X433649Y393903D01*
X433637Y393832D01*
X433644Y393781D01*
X433642Y393729D01*
X433662Y393660D01*
X433672Y393589D01*
X433696Y393543D01*
X433711Y393493D01*
X433751Y393434D01*
X433784Y393370D01*
X433821Y393333D01*
X433851Y393291D01*
X433908Y393248D01*
X433960Y393198D01*
X434022Y393163D01*
X434048Y393144D01*
X434070Y393137D01*
X434107Y393117D01*
X438242Y391404D01*
X441654Y387992D01*
X442275Y386493D01*
X442326Y386410D01*
X442372Y386324D01*
X442390Y386306D01*
X442404Y386284D01*
X442480Y386221D01*
X442550Y386155D01*
X442574Y386144D01*
X442594Y386127D01*
X442685Y386092D01*
X442773Y386051D01*
X442799Y386048D01*
X442823Y386039D01*
X442921Y386035D01*
X443017Y386024D01*
X443043Y386029D01*
G37*
G36*
X443043Y182829D02*
X443043Y182829D01*
X443069Y182828D01*
X443163Y182855D01*
X443258Y182876D01*
X443280Y182890D01*
X443305Y182897D01*
X443385Y182952D01*
X443469Y183002D01*
X443486Y183022D01*
X443507Y183037D01*
X443566Y183115D01*
X443629Y183189D01*
X443639Y183213D01*
X443654Y183234D01*
X443684Y183327D01*
X443721Y183417D01*
X443724Y183450D01*
X443730Y183468D01*
X443730Y183501D01*
X443739Y183584D01*
X443739Y197656D01*
X443724Y197752D01*
X443714Y197849D01*
X443704Y197873D01*
X443700Y197899D01*
X443654Y197985D01*
X443614Y198074D01*
X443597Y198093D01*
X443584Y198116D01*
X443514Y198183D01*
X443448Y198255D01*
X443425Y198267D01*
X443406Y198285D01*
X443318Y198326D01*
X443232Y198373D01*
X443207Y198378D01*
X443183Y198389D01*
X443086Y198400D01*
X442990Y198417D01*
X442964Y198413D01*
X442939Y198416D01*
X442843Y198395D01*
X442747Y198381D01*
X442724Y198369D01*
X442698Y198364D01*
X442615Y198314D01*
X442528Y198270D01*
X442509Y198251D01*
X442487Y198238D01*
X442424Y198164D01*
X442356Y198094D01*
X442340Y198066D01*
X442327Y198051D01*
X442315Y198020D01*
X442275Y197947D01*
X441654Y196448D01*
X438242Y193036D01*
X434107Y191323D01*
X434046Y191286D01*
X433980Y191256D01*
X433942Y191221D01*
X433897Y191194D01*
X433852Y191139D01*
X433799Y191090D01*
X433774Y191044D01*
X433741Y191004D01*
X433715Y190937D01*
X433680Y190874D01*
X433671Y190823D01*
X433652Y190775D01*
X433649Y190703D01*
X433637Y190632D01*
X433644Y190581D01*
X433642Y190529D01*
X433662Y190460D01*
X433672Y190389D01*
X433696Y190343D01*
X433711Y190293D01*
X433751Y190234D01*
X433784Y190170D01*
X433821Y190133D01*
X433851Y190091D01*
X433908Y190048D01*
X433960Y189998D01*
X434022Y189963D01*
X434048Y189944D01*
X434070Y189937D01*
X434107Y189917D01*
X438242Y188204D01*
X441654Y184792D01*
X442275Y183293D01*
X442326Y183210D01*
X442372Y183124D01*
X442390Y183106D01*
X442404Y183084D01*
X442480Y183021D01*
X442550Y182955D01*
X442574Y182944D01*
X442594Y182927D01*
X442685Y182892D01*
X442773Y182851D01*
X442799Y182848D01*
X442823Y182839D01*
X442921Y182835D01*
X443017Y182824D01*
X443043Y182829D01*
G37*
G36*
X443043Y157429D02*
X443043Y157429D01*
X443069Y157428D01*
X443163Y157455D01*
X443258Y157476D01*
X443280Y157490D01*
X443305Y157497D01*
X443385Y157552D01*
X443469Y157602D01*
X443486Y157622D01*
X443507Y157637D01*
X443566Y157715D01*
X443629Y157789D01*
X443639Y157813D01*
X443654Y157834D01*
X443684Y157927D01*
X443721Y158017D01*
X443724Y158050D01*
X443730Y158068D01*
X443730Y158101D01*
X443739Y158184D01*
X443739Y172256D01*
X443724Y172352D01*
X443714Y172449D01*
X443704Y172473D01*
X443700Y172499D01*
X443654Y172585D01*
X443614Y172674D01*
X443597Y172693D01*
X443584Y172716D01*
X443514Y172783D01*
X443448Y172855D01*
X443425Y172867D01*
X443406Y172885D01*
X443318Y172926D01*
X443232Y172973D01*
X443207Y172978D01*
X443183Y172989D01*
X443086Y173000D01*
X442990Y173017D01*
X442964Y173013D01*
X442939Y173016D01*
X442843Y172995D01*
X442747Y172981D01*
X442724Y172969D01*
X442698Y172964D01*
X442615Y172914D01*
X442528Y172870D01*
X442509Y172851D01*
X442487Y172838D01*
X442424Y172764D01*
X442356Y172694D01*
X442340Y172666D01*
X442327Y172651D01*
X442315Y172620D01*
X442275Y172547D01*
X441654Y171048D01*
X438242Y167636D01*
X434107Y165923D01*
X434046Y165886D01*
X433980Y165856D01*
X433942Y165821D01*
X433897Y165794D01*
X433852Y165739D01*
X433799Y165690D01*
X433774Y165644D01*
X433741Y165604D01*
X433715Y165537D01*
X433680Y165474D01*
X433671Y165423D01*
X433652Y165375D01*
X433649Y165303D01*
X433637Y165232D01*
X433644Y165181D01*
X433642Y165129D01*
X433662Y165060D01*
X433672Y164989D01*
X433696Y164943D01*
X433711Y164893D01*
X433751Y164834D01*
X433784Y164770D01*
X433821Y164733D01*
X433851Y164691D01*
X433908Y164648D01*
X433960Y164598D01*
X434022Y164563D01*
X434048Y164544D01*
X434070Y164537D01*
X434107Y164517D01*
X438242Y162804D01*
X441654Y159392D01*
X442275Y157893D01*
X442326Y157810D01*
X442372Y157724D01*
X442390Y157706D01*
X442404Y157684D01*
X442480Y157621D01*
X442550Y157555D01*
X442574Y157544D01*
X442594Y157527D01*
X442685Y157492D01*
X442773Y157451D01*
X442799Y157448D01*
X442823Y157439D01*
X442921Y157435D01*
X443017Y157424D01*
X443043Y157429D01*
G37*
G36*
X443043Y132029D02*
X443043Y132029D01*
X443069Y132028D01*
X443163Y132055D01*
X443258Y132076D01*
X443280Y132090D01*
X443305Y132097D01*
X443385Y132152D01*
X443469Y132202D01*
X443486Y132222D01*
X443507Y132237D01*
X443566Y132315D01*
X443629Y132389D01*
X443639Y132413D01*
X443654Y132434D01*
X443684Y132527D01*
X443721Y132617D01*
X443724Y132650D01*
X443730Y132668D01*
X443730Y132701D01*
X443739Y132784D01*
X443739Y146856D01*
X443724Y146952D01*
X443714Y147049D01*
X443704Y147073D01*
X443700Y147099D01*
X443654Y147185D01*
X443614Y147274D01*
X443597Y147293D01*
X443584Y147316D01*
X443514Y147383D01*
X443448Y147455D01*
X443425Y147467D01*
X443406Y147485D01*
X443318Y147526D01*
X443232Y147573D01*
X443207Y147578D01*
X443183Y147589D01*
X443086Y147600D01*
X442990Y147617D01*
X442964Y147613D01*
X442939Y147616D01*
X442843Y147595D01*
X442747Y147581D01*
X442724Y147569D01*
X442698Y147564D01*
X442615Y147514D01*
X442528Y147470D01*
X442509Y147451D01*
X442487Y147438D01*
X442424Y147364D01*
X442356Y147294D01*
X442340Y147266D01*
X442327Y147251D01*
X442315Y147220D01*
X442275Y147147D01*
X441654Y145648D01*
X438242Y142236D01*
X434107Y140523D01*
X434046Y140486D01*
X433980Y140456D01*
X433942Y140421D01*
X433897Y140394D01*
X433852Y140339D01*
X433799Y140290D01*
X433774Y140244D01*
X433741Y140204D01*
X433715Y140137D01*
X433680Y140074D01*
X433671Y140023D01*
X433652Y139975D01*
X433649Y139903D01*
X433637Y139832D01*
X433644Y139781D01*
X433642Y139729D01*
X433662Y139660D01*
X433672Y139589D01*
X433696Y139543D01*
X433711Y139493D01*
X433751Y139434D01*
X433784Y139370D01*
X433821Y139333D01*
X433851Y139291D01*
X433908Y139248D01*
X433960Y139198D01*
X434022Y139163D01*
X434048Y139144D01*
X434070Y139137D01*
X434107Y139117D01*
X438242Y137404D01*
X441654Y133992D01*
X442275Y132493D01*
X442326Y132410D01*
X442372Y132324D01*
X442390Y132306D01*
X442404Y132284D01*
X442480Y132221D01*
X442550Y132155D01*
X442574Y132144D01*
X442594Y132127D01*
X442685Y132092D01*
X442773Y132051D01*
X442799Y132048D01*
X442823Y132039D01*
X442921Y132035D01*
X443017Y132024D01*
X443043Y132029D01*
G37*
G36*
X443043Y106629D02*
X443043Y106629D01*
X443069Y106628D01*
X443163Y106655D01*
X443258Y106676D01*
X443280Y106690D01*
X443305Y106697D01*
X443385Y106752D01*
X443469Y106802D01*
X443486Y106822D01*
X443507Y106837D01*
X443566Y106915D01*
X443629Y106989D01*
X443639Y107014D01*
X443654Y107034D01*
X443684Y107127D01*
X443721Y107217D01*
X443724Y107250D01*
X443730Y107268D01*
X443730Y107301D01*
X443739Y107384D01*
X443739Y121456D01*
X443724Y121552D01*
X443714Y121649D01*
X443704Y121673D01*
X443700Y121699D01*
X443654Y121785D01*
X443614Y121874D01*
X443597Y121893D01*
X443584Y121916D01*
X443514Y121983D01*
X443448Y122055D01*
X443425Y122067D01*
X443406Y122085D01*
X443318Y122126D01*
X443232Y122173D01*
X443207Y122178D01*
X443183Y122189D01*
X443086Y122200D01*
X442990Y122217D01*
X442964Y122213D01*
X442939Y122216D01*
X442843Y122195D01*
X442747Y122181D01*
X442724Y122169D01*
X442698Y122164D01*
X442615Y122114D01*
X442528Y122070D01*
X442509Y122051D01*
X442487Y122038D01*
X442424Y121964D01*
X442356Y121894D01*
X442340Y121866D01*
X442327Y121851D01*
X442315Y121820D01*
X442275Y121747D01*
X441654Y120248D01*
X438242Y116836D01*
X434107Y115123D01*
X434046Y115086D01*
X433980Y115056D01*
X433942Y115021D01*
X433897Y114994D01*
X433852Y114939D01*
X433799Y114890D01*
X433774Y114844D01*
X433741Y114804D01*
X433715Y114737D01*
X433680Y114674D01*
X433671Y114623D01*
X433652Y114575D01*
X433649Y114503D01*
X433637Y114432D01*
X433644Y114381D01*
X433642Y114329D01*
X433662Y114260D01*
X433672Y114189D01*
X433696Y114143D01*
X433711Y114093D01*
X433751Y114034D01*
X433784Y113970D01*
X433821Y113933D01*
X433851Y113891D01*
X433908Y113848D01*
X433960Y113798D01*
X434007Y113771D01*
X434016Y113764D01*
X434028Y113759D01*
X434048Y113744D01*
X434070Y113737D01*
X434107Y113717D01*
X438242Y112004D01*
X441654Y108592D01*
X442275Y107093D01*
X442326Y107010D01*
X442372Y106924D01*
X442390Y106906D01*
X442404Y106884D01*
X442480Y106821D01*
X442550Y106755D01*
X442574Y106744D01*
X442594Y106727D01*
X442685Y106692D01*
X442773Y106651D01*
X442799Y106648D01*
X442823Y106639D01*
X442921Y106635D01*
X443017Y106624D01*
X443043Y106629D01*
G37*
G36*
X443043Y513029D02*
X443043Y513029D01*
X443069Y513028D01*
X443163Y513055D01*
X443258Y513076D01*
X443280Y513090D01*
X443305Y513097D01*
X443385Y513152D01*
X443469Y513202D01*
X443486Y513222D01*
X443507Y513237D01*
X443566Y513315D01*
X443629Y513389D01*
X443639Y513414D01*
X443654Y513434D01*
X443684Y513527D01*
X443721Y513617D01*
X443724Y513650D01*
X443730Y513668D01*
X443730Y513701D01*
X443739Y513784D01*
X443739Y527856D01*
X443724Y527952D01*
X443714Y528049D01*
X443704Y528073D01*
X443700Y528099D01*
X443654Y528185D01*
X443614Y528274D01*
X443597Y528293D01*
X443584Y528316D01*
X443514Y528383D01*
X443448Y528455D01*
X443425Y528467D01*
X443406Y528485D01*
X443318Y528526D01*
X443232Y528573D01*
X443207Y528578D01*
X443183Y528589D01*
X443086Y528600D01*
X442990Y528617D01*
X442964Y528613D01*
X442939Y528616D01*
X442843Y528595D01*
X442747Y528581D01*
X442724Y528569D01*
X442698Y528564D01*
X442615Y528514D01*
X442528Y528470D01*
X442509Y528451D01*
X442487Y528438D01*
X442424Y528364D01*
X442356Y528294D01*
X442340Y528266D01*
X442327Y528251D01*
X442315Y528220D01*
X442275Y528147D01*
X441654Y526648D01*
X438242Y523236D01*
X434107Y521523D01*
X434046Y521486D01*
X433980Y521456D01*
X433942Y521421D01*
X433897Y521394D01*
X433852Y521339D01*
X433799Y521290D01*
X433774Y521244D01*
X433741Y521204D01*
X433715Y521137D01*
X433680Y521074D01*
X433671Y521023D01*
X433652Y520975D01*
X433649Y520903D01*
X433637Y520832D01*
X433644Y520781D01*
X433642Y520729D01*
X433662Y520660D01*
X433672Y520589D01*
X433696Y520543D01*
X433711Y520493D01*
X433751Y520434D01*
X433784Y520370D01*
X433821Y520333D01*
X433851Y520291D01*
X433908Y520248D01*
X433960Y520198D01*
X434022Y520163D01*
X434048Y520144D01*
X434070Y520137D01*
X434107Y520117D01*
X438242Y518404D01*
X441654Y514992D01*
X442275Y513493D01*
X442326Y513410D01*
X442372Y513324D01*
X442390Y513306D01*
X442404Y513284D01*
X442480Y513221D01*
X442550Y513155D01*
X442574Y513144D01*
X442594Y513127D01*
X442685Y513092D01*
X442773Y513051D01*
X442799Y513048D01*
X442823Y513039D01*
X442921Y513035D01*
X443017Y513024D01*
X443043Y513029D01*
G37*
G36*
X443043Y411429D02*
X443043Y411429D01*
X443069Y411428D01*
X443163Y411455D01*
X443258Y411476D01*
X443280Y411490D01*
X443305Y411497D01*
X443385Y411552D01*
X443469Y411602D01*
X443486Y411622D01*
X443507Y411637D01*
X443566Y411715D01*
X443629Y411789D01*
X443639Y411813D01*
X443654Y411834D01*
X443684Y411927D01*
X443721Y412017D01*
X443724Y412050D01*
X443730Y412068D01*
X443730Y412101D01*
X443739Y412184D01*
X443739Y426256D01*
X443724Y426352D01*
X443714Y426449D01*
X443704Y426473D01*
X443700Y426499D01*
X443654Y426585D01*
X443614Y426674D01*
X443597Y426693D01*
X443584Y426716D01*
X443514Y426783D01*
X443448Y426855D01*
X443425Y426867D01*
X443406Y426885D01*
X443318Y426926D01*
X443232Y426973D01*
X443207Y426978D01*
X443183Y426989D01*
X443086Y427000D01*
X442990Y427017D01*
X442964Y427013D01*
X442939Y427016D01*
X442843Y426995D01*
X442747Y426981D01*
X442724Y426969D01*
X442698Y426964D01*
X442615Y426914D01*
X442528Y426870D01*
X442509Y426851D01*
X442487Y426838D01*
X442424Y426764D01*
X442356Y426694D01*
X442340Y426666D01*
X442327Y426651D01*
X442315Y426620D01*
X442275Y426547D01*
X441654Y425048D01*
X438242Y421636D01*
X434107Y419923D01*
X434046Y419885D01*
X433980Y419856D01*
X433942Y419821D01*
X433897Y419794D01*
X433852Y419738D01*
X433799Y419690D01*
X433774Y419644D01*
X433741Y419604D01*
X433715Y419537D01*
X433680Y419474D01*
X433671Y419423D01*
X433652Y419375D01*
X433649Y419303D01*
X433637Y419232D01*
X433644Y419181D01*
X433642Y419129D01*
X433662Y419060D01*
X433672Y418989D01*
X433696Y418943D01*
X433711Y418893D01*
X433751Y418834D01*
X433784Y418770D01*
X433821Y418733D01*
X433851Y418691D01*
X433908Y418648D01*
X433960Y418598D01*
X434022Y418563D01*
X434048Y418544D01*
X434070Y418537D01*
X434107Y418517D01*
X438242Y416804D01*
X441654Y413392D01*
X442275Y411893D01*
X442326Y411810D01*
X442372Y411724D01*
X442390Y411706D01*
X442404Y411684D01*
X442480Y411621D01*
X442550Y411555D01*
X442574Y411544D01*
X442594Y411527D01*
X442685Y411492D01*
X442773Y411451D01*
X442799Y411448D01*
X442823Y411439D01*
X442921Y411435D01*
X443017Y411424D01*
X443043Y411429D01*
G37*
G36*
X443043Y487629D02*
X443043Y487629D01*
X443069Y487628D01*
X443163Y487655D01*
X443258Y487676D01*
X443280Y487690D01*
X443305Y487697D01*
X443385Y487752D01*
X443469Y487802D01*
X443486Y487822D01*
X443507Y487837D01*
X443566Y487915D01*
X443629Y487989D01*
X443639Y488014D01*
X443654Y488034D01*
X443684Y488127D01*
X443721Y488217D01*
X443724Y488250D01*
X443730Y488268D01*
X443730Y488301D01*
X443739Y488384D01*
X443739Y502456D01*
X443724Y502552D01*
X443714Y502649D01*
X443704Y502673D01*
X443700Y502699D01*
X443654Y502785D01*
X443614Y502874D01*
X443597Y502893D01*
X443584Y502916D01*
X443514Y502983D01*
X443448Y503055D01*
X443425Y503067D01*
X443406Y503085D01*
X443318Y503126D01*
X443232Y503173D01*
X443207Y503178D01*
X443183Y503189D01*
X443086Y503200D01*
X442990Y503217D01*
X442964Y503213D01*
X442939Y503216D01*
X442843Y503195D01*
X442747Y503181D01*
X442724Y503169D01*
X442698Y503164D01*
X442615Y503114D01*
X442528Y503070D01*
X442509Y503051D01*
X442487Y503038D01*
X442424Y502964D01*
X442356Y502894D01*
X442340Y502866D01*
X442327Y502851D01*
X442315Y502820D01*
X442275Y502747D01*
X441654Y501248D01*
X438242Y497836D01*
X434107Y496123D01*
X434046Y496086D01*
X433980Y496056D01*
X433942Y496021D01*
X433897Y495994D01*
X433852Y495939D01*
X433799Y495890D01*
X433774Y495844D01*
X433741Y495804D01*
X433715Y495737D01*
X433680Y495674D01*
X433671Y495623D01*
X433652Y495575D01*
X433649Y495503D01*
X433637Y495432D01*
X433644Y495381D01*
X433642Y495329D01*
X433662Y495260D01*
X433672Y495189D01*
X433696Y495143D01*
X433711Y495093D01*
X433751Y495034D01*
X433784Y494970D01*
X433821Y494933D01*
X433851Y494891D01*
X433908Y494848D01*
X433960Y494798D01*
X434022Y494763D01*
X434048Y494744D01*
X434070Y494737D01*
X434107Y494717D01*
X438242Y493004D01*
X441654Y489592D01*
X442275Y488093D01*
X442326Y488010D01*
X442372Y487924D01*
X442390Y487906D01*
X442404Y487884D01*
X442480Y487821D01*
X442550Y487755D01*
X442574Y487744D01*
X442594Y487727D01*
X442685Y487692D01*
X442773Y487651D01*
X442799Y487648D01*
X442823Y487639D01*
X442921Y487635D01*
X443017Y487624D01*
X443043Y487629D01*
G37*
G36*
X443043Y462229D02*
X443043Y462229D01*
X443069Y462228D01*
X443163Y462255D01*
X443258Y462276D01*
X443280Y462290D01*
X443305Y462297D01*
X443385Y462352D01*
X443469Y462402D01*
X443486Y462422D01*
X443507Y462437D01*
X443566Y462515D01*
X443629Y462589D01*
X443639Y462614D01*
X443654Y462634D01*
X443684Y462727D01*
X443721Y462817D01*
X443724Y462850D01*
X443730Y462868D01*
X443730Y462901D01*
X443739Y462984D01*
X443739Y477056D01*
X443724Y477152D01*
X443714Y477249D01*
X443704Y477273D01*
X443700Y477299D01*
X443654Y477385D01*
X443614Y477474D01*
X443597Y477493D01*
X443584Y477516D01*
X443514Y477583D01*
X443448Y477655D01*
X443425Y477667D01*
X443406Y477685D01*
X443318Y477726D01*
X443232Y477773D01*
X443207Y477778D01*
X443183Y477789D01*
X443086Y477800D01*
X442990Y477817D01*
X442964Y477813D01*
X442939Y477816D01*
X442843Y477795D01*
X442747Y477781D01*
X442724Y477769D01*
X442698Y477764D01*
X442615Y477714D01*
X442528Y477670D01*
X442509Y477651D01*
X442487Y477638D01*
X442424Y477564D01*
X442356Y477494D01*
X442340Y477466D01*
X442327Y477451D01*
X442315Y477420D01*
X442275Y477347D01*
X441654Y475848D01*
X438242Y472436D01*
X434107Y470723D01*
X434046Y470686D01*
X433980Y470656D01*
X433942Y470621D01*
X433897Y470594D01*
X433852Y470539D01*
X433799Y470490D01*
X433774Y470444D01*
X433741Y470404D01*
X433715Y470337D01*
X433680Y470274D01*
X433671Y470223D01*
X433652Y470175D01*
X433649Y470103D01*
X433637Y470032D01*
X433644Y469981D01*
X433642Y469929D01*
X433662Y469860D01*
X433672Y469789D01*
X433696Y469743D01*
X433711Y469693D01*
X433751Y469634D01*
X433784Y469570D01*
X433821Y469533D01*
X433851Y469491D01*
X433908Y469448D01*
X433960Y469398D01*
X434022Y469363D01*
X434048Y469344D01*
X434070Y469337D01*
X434107Y469317D01*
X438242Y467604D01*
X441654Y464192D01*
X442275Y462693D01*
X442326Y462610D01*
X442372Y462524D01*
X442390Y462506D01*
X442404Y462484D01*
X442480Y462421D01*
X442550Y462355D01*
X442574Y462344D01*
X442594Y462327D01*
X442685Y462292D01*
X442773Y462251D01*
X442799Y462248D01*
X442823Y462239D01*
X442921Y462235D01*
X443017Y462224D01*
X443043Y462229D01*
G37*
G36*
X443043Y538429D02*
X443043Y538429D01*
X443069Y538428D01*
X443163Y538455D01*
X443258Y538476D01*
X443280Y538490D01*
X443305Y538497D01*
X443385Y538552D01*
X443469Y538602D01*
X443486Y538622D01*
X443507Y538637D01*
X443566Y538715D01*
X443605Y538761D01*
X443608Y538764D01*
X443608Y538765D01*
X443629Y538789D01*
X443639Y538813D01*
X443654Y538834D01*
X443684Y538927D01*
X443692Y538945D01*
X443711Y538987D01*
X443712Y538996D01*
X443721Y539017D01*
X443724Y539050D01*
X443730Y539068D01*
X443730Y539101D01*
X443739Y539184D01*
X443739Y550885D01*
X443728Y550955D01*
X443726Y551027D01*
X443708Y551076D01*
X443700Y551127D01*
X443666Y551191D01*
X443641Y551258D01*
X443609Y551299D01*
X443584Y551345D01*
X443532Y551394D01*
X443488Y551450D01*
X443444Y551478D01*
X443406Y551514D01*
X443341Y551544D01*
X443281Y551583D01*
X443230Y551596D01*
X443183Y551618D01*
X443112Y551626D01*
X443042Y551643D01*
X442990Y551639D01*
X442939Y551645D01*
X442868Y551630D01*
X442797Y551624D01*
X442749Y551604D01*
X442698Y551593D01*
X442637Y551556D01*
X442571Y551528D01*
X442515Y551483D01*
X442487Y551466D01*
X442472Y551449D01*
X442440Y551423D01*
X438807Y547790D01*
X435410Y546383D01*
X435350Y546345D01*
X435284Y546316D01*
X435246Y546281D01*
X435201Y546254D01*
X435156Y546198D01*
X435103Y546150D01*
X435078Y546104D01*
X435045Y546064D01*
X435019Y545997D01*
X434984Y545934D01*
X434975Y545883D01*
X434956Y545834D01*
X434953Y545763D01*
X434941Y545692D01*
X434948Y545641D01*
X434946Y545589D01*
X434966Y545520D01*
X434976Y545449D01*
X435000Y545403D01*
X435015Y545353D01*
X435055Y545294D01*
X435088Y545230D01*
X435125Y545193D01*
X435155Y545150D01*
X435212Y545108D01*
X435264Y545057D01*
X435326Y545023D01*
X435352Y545004D01*
X435374Y544996D01*
X435410Y544977D01*
X438242Y543804D01*
X441654Y540392D01*
X442275Y538893D01*
X442326Y538810D01*
X442372Y538724D01*
X442389Y538707D01*
X442393Y538701D01*
X442394Y538700D01*
X442404Y538684D01*
X442480Y538621D01*
X442550Y538555D01*
X442574Y538544D01*
X442594Y538527D01*
X442685Y538492D01*
X442773Y538451D01*
X442799Y538448D01*
X442823Y538439D01*
X442921Y538435D01*
X443017Y538424D01*
X443043Y538429D01*
G37*
G36*
X272415Y38874D02*
X272415Y38874D01*
X272486Y38876D01*
X272535Y38894D01*
X272587Y38902D01*
X272650Y38936D01*
X272717Y38961D01*
X272758Y38993D01*
X272804Y39018D01*
X272853Y39069D01*
X272910Y39114D01*
X272938Y39158D01*
X272974Y39196D01*
X273004Y39261D01*
X273043Y39321D01*
X273055Y39372D01*
X273077Y39419D01*
X273085Y39490D01*
X273103Y39560D01*
X273099Y39612D01*
X273104Y39663D01*
X273089Y39734D01*
X273083Y39805D01*
X273063Y39853D01*
X273052Y39904D01*
X273015Y39965D01*
X272987Y40031D01*
X272942Y40087D01*
X272926Y40115D01*
X272908Y40130D01*
X272882Y40162D01*
X267585Y45460D01*
X267569Y45471D01*
X267556Y45487D01*
X267469Y45543D01*
X267385Y45603D01*
X267366Y45609D01*
X267349Y45620D01*
X267249Y45645D01*
X267150Y45676D01*
X267130Y45675D01*
X267111Y45680D01*
X267008Y45672D01*
X266904Y45669D01*
X266885Y45662D01*
X266865Y45661D01*
X266771Y45621D01*
X266673Y45585D01*
X266657Y45572D01*
X266639Y45565D01*
X266508Y45460D01*
X261211Y40162D01*
X261169Y40104D01*
X261119Y40052D01*
X261097Y40005D01*
X261067Y39963D01*
X261046Y39894D01*
X261016Y39829D01*
X261010Y39777D01*
X260995Y39727D01*
X260997Y39656D01*
X260989Y39585D01*
X261000Y39534D01*
X261001Y39482D01*
X261026Y39414D01*
X261041Y39344D01*
X261068Y39300D01*
X261086Y39251D01*
X261130Y39195D01*
X261167Y39133D01*
X261207Y39099D01*
X261239Y39059D01*
X261300Y39020D01*
X261354Y38973D01*
X261402Y38954D01*
X261446Y38926D01*
X261516Y38908D01*
X261582Y38881D01*
X261654Y38873D01*
X261685Y38865D01*
X261708Y38867D01*
X261749Y38863D01*
X272344Y38863D01*
X272415Y38874D01*
G37*
G36*
X242934Y57804D02*
X242934Y57804D01*
X243005Y57810D01*
X243053Y57830D01*
X243104Y57841D01*
X243165Y57878D01*
X243231Y57906D01*
X243287Y57951D01*
X243315Y57967D01*
X243330Y57985D01*
X243362Y58011D01*
X248313Y62962D01*
X248325Y62978D01*
X248341Y62990D01*
X248397Y63077D01*
X248457Y63161D01*
X248463Y63181D01*
X248474Y63197D01*
X248499Y63298D01*
X248529Y63397D01*
X248529Y63416D01*
X248534Y63436D01*
X248526Y63539D01*
X248523Y63642D01*
X248516Y63661D01*
X248514Y63681D01*
X248474Y63776D01*
X248438Y63873D01*
X248426Y63889D01*
X248418Y63907D01*
X248313Y64038D01*
X243362Y68989D01*
X243304Y69031D01*
X243252Y69081D01*
X243205Y69103D01*
X243163Y69133D01*
X243094Y69154D01*
X243029Y69184D01*
X242977Y69190D01*
X242927Y69205D01*
X242856Y69203D01*
X242785Y69211D01*
X242734Y69200D01*
X242682Y69199D01*
X242614Y69174D01*
X242544Y69159D01*
X242500Y69132D01*
X242451Y69114D01*
X242395Y69070D01*
X242333Y69033D01*
X242299Y68993D01*
X242259Y68961D01*
X242220Y68900D01*
X242173Y68846D01*
X242154Y68798D01*
X242126Y68754D01*
X242108Y68684D01*
X242081Y68618D01*
X242073Y68546D01*
X242065Y68515D01*
X242067Y68492D01*
X242063Y68451D01*
X242063Y58549D01*
X242074Y58478D01*
X242076Y58406D01*
X242094Y58358D01*
X242102Y58306D01*
X242136Y58243D01*
X242161Y58175D01*
X242193Y58135D01*
X242218Y58089D01*
X242270Y58039D01*
X242314Y57983D01*
X242358Y57955D01*
X242396Y57919D01*
X242461Y57889D01*
X242521Y57850D01*
X242572Y57838D01*
X242619Y57816D01*
X242690Y57808D01*
X242760Y57790D01*
X242812Y57794D01*
X242863Y57789D01*
X242934Y57804D01*
G37*
G36*
X443068Y566206D02*
X443068Y566206D01*
X443120Y566208D01*
X443188Y566232D01*
X443258Y566247D01*
X443303Y566274D01*
X443351Y566292D01*
X443407Y566337D01*
X443469Y566374D01*
X443503Y566413D01*
X443543Y566446D01*
X443582Y566506D01*
X443629Y566560D01*
X443648Y566609D01*
X443676Y566653D01*
X443694Y566722D01*
X443721Y566789D01*
X443729Y566860D01*
X443737Y566891D01*
X443735Y566914D01*
X443739Y566955D01*
X443739Y576285D01*
X443728Y576355D01*
X443726Y576427D01*
X443708Y576476D01*
X443700Y576527D01*
X443666Y576591D01*
X443641Y576658D01*
X443609Y576699D01*
X443584Y576745D01*
X443532Y576794D01*
X443488Y576850D01*
X443444Y576878D01*
X443406Y576914D01*
X443341Y576944D01*
X443281Y576983D01*
X443230Y576996D01*
X443183Y577018D01*
X443112Y577026D01*
X443042Y577043D01*
X442990Y577039D01*
X442939Y577045D01*
X442868Y577030D01*
X442797Y577024D01*
X442749Y577004D01*
X442698Y576993D01*
X442637Y576956D01*
X442571Y576928D01*
X442515Y576883D01*
X442487Y576866D01*
X442472Y576849D01*
X442440Y576823D01*
X438807Y573190D01*
X436714Y572323D01*
X436653Y572285D01*
X436588Y572256D01*
X436550Y572221D01*
X436505Y572194D01*
X436460Y572138D01*
X436407Y572090D01*
X436382Y572044D01*
X436349Y572004D01*
X436323Y571937D01*
X436288Y571874D01*
X436279Y571823D01*
X436260Y571775D01*
X436257Y571703D01*
X436245Y571632D01*
X436252Y571581D01*
X436250Y571529D01*
X436270Y571460D01*
X436280Y571389D01*
X436304Y571343D01*
X436318Y571293D01*
X436359Y571234D01*
X436392Y571170D01*
X436429Y571133D01*
X436459Y571091D01*
X436516Y571048D01*
X436567Y570998D01*
X436630Y570963D01*
X436656Y570944D01*
X436678Y570937D01*
X436714Y570917D01*
X438807Y570050D01*
X442440Y566417D01*
X442498Y566375D01*
X442550Y566326D01*
X442597Y566304D01*
X442639Y566274D01*
X442708Y566252D01*
X442773Y566222D01*
X442825Y566217D01*
X442875Y566201D01*
X442946Y566203D01*
X443017Y566195D01*
X443068Y566206D01*
G37*
G36*
X163432Y657812D02*
X163432Y657812D01*
X163503Y657817D01*
X163551Y657838D01*
X163602Y657849D01*
X163663Y657885D01*
X163729Y657914D01*
X163785Y657958D01*
X163813Y657975D01*
X163828Y657993D01*
X163860Y658018D01*
X167382Y661540D01*
X167423Y661598D01*
X167473Y661650D01*
X167495Y661697D01*
X167525Y661739D01*
X167546Y661808D01*
X167577Y661873D01*
X167582Y661925D01*
X167598Y661975D01*
X167596Y662046D01*
X167604Y662117D01*
X167593Y662168D01*
X167591Y662220D01*
X167567Y662288D01*
X167551Y662358D01*
X167525Y662402D01*
X167507Y662451D01*
X167462Y662507D01*
X167425Y662569D01*
X167386Y662603D01*
X167353Y662643D01*
X167293Y662682D01*
X167238Y662729D01*
X167190Y662748D01*
X167146Y662776D01*
X167077Y662794D01*
X167010Y662821D01*
X166939Y662829D01*
X166908Y662837D01*
X166884Y662835D01*
X166843Y662839D01*
X163322Y662839D01*
X163302Y662836D01*
X163283Y662838D01*
X163181Y662816D01*
X163079Y662800D01*
X163062Y662790D01*
X163042Y662786D01*
X162953Y662733D01*
X162862Y662684D01*
X162848Y662670D01*
X162831Y662660D01*
X162764Y662581D01*
X162692Y662506D01*
X162684Y662488D01*
X162671Y662473D01*
X162632Y662377D01*
X162589Y662283D01*
X162587Y662263D01*
X162579Y662245D01*
X162561Y662078D01*
X162561Y658557D01*
X162572Y658486D01*
X162574Y658414D01*
X162592Y658365D01*
X162600Y658314D01*
X162634Y658251D01*
X162659Y658183D01*
X162691Y658142D01*
X162716Y658096D01*
X162767Y658047D01*
X162812Y657991D01*
X162856Y657963D01*
X162894Y657927D01*
X162959Y657897D01*
X163019Y657858D01*
X163070Y657845D01*
X163117Y657823D01*
X163188Y657816D01*
X163258Y657798D01*
X163310Y657802D01*
X163361Y657796D01*
X163432Y657812D01*
G37*
G36*
X443068Y661107D02*
X443068Y661107D01*
X443120Y661109D01*
X443188Y661133D01*
X443258Y661149D01*
X443302Y661175D01*
X443351Y661193D01*
X443407Y661238D01*
X443469Y661275D01*
X443503Y661314D01*
X443543Y661347D01*
X443582Y661407D01*
X443629Y661462D01*
X443648Y661510D01*
X443676Y661554D01*
X443694Y661623D01*
X443721Y661690D01*
X443729Y661761D01*
X443737Y661792D01*
X443735Y661816D01*
X443739Y661857D01*
X443739Y662078D01*
X443736Y662098D01*
X443738Y662117D01*
X443716Y662219D01*
X443700Y662321D01*
X443690Y662338D01*
X443686Y662358D01*
X443633Y662447D01*
X443584Y662538D01*
X443570Y662552D01*
X443560Y662569D01*
X443481Y662636D01*
X443406Y662708D01*
X443388Y662716D01*
X443373Y662729D01*
X443277Y662768D01*
X443183Y662811D01*
X443163Y662813D01*
X443145Y662821D01*
X442978Y662839D01*
X442757Y662839D01*
X442686Y662828D01*
X442614Y662826D01*
X442565Y662808D01*
X442514Y662800D01*
X442451Y662766D01*
X442383Y662741D01*
X442342Y662709D01*
X442296Y662684D01*
X442247Y662633D01*
X442191Y662588D01*
X442163Y662544D01*
X442127Y662506D01*
X442097Y662441D01*
X442058Y662381D01*
X442045Y662330D01*
X442023Y662283D01*
X442016Y662212D01*
X441998Y662142D01*
X442002Y662090D01*
X441996Y662039D01*
X442012Y661968D01*
X442017Y661897D01*
X442038Y661849D01*
X442049Y661798D01*
X442085Y661737D01*
X442114Y661671D01*
X442158Y661615D01*
X442175Y661587D01*
X442193Y661572D01*
X442218Y661540D01*
X442440Y661318D01*
X442498Y661277D01*
X442550Y661227D01*
X442597Y661205D01*
X442639Y661175D01*
X442708Y661154D01*
X442773Y661123D01*
X442825Y661118D01*
X442875Y661102D01*
X442946Y661104D01*
X443017Y661096D01*
X443068Y661107D01*
G37*
%LPC*%
G36*
X279399Y507999D02*
X279399Y507999D01*
X279399Y508001D01*
X279401Y508001D01*
X279401Y507999D01*
X279399Y507999D01*
G37*
%LPD*%
%LPC*%
G36*
X266699Y558799D02*
X266699Y558799D01*
X266699Y558801D01*
X266701Y558801D01*
X266701Y558799D01*
X266699Y558799D01*
G37*
%LPD*%
%LPC*%
G36*
X304799Y558799D02*
X304799Y558799D01*
X304799Y558801D01*
X304801Y558801D01*
X304801Y558799D01*
X304799Y558799D01*
G37*
%LPD*%
D10*
X203200Y254000D03*
X254000Y254000D03*
X203200Y228600D03*
X254000Y228600D03*
D11*
X304800Y127000D03*
D12*
X304800Y152400D03*
D13*
X228600Y152400D03*
D12*
X228600Y127000D03*
D11*
X203200Y508000D03*
X203200Y457200D03*
D14*
X279400Y457200D03*
D15*
X279400Y508000D03*
D11*
X330200Y355600D03*
X330200Y254000D03*
D13*
X355600Y228600D03*
X355600Y381000D03*
D10*
X279400Y609600D03*
X355600Y609600D03*
D11*
X381000Y330200D03*
X381000Y254000D03*
D10*
X203200Y177800D03*
X279400Y177800D03*
X203200Y203200D03*
X279400Y203200D03*
D13*
X355600Y431800D03*
X355600Y508000D03*
D16*
X405970Y584320D03*
D17*
X431370Y584320D03*
X405970Y558920D03*
X431370Y558920D03*
X405970Y533520D03*
X431370Y533520D03*
X405970Y508120D03*
X431370Y508120D03*
X405970Y482720D03*
X431370Y482720D03*
X405970Y457320D03*
X431370Y457320D03*
X405970Y431920D03*
X431370Y431920D03*
X405970Y406520D03*
X431370Y406520D03*
X405970Y381120D03*
X431370Y381120D03*
X405970Y355720D03*
X431370Y355720D03*
X405970Y330320D03*
X431370Y330320D03*
X405970Y304920D03*
X431370Y304920D03*
X405970Y279520D03*
X431370Y279520D03*
X405970Y254120D03*
X431370Y254120D03*
X405970Y228720D03*
X431370Y228720D03*
X405970Y203320D03*
X431370Y203320D03*
X405970Y177920D03*
X431370Y177920D03*
X405970Y152520D03*
X431370Y152520D03*
X405970Y127120D03*
X431370Y127120D03*
X405970Y101720D03*
X431370Y101720D03*
D18*
X355600Y76200D03*
X355600Y50800D03*
X330200Y76200D03*
X330200Y50800D03*
X304800Y76200D03*
X304800Y50800D03*
X279400Y76200D03*
X279400Y50800D03*
X254000Y76200D03*
X254000Y50800D03*
D19*
X279400Y635000D03*
X304800Y635000D03*
X330200Y635000D03*
D20*
X266700Y558800D03*
X215900Y558800D03*
D10*
X304800Y558800D03*
X355600Y558800D03*
D21*
X355600Y127000D03*
X355600Y101600D03*
D22*
X400050Y488950D02*
X298450Y488950D01*
X279400Y508000D01*
X400050Y488950D02*
X405970Y482720D01*
X304800Y558800D02*
X304800Y635000D01*
X400050Y101600D02*
X374650Y76200D01*
X374650Y69850D01*
X355600Y50800D01*
X400050Y101600D02*
X405970Y101720D01*
X304800Y76200D02*
X285750Y95250D01*
X273050Y95250D01*
X254000Y76200D01*
D23*
X311150Y254000D02*
X254000Y311150D01*
X311150Y254000D02*
X311150Y247650D01*
X374650Y184150D01*
X400050Y184150D01*
X405970Y177920D01*
D24*
X254000Y311150D03*
D23*
X266700Y342900D02*
X266700Y374650D01*
X266700Y342900D02*
X374650Y234950D01*
X400050Y234950D01*
X405970Y228720D01*
D24*
X266700Y374650D03*
D23*
X254000Y152400D02*
X228600Y152400D01*
X254000Y152400D02*
X279400Y177800D01*
X254000Y152400D02*
X330200Y76200D01*
X323850Y158750D02*
X279400Y203200D01*
X323850Y158750D02*
X323850Y146050D01*
X304800Y127000D01*
X304800Y431800D02*
X355600Y431800D01*
X304800Y431800D02*
X234950Y361950D01*
X234950Y203200D01*
X260350Y177800D01*
D24*
X260350Y177800D03*
D22*
X304800Y50800D02*
X285750Y31750D01*
X247650Y31750D01*
X234950Y44450D01*
X234950Y95250D01*
X184150Y146050D01*
X184150Y527050D01*
X215900Y558800D01*
M02*
