M48
;GenerationSoftware,Autodesk,EAGLE,9.3.2*%
;CreationDate,2019-04-29T23:12:52Z*%
FMAT,2
ICI,OFF
METRIC,TZ,000.000
T7C0.700
T6C0.813
T5C1.000
T4C1.016
T3C2.750
T2C2.800
%
G90
M71
T2
X19050Y5080
X41910Y5080
X41910Y63500
X19050Y63500
X43960Y-1120
X16750Y-1120
T3
X18867Y63302
X41867Y63302
X18867Y5302
X41867Y5302
T4
X35560Y10160
X27940Y50800
X27940Y45720
X27940Y63500
X30480Y63500
X33020Y63500
X35560Y12700
T5
X43137Y40652
X40597Y20332
X43137Y22872
X40597Y22872
X43137Y25412
X40597Y25412
X43137Y27952
X43137Y20332
X40597Y27952
X43137Y30492
X40597Y30492
X43137Y33032
X40597Y33032
X43137Y35572
X40597Y35572
X43137Y38112
X40597Y38112
X40597Y45732
X35560Y5080
X25400Y5080
X25400Y7620
X27940Y5080
X27940Y7620
X30480Y5080
X30480Y7620
X33020Y5080
X33020Y7620
X40597Y17792
X35560Y7620
X43137Y10172
X40597Y10172
X43137Y12712
X40597Y12712
X43137Y15252
X40597Y15252
X43137Y17792
X43137Y43192
X40597Y40652
X40597Y58432
X43137Y58432
X40597Y55892
X43137Y55892
X40597Y53352
X43137Y53352
X43137Y50812
X40597Y48272
X43137Y48272
X40597Y50812
X43137Y45732
X40597Y43192
T6
X20320Y45720
X20320Y50800
X22860Y12700
X22860Y15240
X30480Y15240
X30480Y12700
X38100Y33020
X25400Y22860
X20320Y22860
X25400Y25400
X20320Y25400
X26670Y55880
X21590Y55880
X30480Y55880
X35560Y55880
X33020Y35560
X33020Y25400
X35560Y22860
X35560Y38100
X27940Y60960
X35560Y60960
X38100Y25400
X20320Y17780
X27940Y17780
X20320Y20320
X27940Y20320
X35560Y43180
X35560Y50800
T7
X25400Y31115
X26035Y17780
X26670Y37465
M30